<svg viewBox="0 0 347 72" fill="none" xmlns="http://www.w3.org/2000/svg">
<path fill-rule="evenodd" clip-rule="evenodd" d="M58 64.4978C66.5161 57.9138 72 47.5973 72 36C72 16.1177 55.8823 0 36 0C16.1177 0 0 16.1177 0 36C0 55.8823 16.1177 72 36 72C41.5957 72 46.8932 70.7233 51.6171 68.4454V36.668C51.6171 33.946 50.5636 31.3803 48.6406 29.442C46.721 27.507 44.1799 26.4277 41.4682 26.3911L40.406 26.3768V20L41.4918 20.0091C45.8968 20.0461 50.0453 21.7999 53.1581 24.9369C56.2769 28.0798 58 32.2462 58 36.668V64.4978ZM36.0437 41.8916L36.0347 48.4747L18.019 40.432C15.5777 39.3418 14 36.9148 14 34.2393C14 31.5638 15.5776 29.1369 18.0189 28.0467L36.0427 20.0032V26.5759L20.4777 33.4457L20.4761 33.4464C20.1617 33.5874 19.9616 33.8974 19.9616 34.2335C19.9616 34.5743 20.16 34.8806 20.4742 35.0198L36.0437 41.8916ZM139.201 10.2858C136.513 10.2858 134.401 12.3629 134.401 15.0166C134.401 17.6702 136.513 19.7474 139.201 19.7474C141.889 19.7474 144 17.6702 144 15.0166C144 12.3629 141.889 10.2858 139.201 10.2858ZM298.668 31.6592H297.972C295.242 27.0132 291.07 24.7495 285.236 24.7495C275.637 24.7495 268.675 32.524 268.675 43.2319C268.675 53.9398 275.637 61.7058 285.236 61.7058C291.104 61.7058 295.267 59.4252 297.972 54.7283H298.812V60.7139H304.281V10.6418H298.668V31.6592ZM298.676 43.2319C298.676 51.3116 293.902 56.5257 286.516 56.5257C279.131 56.5257 274.357 51.3031 274.357 43.2319C274.357 35.1607 279.131 29.8618 286.516 29.8618C293.902 29.8618 298.676 35.1098 298.676 43.2319ZM346.823 42.0875C346.823 37.026 345.203 32.6767 342.125 29.5144C339.056 26.352 334.824 24.6733 329.906 24.6733C319.977 24.6733 312.498 32.5241 312.498 42.9353C312.498 48.1409 314.261 52.8802 317.475 56.2884C320.757 59.7729 325.429 61.6975 330.618 61.6975C337.597 61.6975 342.685 58.6538 346.17 52.3885L346.221 52.3037L341.354 49.7602L341.26 49.7094L341.218 49.8026C338.996 54.4147 335.503 56.6615 330.551 56.6615C323.614 56.6615 318.857 52.1256 318.399 45.1057H346.823V42.0875ZM340.921 40.4258H318.399C319.069 33.7195 323.368 29.7178 329.906 29.7178C333.162 29.7178 335.901 30.6928 337.826 32.5496C339.759 34.4148 340.836 37.1362 340.921 40.4258ZM232.128 29.9383C235.359 26.5894 239.921 24.7496 244.975 24.7496C249.994 24.7496 254.54 26.5979 257.753 29.9383C260.967 33.2871 262.739 38.001 262.739 43.232C262.739 48.4631 260.967 53.1854 257.753 56.5258C254.54 59.8747 250.037 61.7144 244.975 61.7144C239.912 61.7144 235.35 59.8662 232.128 56.5258C228.906 53.1854 227.134 48.4631 227.134 43.232C227.134 38.001 228.906 33.2787 232.128 29.9383ZM253.785 52.9056C255.973 50.5233 257.134 47.1829 257.134 43.232C257.134 35.1947 252.284 30.0061 244.975 30.0061C237.665 30.0061 232.747 35.1608 232.747 43.232C232.747 51.3032 237.546 56.5258 244.975 56.5258C248.561 56.5258 251.606 55.271 253.785 52.9056ZM221.206 55.5084L199.27 45.8263C198.235 45.3685 197.574 44.3511 197.574 43.2236C197.574 42.096 198.244 41.0786 199.27 40.6208L221.206 30.9387V24.7496L196.946 35.5762C193.928 36.9243 191.977 39.9255 191.977 43.232C191.977 46.5385 193.928 49.5398 196.946 50.8878L221.172 61.6975L221.198 61.7144V55.5169L221.206 55.5084ZM155.21 29.9383C158.441 26.5894 163.003 24.7496 168.057 24.7496C173.076 24.7496 177.622 26.5979 180.835 29.9383C184.049 33.2871 185.821 38.001 185.821 43.232C185.821 48.4631 184.049 53.1854 180.835 56.5258C177.622 59.8747 173.119 61.7144 168.057 61.7144C162.994 61.7144 158.432 59.8662 155.21 56.5258C151.988 53.1854 150.216 48.4631 150.216 43.232C150.216 38.001 151.988 33.2787 155.21 29.9383ZM176.867 52.9056C179.055 50.5233 180.216 47.1829 180.216 43.232C180.216 35.1947 175.366 30.0061 168.057 30.0061C160.747 30.0061 155.829 35.1608 155.829 43.232C155.829 51.3032 160.628 56.5258 168.057 56.5258C171.643 56.5258 174.688 55.271 176.867 52.9056ZM136.394 25.7076H142.007V60.6716H136.394V25.7076ZM111.621 24.7495C105.755 24.7507 101.593 27.0313 98.8888 31.7355H98.185V10.6418H92.5715V60.7054H98.0409V54.7961H98.8803C101.611 59.4422 105.783 61.7058 111.617 61.7058C121.207 61.7058 128.177 53.9314 128.177 43.2319C128.177 32.534 121.217 24.7517 111.621 24.7495ZM111.621 24.7495C111.622 24.7495 111.624 24.7495 111.625 24.7495H111.617C111.618 24.7495 111.619 24.7495 111.621 24.7495ZM122.496 43.2319C122.496 47.3099 121.326 50.7097 119.121 53.0751C116.967 55.3811 113.932 56.5935 110.336 56.5935C102.951 56.5935 98.1765 51.3455 98.1765 43.2234C98.1765 35.1014 102.951 29.8534 110.336 29.8534C117.722 29.8534 122.496 35.1014 122.496 43.2234V43.2319Z" fill="currentColor"/>
</svg>
