<svg viewBox="0 0 342 343" fill="none" xmlns="http://www.w3.org/2000/svg">
<path d="M176.576 333.348C265.138 333.348 336.932 261.554 336.932 172.991C336.932 84.4288 265.138 12.6348 176.576 12.6348C88.0133 12.6348 16.2192 84.4288 16.2192 172.991C16.2192 261.554 88.0133 333.348 176.576 333.348Z" fill="var(--b-Illustration-bg)"/>
<path d="M271.152 133.041H224.274C218.091 133.041 213.081 128.032 213.081 121.848V76.9483C213.081 70.7649 218.091 65.7552 224.274 65.7552H271.156C277.339 65.7552 282.349 70.7649 282.349 76.9483V121.848C282.345 128.027 277.335 133.041 271.152 133.041Z" fill="var(--b-Illustration-spot)"/>
<path d="M173.22 100.478H106.534C103.025 100.478 100.18 97.6334 100.18 94.1249V82.4853C100.18 78.9768 103.025 76.1318 106.534 76.1318H173.22C176.729 76.1318 179.574 78.9768 179.574 82.4853V94.1249C179.574 97.6334 176.729 100.478 173.22 100.478Z" fill="var(--b-Illustration-spot)"/>
<path d="M148.759 342.814H147.538C144.03 342.814 141.185 339.969 141.185 336.461V270.097C141.185 266.589 144.03 263.744 147.538 263.744H148.759C152.267 263.744 155.112 266.589 155.112 270.097V336.461C155.117 339.969 152.272 342.814 148.759 342.814Z" fill="var(--b-Illustration-spot)"/>
<path d="M138.897 293.827C189.361 293.827 230.27 252.918 230.27 202.454C230.27 151.99 189.361 111.08 138.897 111.08C88.4327 111.08 47.5234 151.99 47.5234 202.454C47.5234 252.918 88.4327 293.827 138.897 293.827Z" fill="var(--b-Illustration-spot)"/>
<path d="M246.635 207.4C246.635 158.026 206.464 117.855 157.09 117.855C107.716 117.855 67.5452 158.026 67.5452 207.4C67.5452 245.751 91.9216 279.823 128.197 292.181L129.158 289.362C94.0862 277.412 70.5221 244.475 70.5221 207.4C70.5221 159.667 109.358 120.832 157.09 120.832C204.822 120.832 243.658 159.667 243.658 207.4C243.658 230.186 234.88 251.696 218.937 267.971C203.019 284.22 181.743 293.445 159.029 293.946L159.093 296.923C182.589 296.409 204.597 286.866 221.059 270.055C237.551 253.218 246.635 230.968 246.635 207.4Z" fill="var(--b-Illustration-border)"/>
<path d="M95.9786 207.4C95.9786 173.701 123.391 146.289 157.09 146.289C157.732 146.289 158.378 146.297 159.016 146.318L159.11 143.341C158.442 143.32 157.762 143.312 157.09 143.312C121.75 143.312 93.0017 172.06 93.0017 207.4C93.0017 225.839 100.954 243.395 114.818 255.574L116.783 253.337C103.561 241.723 95.9786 224.98 95.9786 207.4Z" fill="var(--b-Illustration-border)"/>
<path d="M171.63 266.772L172.336 269.663C186.034 266.321 198.439 258.368 207.267 247.269C216.368 235.833 221.174 222.046 221.174 207.4C221.174 200.723 220.149 194.14 218.133 187.837L215.296 188.743C217.219 194.752 218.197 201.025 218.197 207.395C218.197 221.361 213.612 234.506 204.937 245.41C196.521 256 184.69 263.582 171.63 266.772Z" fill="var(--b-Illustration-border)"/>
<path d="M133.547 281.979C125.594 277.216 126.326 266.431 126.36 265.972C126.364 265.925 126.364 265.887 126.368 265.84L126.926 249.182L123.949 249.085L123.392 265.751C123.349 266.283 122.503 278.837 132.016 284.539C137.34 287.729 136.907 293.206 136.885 293.432C136.881 293.474 136.877 293.513 136.877 293.555L136.264 327.581L139.241 327.636L139.854 293.661C139.918 292.824 140.236 285.985 133.547 281.979Z" fill="var(--b-Illustration-border)"/>
<path d="M137.961 262.651C137.957 262.757 137.906 262.812 137.902 262.821L135.12 262.825C135.099 262.817 135.048 262.757 135.044 262.655L134.78 249.102L131.803 249.161L132.067 262.723C132.109 264.45 133.445 265.798 135.103 265.798H137.897C139.522 265.798 140.857 264.475 140.934 262.77L141.397 249.182L138.42 249.08L137.961 262.651Z" fill="var(--b-Illustration-border)"/>
<path d="M152.913 265.798C154.572 265.798 155.907 264.445 155.95 262.715L156.226 248.753L153.249 248.693L152.973 262.647C152.969 262.757 152.918 262.817 152.913 262.821L150.132 262.825C150.115 262.817 150.06 262.757 150.056 262.668L149.592 249.08L146.615 249.182L147.079 262.787C147.155 264.475 148.486 265.802 150.115 265.802H152.913V265.798Z" fill="var(--b-Illustration-border)"/>
<path d="M164.625 265.751L164.081 249.493L161.104 249.591L161.649 265.879C161.649 265.9 161.649 265.921 161.653 265.942C161.661 266.053 162.367 276.893 154.427 282.005C147.87 286.228 148.112 292.883 148.159 293.64L148.771 327.623L151.748 327.568L151.136 293.542C151.136 293.513 151.132 293.479 151.132 293.449C151.115 293.223 150.774 287.895 156.039 284.505C165.331 278.526 164.689 266.635 164.625 265.751Z" fill="var(--b-Illustration-border)"/>
<path d="M173.82 236.824C181.5 229.144 182.827 217.19 177.124 208.055C182.457 199.005 181.011 187.259 173.522 179.77C166.033 172.281 154.287 170.835 145.238 176.168C136.103 170.469 124.153 171.792 116.468 179.472C108.856 187.085 107.486 198.954 113.049 208.063C107.121 217.249 108.367 229.314 116.175 237.122C120.695 241.642 126.649 243.964 132.641 243.964C136.996 243.964 141.368 242.74 145.233 240.248C154.338 245.806 166.208 244.437 173.82 236.824ZM144.349 237.245C136.26 242.969 125.292 242.029 118.28 235.013C111.263 227.996 110.323 217.032 116.047 208.939C116.404 208.433 116.413 207.761 116.068 207.251C110.672 199.222 111.726 188.424 118.577 181.577C122.507 177.648 127.712 175.628 132.952 175.628C136.919 175.628 140.913 176.789 144.379 179.158C144.872 179.498 145.523 179.502 146.029 179.179C154.011 174.008 164.689 175.139 171.421 181.875C178.153 188.607 179.289 199.286 174.118 207.268C173.79 207.77 173.799 208.42 174.139 208.918C179.638 216.968 178.621 227.817 171.719 234.719C164.868 241.57 154.07 242.625 146.046 237.228C145.527 236.884 144.855 236.888 144.349 237.245Z" fill="var(--b-Illustration-border)"/>
<path d="M202.849 157.069C197.737 151.957 189.763 150.915 183.537 154.428C177.252 150.665 169.129 151.626 163.886 156.869C160.96 159.795 159.288 163.682 159.174 167.811L162.15 167.892C162.244 164.524 163.609 161.356 165.991 158.97C170.452 154.505 177.469 153.85 182.674 157.405C183.167 157.745 183.818 157.75 184.324 157.426C189.483 154.084 196.389 154.815 200.744 159.17C205.098 163.525 205.83 170.427 202.487 175.59C202.16 176.091 202.168 176.742 202.509 177.24C206.064 182.445 205.409 189.462 200.944 193.923C197.58 197.287 192.647 198.567 188.066 197.27L187.254 200.136C188.704 200.544 190.18 200.744 191.647 200.744C195.866 200.744 199.987 199.09 203.049 196.028C208.292 190.784 209.253 182.662 205.49 176.376C209.002 170.155 207.961 162.181 202.849 157.069Z" fill="var(--b-Illustration-border)"/>
<path d="M232.898 62.4849C233.507 62.3785 233.987 61.9107 234.106 61.3026C234.74 58.0748 237.589 55.7358 240.881 55.7358C244.198 55.7358 247.051 58.1003 247.664 61.3579C247.774 61.949 248.229 62.4125 248.816 62.5401C251.976 63.2163 254.272 66.0529 254.272 69.2934H257.249C257.249 64.9854 254.409 61.1665 250.368 59.8779C249.156 55.7061 245.308 52.7632 240.881 52.7632C236.505 52.7632 232.673 55.655 231.427 59.7716C227.183 60.9411 224.193 64.7983 224.193 69.2934H227.17C227.17 65.9168 229.577 63.0547 232.898 62.4849Z" fill="var(--b-Illustration-border)"/>
<path d="M261.328 46.5968C263.275 54.1581 270.152 59.5463 278.054 59.5463C286.027 59.5463 292.929 54.0858 294.818 46.4309C302.234 44.3981 307.525 37.5428 307.525 29.7731C307.525 22.0034 302.239 15.1481 294.818 13.1153C292.929 5.46046 286.027 0 278.054 0C270.152 0 263.275 5.38816 261.328 12.9495C253.533 14.7526 247.979 21.6717 247.979 29.7731C247.979 37.8745 253.533 44.7936 261.328 46.5968ZM262.816 15.6882C263.424 15.5819 263.905 15.1141 264.024 14.5059C265.334 7.82496 271.232 2.97689 278.049 2.97689C284.917 2.97689 290.824 7.87174 292.096 14.6123C292.207 15.2034 292.662 15.6669 293.248 15.7945C299.793 17.1937 304.544 23.0709 304.544 29.7731C304.544 36.4754 299.793 42.3526 293.248 43.7517C292.662 43.8751 292.207 44.3429 292.096 44.934C290.829 51.6788 284.922 56.5694 278.049 56.5694C271.232 56.5694 265.334 51.7213 264.024 45.0403C263.905 44.4322 263.424 43.9644 262.816 43.8581C255.944 42.6801 250.951 36.7561 250.951 29.7731C250.951 22.7902 255.944 16.8662 262.816 15.6882Z" fill="var(--b-Illustration-border)"/>
<path d="M185.936 225.712C184.4 225.827 182.997 226.537 181.993 227.706C180.99 228.876 180.501 230.364 180.616 231.904C180.845 234.927 183.38 237.241 186.365 237.241C186.51 237.241 186.659 237.237 186.803 237.224C189.976 236.981 192.362 234.204 192.123 231.032C191.885 227.859 189.108 225.474 185.936 225.712ZM186.582 234.251C185.838 234.307 185.115 234.073 184.549 233.584C183.984 233.095 183.639 232.418 183.584 231.674C183.529 230.93 183.763 230.207 184.252 229.641C184.736 229.076 185.417 228.731 186.161 228.676C186.233 228.672 186.306 228.667 186.378 228.667C187.046 228.667 187.684 228.901 188.194 229.344C188.759 229.828 189.104 230.509 189.159 231.253C189.274 232.793 188.117 234.136 186.582 234.251Z" fill="var(--b-Illustration-border)"/>
<path d="M179.956 240.328C176.784 240.571 174.398 243.344 174.636 246.52C174.751 248.056 175.461 249.459 176.631 250.463C177.685 251.368 179.004 251.857 180.382 251.857C180.531 251.857 180.679 251.853 180.828 251.84C184.001 251.598 186.386 248.825 186.148 245.648C185.906 242.472 183.129 240.09 179.956 240.328ZM183.18 245.87C183.295 247.405 182.142 248.749 180.607 248.868C179.072 248.991 177.728 247.83 177.609 246.295C177.554 245.551 177.788 244.828 178.277 244.262C178.761 243.696 179.442 243.352 180.186 243.297C180.258 243.293 180.331 243.288 180.403 243.288C181.071 243.288 181.709 243.522 182.219 243.964C182.78 244.449 183.125 245.125 183.18 245.87Z" fill="var(--b-Illustration-border)"/>
<path d="M196.21 209.794C194.675 209.909 193.272 210.619 192.268 211.789C191.264 212.958 190.775 214.446 190.89 215.986C191.005 217.521 191.715 218.925 192.885 219.928C193.939 220.834 195.258 221.323 196.636 221.323C196.784 221.323 196.933 221.319 197.082 221.306C200.255 221.064 202.64 218.287 202.402 215.114C202.16 211.942 199.383 209.56 196.21 209.794ZM196.857 218.333C196.113 218.393 195.39 218.155 194.824 217.666C194.258 217.181 193.914 216.501 193.859 215.756C193.803 215.012 194.037 214.289 194.526 213.723C195.011 213.158 195.692 212.813 196.436 212.758C196.508 212.754 196.576 212.75 196.648 212.75C198.094 212.75 199.323 213.868 199.434 215.331C199.549 216.875 198.396 218.219 196.857 218.333Z" fill="var(--b-Illustration-border)"/>
<path d="M196.555 226.856C195.551 228.025 195.062 229.514 195.177 231.053C195.407 234.077 197.941 236.39 200.927 236.39C201.071 236.39 201.22 236.386 201.365 236.373C204.537 236.131 206.923 233.358 206.685 230.181C206.442 227.009 203.665 224.627 200.493 224.861C198.958 224.98 197.559 225.686 196.555 226.856ZM200.935 227.821C201.603 227.821 202.241 228.055 202.751 228.497C203.317 228.982 203.661 229.663 203.717 230.407C203.831 231.942 202.679 233.286 201.144 233.405C199.613 233.524 198.265 232.367 198.145 230.832C198.09 230.088 198.324 229.365 198.813 228.799C199.298 228.234 199.978 227.889 200.723 227.834C200.791 227.825 200.863 227.821 200.935 227.821Z" fill="var(--b-Illustration-border)"/>
<path d="M90.3823 91.9518L91.3774 98.8369C91.858 102.175 94.7668 104.689 98.135 104.689H172.442C175.266 104.689 177.699 102.579 178.103 99.7852L179.863 87.6098C180.055 86.2744 179.659 84.9263 178.779 83.9057C177.894 82.885 176.618 82.3024 175.266 82.3024H100.023V85.2793H175.27C175.764 85.2793 176.21 85.4834 176.529 85.8534C176.852 86.2234 176.988 86.6954 176.92 87.1845L175.16 99.36C174.964 100.7 173.799 101.712 172.442 101.712H98.135C96.234 101.712 94.5925 100.291 94.3203 98.4116L93.3124 91.4329C93.3039 91.3777 93.2954 91.3224 93.2784 91.2671C93.2061 90.9907 91.4327 84.5011 83.9565 80.512C77.0203 76.8122 40.2855 59.3378 38.729 58.5936L37.449 61.2813C37.8317 61.4642 75.6807 79.4701 82.5573 83.1359C88.5324 86.3212 90.1824 91.2884 90.3823 91.9518Z" fill="var(--b-Illustration-border)"/>
<path d="M298.713 88.2902H310.778C311.335 88.2902 311.79 88.7452 311.79 89.3023V94.0824C311.79 94.6395 311.335 95.0945 310.778 95.0945H298.262C294.779 95.0945 291.943 97.2761 290.676 100.933C290.51 101.414 290.412 101.924 290.391 102.443L289.115 133.581C289.021 135.818 287.197 137.575 284.956 137.575H238.754V140.552H284.96C288.804 140.552 291.934 137.545 292.092 133.705L293.368 102.566C293.376 102.337 293.419 102.116 293.491 101.907C293.988 100.474 295.268 98.0714 298.267 98.0714H310.778C312.977 98.0714 314.767 96.281 314.767 94.0824V89.3023C314.767 87.1037 312.977 85.3133 310.778 85.3133H298.713V88.2902Z" fill="var(--b-Illustration-border)"/>
<path d="M194.671 98.0714H207.187C210.185 98.0714 211.465 100.474 211.962 101.907C212.035 102.111 212.073 102.337 212.086 102.566L212.724 118.106L215.696 117.983L215.058 102.443C215.037 101.92 214.939 101.414 214.773 100.933C214.297 99.5641 212.349 95.0945 207.187 95.0945H194.671C194.114 95.0945 193.659 94.6395 193.659 94.0824V89.3023C193.659 88.7452 194.114 88.2902 194.671 88.2902H206.736V85.3133H194.671C192.472 85.3133 190.682 87.1037 190.682 89.3023V94.0824C190.682 96.281 192.472 98.0714 194.671 98.0714Z" fill="var(--b-Illustration-border)"/>
<path d="M213.957 91.9391L213.795 80.6737C213.791 80.3079 213.927 79.9635 214.186 79.6998C214.442 79.4404 214.786 79.2958 215.152 79.2958H290.297C290.663 79.2958 291.007 79.4404 291.262 79.6998C291.517 79.9592 291.658 80.3079 291.654 80.6737L291.492 91.9391L294.469 91.9816L294.63 80.7162C294.648 79.5467 294.205 78.4452 293.384 77.6117C292.564 76.7782 291.466 76.3189 290.297 76.3189H215.152C213.982 76.3189 212.885 76.7782 212.064 77.6117C211.244 78.4452 210.801 79.5467 210.818 80.7162L210.98 91.9816L213.957 91.9391Z" fill="var(--b-Illustration-border)"/>
<path d="M126.33 73.2144L128.469 75.2855C133.658 69.9228 131.514 64.3305 129.439 58.9211C127.398 53.5882 125.467 48.553 129.652 43.0543L127.283 41.2512C122.095 48.0725 124.519 54.4005 126.662 59.9843C128.852 65.7084 130.013 69.4083 126.33 73.2144Z" fill="var(--b-Illustration-border)"/>
<path d="M143.902 73.4398L146.398 75.0601C150.889 68.1452 149.116 60.9241 147.402 53.9412C145.663 46.8562 143.86 39.533 147.912 31.6528L145.267 30.2919C140.704 39.1588 142.728 47.392 144.51 54.6514C146.22 61.6045 147.695 67.6051 143.902 73.4398Z" fill="var(--b-Illustration-border)"/>
<path d="M69.0334 102.124H40.6296V105.101H69.0334V102.124Z" fill="var(--b-Illustration-border)"/>
<path d="M335.609 133.747H314.014V136.724H335.609V133.747Z" fill="var(--b-Illustration-border)"/>
<path d="M72.9587 137.358H16.8699V140.335H72.9587V137.358Z" fill="var(--b-Illustration-border)"/>
<path d="M330.936 172.655H281.133V175.632H330.936V172.655Z" fill="var(--b-Illustration-border)"/>
<path d="M51.5592 172.596H29.696V175.573H51.5592V172.596Z" fill="var(--b-Illustration-border)"/>
<path d="M341.508 207.834H266.941V210.81H341.508V207.834Z" fill="var(--b-Illustration-border)"/>
<path d="M42.5264 207.834H0.773438V210.81H42.5264V207.834Z" fill="var(--b-Illustration-border)"/>
<path d="M325.875 243.071H281.269V246.048H325.875V243.071Z" fill="var(--b-Illustration-border)"/>
<path d="M51.5591 243.071H16.8699V246.048H51.5591V243.071Z" fill="var(--b-Illustration-border)"/>
<path d="M320.134 278.309H246.354V281.286H320.134V278.309Z" fill="var(--b-Illustration-border)"/>
<path d="M72.9587 278.309H16.8699V281.286H72.9587V278.309Z" fill="var(--b-Illustration-border)"/>
<path d="M264.237 313.547H195.836V316.524H264.237V313.547Z" fill="var(--b-Illustration-border)"/>
<path d="M88.2346 313.547H58.47V316.524H88.2346V313.547Z" fill="var(--b-Illustration-border)"/>
</svg>
