<svg viewBox="0 0 375 321" fill="none" xmlns="http://www.w3.org/2000/svg">
<path d="M186.291 320.713C274.853 320.713 346.647 248.919 346.647 160.356C346.647 71.794 274.853 -7.62939e-06 186.291 -7.62939e-06C97.7281 -7.62939e-06 25.9341 71.794 25.9341 160.356C25.9341 248.919 97.7281 320.713 186.291 320.713Z" fill="var(--b-Illustration-bg)"/>
<path d="M266.331 87.6694H159.307C154.034 87.6694 149.756 83.3954 149.756 78.1178V51.6235C149.756 46.3502 154.03 42.072 159.307 42.072H266.331C271.604 42.072 275.882 46.3459 275.882 51.6235V78.1178C275.878 83.3954 271.604 87.6694 266.331 87.6694Z" fill="var(--b-Illustration-spot)"/>
<path d="M364.534 188.407H208.872C203.599 188.407 199.321 184.133 199.321 178.856V152.361C199.321 147.088 203.595 142.81 208.872 142.81H364.534C369.807 142.81 374.085 147.084 374.085 152.361V178.856C374.085 184.129 369.811 188.407 364.534 188.407Z" fill="var(--b-Illustration-spot)"/>
<path d="M68.4058 153.871H51.6204C48.6818 153.871 46.3003 151.49 46.3003 148.551V142.308C46.3003 139.369 48.6818 136.988 51.6204 136.988H68.4058C71.3444 136.988 73.7259 139.369 73.7259 142.308V148.551C73.7259 151.49 71.3444 153.871 68.4058 153.871Z" fill="var(--b-Illustration-spot)"/>
<path d="M117.741 153.871H100.956C98.0173 153.871 95.6357 151.49 95.6357 148.551V142.308C95.6357 139.369 98.0173 136.988 100.956 136.988H117.741C120.68 136.988 123.061 139.369 123.061 142.308V148.551C123.061 151.49 120.68 153.871 117.741 153.871Z" fill="var(--b-Illustration-spot)"/>
<path d="M168.051 153.871H151.265C148.327 153.871 145.945 151.49 145.945 148.551V142.308C145.945 139.369 148.327 136.988 151.265 136.988H168.051C170.989 136.988 173.371 139.369 173.371 142.308V148.551C173.371 151.49 170.989 153.871 168.051 153.871Z" fill="var(--b-Illustration-spot)"/>
<path d="M184.483 254.486H111.588C108.649 254.486 106.268 252.104 106.268 249.166V216.849C106.268 213.911 108.649 211.529 111.588 211.529H184.487C187.426 211.529 189.808 213.911 189.808 216.849V249.166C189.803 252.104 187.422 254.486 184.483 254.486Z" fill="var(--b-Illustration-spot)"/>
<path d="M264.579 268.694H221.78C218.841 268.694 216.459 266.312 216.459 263.374V249.757C216.459 246.818 218.841 244.437 221.78 244.437H264.579C267.517 244.437 269.899 246.818 269.899 249.757V263.374C269.895 266.312 267.513 268.694 264.579 268.694Z" fill="var(--b-Illustration-spot)"/>
<path d="M118.252 87.6699H9.03835C4.36888 87.6699 0.583984 83.885 0.583984 79.2155V50.5311C0.583984 45.8616 4.36888 42.0767 9.03835 42.0767H118.256C122.926 42.0767 126.71 45.8616 126.71 50.5311V79.2155C126.706 83.885 122.921 87.6699 118.252 87.6699Z" fill="var(--b-Illustration-spot)"/>
<path d="M49.0136 201.331H138.405C142.718 201.331 151.623 198.01 151.623 187.74C151.623 175.679 142.08 173.038 138.405 173.038H31.3267V176.015H138.405C139.6 176.015 142.228 176.474 144.504 178.188C147.251 180.259 148.646 183.474 148.646 187.744C148.646 196.555 140.57 198.359 138.405 198.359H49.0136V201.331Z" fill="var(--b-Illustration-border)"/>
<path d="M81.8145 191.584C84.0472 191.414 85.7228 189.466 85.5527 187.234C85.3826 185.001 83.4348 183.325 81.2022 183.495C78.9695 183.666 77.2939 185.613 77.464 187.846C77.6341 190.079 79.5819 191.754 81.8145 191.584Z" fill="var(--b-Illustration-border)"/>
<path d="M109.143 191.584C111.375 191.414 113.051 189.466 112.881 187.234C112.711 185.001 110.763 183.325 108.53 183.495C106.298 183.666 104.622 185.613 104.792 187.846C104.962 190.079 106.906 191.754 109.143 191.584Z" fill="var(--b-Illustration-border)"/>
<path d="M136.47 191.584C138.703 191.414 140.379 189.466 140.208 187.234C140.038 185.001 138.091 183.325 135.858 183.495C133.625 183.666 131.95 185.613 132.12 187.846C132.286 190.079 134.233 191.754 136.47 191.584Z" fill="var(--b-Illustration-border)"/>
<path d="M215.018 194.833C215.018 201.378 220.342 206.698 226.883 206.698C233.423 206.698 238.748 201.374 238.748 194.833C238.748 188.292 233.423 182.968 226.883 182.968C220.342 182.968 215.018 188.288 215.018 194.833ZM235.775 194.833C235.775 199.736 231.786 203.721 226.887 203.721C221.988 203.721 217.999 199.732 217.999 194.833C217.999 189.934 221.988 185.945 226.887 185.945C231.786 185.945 235.775 189.93 235.775 194.833Z" fill="var(--b-Illustration-border)"/>
<path d="M246.05 194.833C246.05 201.378 251.374 206.698 257.915 206.698C264.455 206.698 269.78 201.374 269.78 194.833C269.78 188.292 264.455 182.968 257.915 182.968C251.374 182.968 246.05 188.288 246.05 194.833ZM266.807 194.833C266.807 199.736 262.818 203.721 257.919 203.721C253.02 203.721 249.031 199.732 249.031 194.833C249.031 189.934 253.02 185.945 257.919 185.945C262.818 185.945 266.807 189.93 266.807 194.833Z" fill="var(--b-Illustration-border)"/>
<path d="M327.306 182.964C320.761 182.964 315.441 188.288 315.441 194.829C315.441 201.369 320.765 206.694 327.306 206.694C333.847 206.694 339.171 201.369 339.171 194.829C339.171 188.288 333.851 182.964 327.306 182.964ZM327.306 203.721C322.403 203.721 318.418 199.732 318.418 194.833C318.418 189.934 322.407 185.945 327.306 185.945C332.205 185.945 336.194 189.934 336.194 194.833C336.194 199.732 332.209 203.721 327.306 203.721Z" fill="var(--b-Illustration-border)"/>
<path d="M209.787 190.091H199.738C197.225 190.091 195.179 188.046 195.179 185.532V178.52C195.179 177.699 194.511 177.031 193.691 177.031H161.982V180.008H192.202V185.532C192.202 189.687 195.583 193.068 199.738 193.068H209.787V190.091Z" fill="var(--b-Illustration-border)"/>
<path d="M302.543 136.554H199.738C195.583 136.554 192.202 139.935 192.202 144.09V168.602H195.179V144.09C195.179 141.577 197.225 139.531 199.738 139.531H302.543V136.554Z" fill="var(--b-Illustration-border)"/>
<path d="M345.839 136.554H320.502C320.259 136.554 314.476 136.601 310.55 140.53C308.245 142.84 307.076 145.961 307.08 149.81V185.532C307.08 188.046 305.035 190.091 302.521 190.091H274.947V193.068H302.521C306.676 193.068 310.057 189.687 310.057 185.532V149.805C310.044 139.701 320.076 139.531 320.502 139.527H345.839C349.254 139.527 352.035 142.308 352.035 145.723V181.169C352.035 186.085 348.034 190.087 343.118 190.087V193.064C349.675 193.064 355.012 187.727 355.012 181.169V145.723C355.012 140.671 350.896 136.554 345.839 136.554Z" fill="var(--b-Illustration-border)"/>
<path d="M40.134 159.208H71.8336C72.6543 159.208 73.322 158.54 73.322 157.72V135.359C73.322 134.538 72.6543 133.871 71.8336 133.871H40.134C39.3132 133.871 38.6455 134.538 38.6455 135.359V157.72C38.6455 158.54 39.3132 159.208 40.134 159.208ZM41.6224 136.847H70.3451V156.231H41.6224V136.847Z" fill="var(--b-Illustration-border)"/>
<path d="M90.4181 133.871C89.5974 133.871 88.9297 134.538 88.9297 135.359V157.72C88.9297 158.54 89.5974 159.208 90.4181 159.208H122.118C122.939 159.208 123.606 158.54 123.606 157.72V135.359C123.606 134.538 122.939 133.871 122.118 133.871H90.4181ZM120.629 156.231H91.9066V136.847H120.629V156.231Z" fill="var(--b-Illustration-border)"/>
<path d="M140.702 159.208H172.401C173.222 159.208 173.89 158.54 173.89 157.72V135.359C173.89 134.538 173.222 133.871 172.401 133.871H140.702C139.881 133.871 139.213 134.538 139.213 135.359V157.72C139.213 158.54 139.877 159.208 140.702 159.208ZM142.19 136.847H170.913V156.231H142.19V136.847Z" fill="var(--b-Illustration-border)"/>
<path d="M136.883 271.203C139.8 273.716 148.238 280.193 157.674 280.193C167.826 280.193 175.761 273.784 178.534 271.216C181.438 273.746 189.778 280.193 199.325 280.193V277.216C188.936 277.216 179.635 268.196 179.546 268.107C179.261 267.826 178.874 267.669 178.47 267.678C178.07 267.686 177.688 267.856 177.411 268.15C177.326 268.239 168.778 277.216 157.674 277.216C147.434 277.216 137.98 268.188 137.887 268.099C137.602 267.822 137.21 267.669 136.819 267.678C136.424 267.686 136.045 267.852 135.769 268.141C135.684 268.23 127.008 277.216 116.023 277.216C106.204 277.216 96.308 268.167 96.2101 268.077C95.6148 267.524 94.6877 267.554 94.1263 268.137C94.037 268.226 85.2382 277.216 74.3726 277.216V280.193C84.3664 280.193 92.4635 273.712 95.2448 271.182C98.2132 273.657 106.914 280.193 116.023 280.193C126.085 280.193 134.097 273.755 136.883 271.203Z" fill="var(--b-Illustration-border)"/>
<path d="M190.526 302.426C180.286 302.426 170.832 293.398 170.739 293.308C170.454 293.032 170.062 292.883 169.671 292.887C169.276 292.896 168.897 293.062 168.621 293.351C168.536 293.44 159.86 302.426 148.876 302.426C139.056 302.426 129.16 293.377 129.062 293.287C128.467 292.734 127.54 292.764 126.978 293.347C126.889 293.436 118.09 302.426 107.225 302.426V305.403C117.218 305.403 125.316 298.922 128.097 296.392C131.065 298.867 139.766 305.403 148.876 305.403C158.942 305.403 166.954 298.969 169.739 296.413C172.657 298.926 181.094 305.403 190.531 305.403C202.953 305.403 212.062 295.801 212.445 295.392L210.272 293.36C210.178 293.449 201.63 302.426 190.526 302.426Z" fill="var(--b-Illustration-border)"/>
<path d="M183.497 259.572L202.434 231.632C202.745 231.177 202.774 230.585 202.519 230.101C202.264 229.616 201.754 229.31 201.205 229.31H104.065V232.287H198.398L181.034 257.901L183.497 259.572Z" fill="var(--b-Illustration-border)"/>
<path d="M189.803 225.703V215.731C189.803 214.91 189.135 214.242 188.315 214.242H171.58C170.759 214.242 170.092 214.91 170.092 215.731V225.703H173.069V217.219H186.826V225.703H189.803Z" fill="var(--b-Illustration-border)"/>
<path d="M162.944 225.703V215.731C162.944 214.91 162.276 214.242 161.455 214.242H144.721C143.9 214.242 143.232 214.91 143.232 215.731V225.703H146.209V217.219H159.967V225.703H162.944Z" fill="var(--b-Illustration-border)"/>
<path d="M137.014 225.703V215.731C137.014 214.91 136.347 214.242 135.526 214.242H118.792C117.971 214.242 117.303 214.91 117.303 215.731V225.703H120.28V217.219H134.038V225.703H137.014Z" fill="var(--b-Illustration-border)"/>
<path d="M211.556 240.89V276.574H214.533V242.378H288.147V239.401H213.044C212.223 239.401 211.556 240.069 211.556 240.89Z" fill="var(--b-Illustration-border)"/>
<path d="M291.09 113.071H67.917V116.048H291.09V113.071Z" fill="var(--b-Illustration-border)"/>
<path d="M227.631 80.3377C227.631 76.2934 224.344 73.0061 220.299 73.0061C216.255 73.0061 212.968 76.2934 212.968 80.3377C212.968 84.382 216.255 87.6694 220.299 87.6694C224.344 87.6694 227.631 84.382 227.631 80.3377ZM215.945 80.3377C215.945 77.9349 217.897 75.983 220.299 75.983C222.702 75.983 224.654 77.9349 224.654 80.3377C224.654 82.7405 222.702 84.6925 220.299 84.6925C217.897 84.6925 215.945 82.7405 215.945 80.3377Z" fill="var(--b-Illustration-border)"/>
<path d="M246.42 80.3377C246.42 76.2934 243.132 73.0061 239.088 73.0061C235.044 73.0061 231.756 76.2934 231.756 80.3377C231.756 84.382 235.044 87.6694 239.088 87.6694C243.132 87.6694 246.42 84.382 246.42 80.3377ZM234.733 80.3377C234.733 77.9349 236.685 75.983 239.088 75.983C241.491 75.983 243.443 77.9349 243.443 80.3377C243.443 82.7405 241.491 84.6925 239.088 84.6925C236.685 84.6925 234.733 82.7405 234.733 80.3377Z" fill="var(--b-Illustration-border)"/>
<path d="M206.729 78.6366H151.295V81.6135H206.729V78.6366Z" fill="var(--b-Illustration-border)"/>
<path d="M202.149 72.6318V48.485C202.149 47.6642 201.481 46.9966 200.661 46.9966H173.643C172.822 46.9966 172.155 47.6642 172.155 48.485V72.8913H175.132V49.9735H199.172V72.6318H202.149Z" fill="var(--b-Illustration-border)"/>
<path d="M270.273 49.9735V46.9966H256.762C255.941 46.9966 255.273 47.6642 255.273 48.485V62.7698C255.273 63.5906 255.941 64.2583 256.762 64.2583H280.688V61.2814H258.25V49.9735H270.273Z" fill="var(--b-Illustration-border)"/>
<path d="M90.5924 73.0061C86.5481 73.0061 83.2607 76.2934 83.2607 80.3377C83.2607 84.382 86.5481 87.6694 90.5924 87.6694C94.6367 87.6694 97.924 84.382 97.924 80.3377C97.924 76.2934 94.6325 73.0061 90.5924 73.0061ZM90.5924 84.6925C88.1896 84.6925 86.2376 82.7405 86.2376 80.3377C86.2376 77.9349 88.1896 75.983 90.5924 75.983C92.9952 75.983 94.9472 77.9349 94.9472 80.3377C94.9472 82.7405 92.9909 84.6925 90.5924 84.6925Z" fill="var(--b-Illustration-border)"/>
<path d="M70.9786 87.6694C75.0229 87.6694 78.3103 84.382 78.3103 80.3377C78.3103 76.2934 75.0229 73.0061 70.9786 73.0061C66.9343 73.0061 63.647 76.2934 63.647 80.3377C63.647 84.382 66.9343 87.6694 70.9786 87.6694ZM70.9786 75.983C73.3814 75.983 75.3334 77.9349 75.3334 80.3377C75.3334 82.7405 73.3814 84.6925 70.9786 84.6925C68.5758 84.6925 66.6239 82.7405 66.6239 80.3377C66.6239 77.9349 68.5758 75.983 70.9786 75.983Z" fill="var(--b-Illustration-border)"/>
<path d="M57.4383 78.6366H44.5654V81.6135H57.4383V78.6366Z" fill="var(--b-Illustration-border)"/>
<path d="M129.751 49.6034L129.955 71.6792L132.932 71.6537L132.728 49.5779C132.647 42.2718 126.638 36.3308 119.332 36.3308H77.9194V39.3077H119.332C125.014 39.3034 129.688 43.9261 129.751 49.6034Z" fill="var(--b-Illustration-border)"/>
<path d="M104.396 81.6135H133.077C142.479 81.6135 145.886 73.4483 146.375 69.1318C146.379 69.0808 146.383 69.0298 146.383 68.9787L146.587 49.6034C146.651 43.9218 151.325 39.2992 157.006 39.2992H259.284C262.456 39.2992 267.253 39.2992 271.264 45.0998C271.285 45.1296 271.306 45.1594 271.332 45.1891L287.36 65.0067C287.381 65.0322 289.601 67.7114 289.601 71.1646C289.601 75.2855 286.582 78.6366 282.865 78.6366H254.325V81.6135H282.865C288.219 81.6135 292.578 76.927 292.578 71.1646C292.578 66.593 289.75 63.2206 289.652 63.11L273.679 43.3605C268.789 36.3223 262.605 36.3223 259.284 36.3223H157.006C149.7 36.3223 143.691 42.2675 143.61 49.5694L143.406 68.8639C143.283 69.8123 141.892 78.6324 133.072 78.6324H104.392V81.6135H104.396Z" fill="var(--b-Illustration-border)"/>
<path d="M99.0424 62.7698V48.485C99.0424 47.6642 98.3748 46.9966 97.554 46.9966H76.2735V49.9735H96.0656V61.2814H70.5366V64.2583H97.554C98.379 64.2583 99.0424 63.5906 99.0424 62.7698Z" fill="var(--b-Illustration-border)"/>
<path d="M138.069 94.7118H135.092V104.493H138.069V94.7118Z" fill="var(--b-Illustration-border)"/>
<path d="M158.036 94.7118H155.059V104.493H158.036V94.7118Z" fill="var(--b-Illustration-border)"/>
<path d="M178.007 94.7118H175.03V104.493H178.007V94.7118Z" fill="var(--b-Illustration-border)"/>
<path d="M78.1576 94.7118H75.1807V104.493H78.1576V94.7118Z" fill="var(--b-Illustration-border)"/>
<path d="M58.1868 94.7118H55.21V104.493H58.1868V94.7118Z" fill="var(--b-Illustration-border)"/>
<path d="M98.1283 94.7118H95.1514V104.493H98.1283V94.7118Z" fill="var(--b-Illustration-border)"/>
<path d="M118.098 94.7118H115.122V104.493H118.098V94.7118Z" fill="var(--b-Illustration-border)"/>
<path d="M197.977 94.7118H195V104.493H197.977V94.7118Z" fill="var(--b-Illustration-border)"/>
<path d="M217.948 94.7118H214.971V104.493H217.948V94.7118Z" fill="var(--b-Illustration-border)"/>
<path d="M237.918 94.7118H234.941V104.493H237.918V94.7118Z" fill="var(--b-Illustration-border)"/>
<path d="M257.889 94.7118H254.912V104.493H257.889V94.7118Z" fill="var(--b-Illustration-border)"/>
</svg>
