<svg viewBox="0 0 343 334" fill="none" xmlns="http://www.w3.org/2000/svg">
<path d="M182.243 330.252C270.806 330.252 342.6 258.458 342.6 169.895C342.6 81.3328 270.806 9.53882 182.243 9.53882C93.6807 9.53882 21.8867 81.3328 21.8867 169.895C21.8867 258.458 93.6807 330.252 182.243 330.252Z" fill="var(--b-Illustration-bg)"/>
<path d="M90.2192 112.96H81.2673C73.7613 112.96 67.6799 106.875 67.6799 99.3728V90.4209C67.6799 82.9148 73.7655 76.8335 81.2673 76.8335H90.2192C97.7252 76.8335 103.807 82.9191 103.807 90.4209V99.3728C103.807 106.879 97.7252 112.96 90.2192 112.96Z" fill="var(--b-Illustration-spot)"/>
<path d="M45.5364 254.09H32.4848C24.9788 254.09 18.8975 248.004 18.8975 240.503V202.849C18.8975 195.343 24.9831 189.262 32.4848 189.262H45.5364C53.0424 189.262 59.1237 195.348 59.1237 202.849V240.503C59.1237 248.004 53.0381 254.09 45.5364 254.09Z" fill="var(--b-Illustration-spot)"/>
<path d="M31.5236 150.477H27.4538C22.9629 150.477 19.3184 146.837 19.3184 142.342V122.001C19.3184 117.511 22.9587 113.866 27.4538 113.866H31.5236C36.0145 113.866 39.659 117.506 39.659 122.001V142.342C39.659 146.837 36.0145 150.477 31.5236 150.477Z" fill="var(--b-Illustration-spot)"/>
<path d="M259.03 124.753H172.518C167.742 124.753 163.872 120.883 163.872 116.107V91.0928C163.872 86.317 167.742 82.447 172.518 82.447H259.03C263.806 82.447 267.676 86.317 267.676 91.0928V116.107C267.676 120.883 263.806 124.753 259.03 124.753Z" fill="var(--b-Illustration-spot)"/>
<path d="M184.914 35.2591H128.625C123.85 35.2591 119.98 31.3891 119.98 26.6134V10.8996C119.98 6.12386 123.85 2.25391 128.625 2.25391H184.91C189.686 2.25391 193.556 6.12386 193.556 10.8996V26.6134C193.56 31.3849 189.686 35.2591 184.914 35.2591Z" fill="var(--b-Illustration-spot)"/>
<path d="M254.339 62.638H232.374C228.981 62.638 226.233 59.8865 226.233 56.4971V51.2365C226.233 47.8428 228.985 45.0956 232.374 45.0956H254.339C257.733 45.0956 260.48 47.8471 260.48 51.2365V56.4971C260.48 59.8907 257.733 62.638 254.339 62.638Z" fill="var(--b-Illustration-spot)"/>
<path d="M272.328 177.418H267.025C261.492 177.418 257.006 172.932 257.006 167.399V155.959C257.006 150.426 261.492 145.94 267.025 145.94H272.328C277.861 145.94 282.347 150.426 282.347 155.959V167.399C282.343 172.932 277.857 177.418 272.328 177.418Z" fill="var(--b-Illustration-spot)"/>
<path d="M303.586 203.241H291.644C287.71 203.241 284.525 200.051 284.525 196.122C284.525 192.188 287.715 189.003 291.644 189.003H303.586C307.519 189.003 310.705 192.192 310.705 196.122C310.709 200.051 307.519 203.241 303.586 203.241Z" fill="var(--b-Illustration-spot)"/>
<path d="M314.974 326.633H304.751C301.357 326.633 298.61 323.881 298.61 320.492V224.934C298.61 221.54 301.361 218.793 304.751 218.793H314.974C318.368 218.793 321.115 221.544 321.115 224.934V320.487C321.115 323.881 318.368 326.633 314.974 326.633Z" fill="var(--b-Illustration-spot)"/>
<path d="M279.239 326.633H269.015C265.622 326.633 262.875 323.881 262.875 320.492V224.934C262.875 221.54 265.626 218.793 269.015 218.793H279.239C282.633 218.793 285.38 221.544 285.38 224.934V320.487C285.38 323.881 282.633 326.633 279.239 326.633Z" fill="var(--b-Illustration-spot)"/>
<path d="M325.559 333.365H212.204C208.81 333.365 206.063 330.613 206.063 327.224V260.095C206.063 256.701 208.814 253.954 212.204 253.954H325.559C328.953 253.954 331.7 256.706 331.7 260.095V327.224C331.7 330.617 328.949 333.365 325.559 333.365Z" fill="var(--b-Illustration-spot)"/>
<path d="M187.832 284.476C187.789 288.801 191.264 292.339 195.589 292.373L214.483 292.534C210.311 293.155 215.062 293.181 219.82 292.607C220.314 292.581 220.794 292.517 221.262 292.415C230.839 291.012 240.391 287.163 248.845 280.789C272.163 263.204 278.699 232.763 264.393 211.24C263.929 210.543 263.576 209.781 263.372 208.969C263.219 208.352 262.994 207.744 262.692 207.153L238.094 158.979C236.151 155.172 231.511 153.629 227.675 155.513L187.955 175.037C184.034 176.963 182.452 181.726 184.438 185.617L203.073 222.114C205.736 227.328 201.938 233.511 196.086 233.499C191.787 233.49 188.282 236.952 188.244 241.251L187.832 284.476Z" fill="var(--b-Illustration-spot)"/>
<path d="M159.543 244.938L129.693 244.675C123.114 244.615 118.908 237.636 121.936 231.793L127.163 221.693C129.497 217.181 127.55 211.631 122.901 209.569L84.2062 192.409C79.9407 190.517 74.9396 192.273 72.7919 196.419L60.4081 220.341C60.3486 220.46 60.289 220.579 60.238 220.698C60.0041 221.217 59.7404 221.719 59.4257 222.195C45.2047 243.714 51.7538 274.091 75.0416 291.65C81.4292 296.468 88.4419 299.836 95.6162 301.805C96.2371 301.975 96.8409 302.214 97.4151 302.503C98.6228 303.111 99.9879 303.464 101.438 303.472L103.832 303.489C104.122 303.489 104.415 303.511 104.704 303.54C108.578 303.966 112.444 303.991 116.233 303.626C116.535 303.596 116.837 303.583 117.139 303.583L159.581 303.966C164.501 304.008 168.503 300.019 168.482 295.103L168.286 253.72C168.265 248.893 164.37 244.981 159.543 244.938Z" fill="var(--b-Illustration-spot)"/>
<path d="M157.446 164.694C159.173 168.075 163.294 169.449 166.704 167.773L207.994 147.479C211.477 145.765 212.884 141.534 211.12 138.081L205.914 127.883C205.736 127.53 205.591 127.164 205.472 126.786C198.974 105.935 177.43 90.6207 151.845 90.6207C131.841 90.6207 114.303 99.9852 104.496 114.04C104.309 114.308 104.092 114.555 103.862 114.793C103.288 115.388 102.791 116.069 102.395 116.834L78.4779 163.036C76.6365 166.591 78.1717 170.963 81.8333 172.587L123.956 191.265C127.316 192.753 131.258 191.371 132.946 188.105L145.084 164.66C147.682 159.633 154.873 159.655 157.446 164.694Z" fill="var(--b-Illustration-spot)"/>
<path d="M54.2925 257.05C54.4116 257.08 54.5307 257.093 54.654 257.093C54.9942 257.093 55.3302 256.978 55.5981 256.757L73.8252 241.817C74.0548 241.626 74.2249 241.37 74.31 241.085L82.0031 214.91C82.2157 214.183 81.85 213.409 81.1483 213.115L63.2019 205.635C56.4359 181.854 39.0636 174.701 38.3237 174.403C37.9494 174.254 37.5326 174.263 37.1669 174.424L15.6313 183.997C15.3591 184.121 15.1294 184.32 14.9721 184.576L0.61499 207.774C0.206731 208.437 0.376841 209.305 1.00624 209.764L20.5814 223.951C26.1822 238.023 34.947 246.244 41.3431 250.671C48.377 255.54 54.0544 256.991 54.2925 257.05ZM23.1883 222.463C23.0862 222.195 22.9076 221.965 22.6737 221.799L3.8683 208.17L17.2558 186.536L37.7665 177.418C40.7349 178.83 54.9262 186.545 60.5227 207.123C60.6418 207.566 60.9608 207.931 61.386 208.106L78.7668 215.352L71.5797 239.805L54.318 253.954C50.5331 252.738 32.2891 245.772 23.1883 222.463Z" fill="var(--b-Illustration-border)"/>
<path d="M65.528 235.37L54.7644 231.343L54.1138 225.61C54.067 225.21 53.8629 224.844 53.5439 224.598C53.225 224.351 52.821 224.245 52.4212 224.304L45.1959 225.355L42.6995 204.164C42.606 203.368 41.9085 202.794 41.1048 202.854L33.5647 203.449L34.309 198.712C34.394 198.159 34.1644 197.602 33.7093 197.274L23.656 190.006L21.9124 192.418L31.2258 199.154L30.3327 204.853C30.2604 205.303 30.4007 205.758 30.7112 206.094C31.0216 206.43 31.4682 206.6 31.9189 206.566L39.9098 205.937L42.4146 227.226C42.4614 227.626 42.6655 227.987 42.9845 228.234C43.3034 228.48 43.7074 228.583 44.1029 228.527L51.3198 227.477L51.8981 232.589C51.9619 233.146 52.3319 233.618 52.855 233.813L64.4733 238.16L65.528 235.37Z" fill="var(--b-Illustration-border)"/>
<path d="M24.7278 137.549C24.7278 143.044 22.6568 148.317 18.8931 152.391C18.4126 152.91 18.3658 153.701 18.7825 154.275C22.3761 159.238 27.0073 160.556 32.5613 158.2C34.9683 159.119 37.0947 159.502 38.9659 159.502C43.6566 159.502 46.7483 157.095 48.6833 154.645C49.1425 154.062 49.1043 153.229 48.5897 152.693C44.6432 148.572 42.4658 143.197 42.4658 137.554C42.4658 131.128 45.3194 125.025 50.295 120.811C50.614 120.543 50.8054 120.152 50.8224 119.735C50.8394 119.318 50.682 118.914 50.3886 118.621C46.2932 114.529 40.1694 113.156 33.7861 114.814C33.7861 113.109 34.1008 110.175 35.9719 107.742C37.7496 105.437 40.5904 104.059 44.4178 103.651L44.1031 100.691C39.4379 101.189 35.9082 102.949 33.616 105.926C31.379 108.831 30.873 112.207 30.8177 114.393C25.3742 113.007 20.1689 114.44 16.5244 118.467C16.2522 118.769 16.1119 119.169 16.1416 119.573C16.1714 119.977 16.367 120.356 16.6775 120.615C21.7892 124.834 24.7278 131.009 24.7278 137.549ZM32.2593 118.008C32.5911 118.144 32.9568 118.161 33.297 118.051C38.4895 116.345 43.5247 116.97 47.0928 119.692C42.2362 124.4 39.4847 130.817 39.4847 137.549C39.4847 143.512 41.6153 149.21 45.5193 153.739C42.4531 156.895 38.3747 157.371 33.0886 155.206C32.9058 155.134 32.7144 155.096 32.523 155.096C32.3104 155.096 32.0935 155.143 31.8936 155.236C27.811 157.137 24.613 156.576 21.9168 153.454C25.6549 148.976 27.7005 143.375 27.7005 137.554C27.7005 130.668 24.8426 124.145 19.8032 119.416C23.1075 116.622 27.6537 116.082 32.2593 118.008Z" fill="var(--b-Illustration-border)"/>
<path d="M191.646 124.753C191.646 119.586 187.445 115.384 182.273 115.384C177.106 115.384 172.905 119.586 172.905 124.753C172.905 129.92 177.106 134.122 182.273 134.122C187.44 134.126 191.646 129.92 191.646 124.753ZM182.273 131.149C178.748 131.149 175.881 128.283 175.881 124.757C175.881 121.232 178.748 118.365 182.273 118.365C185.799 118.365 188.669 121.232 188.669 124.757C188.669 128.283 185.799 131.149 182.273 131.149Z" fill="var(--b-Illustration-border)"/>
<path d="M195.503 124.753C195.503 129.92 199.705 134.122 204.876 134.122C210.043 134.122 214.245 129.92 214.245 124.753C214.245 119.586 210.043 115.384 204.876 115.384C199.709 115.384 195.503 119.586 195.503 124.753ZM211.268 124.753C211.268 128.278 208.402 131.145 204.876 131.145C201.351 131.145 198.48 128.278 198.48 124.753C198.48 121.227 201.351 118.361 204.876 118.361C208.402 118.361 211.268 121.227 211.268 124.753Z" fill="var(--b-Illustration-border)"/>
<path d="M262.101 124.753C262.101 119.586 257.899 115.384 252.728 115.384C247.561 115.384 243.359 119.586 243.359 124.753C243.359 129.92 247.561 134.122 252.728 134.122C257.895 134.126 262.101 129.92 262.101 124.753ZM252.728 131.149C249.202 131.149 246.336 128.283 246.336 124.757C246.336 121.232 249.202 118.365 252.728 118.365C256.253 118.365 259.124 121.232 259.124 124.757C259.124 128.283 256.253 131.149 252.728 131.149Z" fill="var(--b-Illustration-border)"/>
<path d="M152.908 114.338C152.912 114.355 152.917 114.372 152.917 114.389C154.375 121.223 159.865 123.771 162.987 123.771H168.324V120.794H162.987C161.145 120.794 156.974 119.08 155.834 113.794L150.965 86.1172L148.034 86.6318L152.908 114.338Z" fill="var(--b-Illustration-border)"/>
<path d="M230.656 78.1179L202.465 71.2583C200.003 70.6586 197.494 70.5863 195.014 71.0371L164.059 76.455C159.194 77.3609 155.775 82.1792 156.587 86.9847L161.018 112.62L163.953 112.114L159.521 86.4829C158.973 83.2509 161.299 79.9976 164.586 79.3852L195.538 73.9715C197.617 73.593 199.709 73.6568 201.763 74.1543L229.955 81.0139L230.656 78.1179Z" fill="var(--b-Illustration-border)"/>
<path d="M242.011 83.2594C240.191 85.0838 239.268 87.5418 239.272 90.5612V117.693C239.272 119.403 237.881 120.798 236.168 120.798H217.809V123.775H236.168C239.519 123.775 242.249 121.049 242.249 117.693V90.5612C242.24 83.3742 249.049 83.119 249.823 83.1148H266.808C269.207 83.1148 271.154 85.0668 271.154 87.461V114.381C271.154 117.919 268.275 120.794 264.741 120.794V123.771C269.921 123.771 274.131 119.556 274.131 114.381V87.461C274.131 83.421 270.844 80.1379 266.808 80.1379H249.823C249.627 80.1379 245.094 80.1719 242.011 83.2594Z" fill="var(--b-Illustration-border)"/>
<path d="M84.7464 91.5182L85.2737 96.1791C85.3375 96.7362 85.7075 97.2083 86.2306 97.4039L97.0622 101.452L98.1041 98.6627L88.1273 94.9331L87.5277 89.6512C87.4809 89.2515 87.2767 88.8857 86.9578 88.6391C86.6388 88.3924 86.2348 88.2861 85.8351 88.3456L77.6912 89.5279L78.1207 92.475L84.7464 91.5182Z" fill="var(--b-Illustration-border)"/>
<path d="M95.2162 89.3875C95.3396 90.1062 95.9647 90.6208 96.6834 90.6208C96.7217 90.6208 96.7642 90.6208 96.8025 90.6166L105.58 89.9234L105.346 86.955L97.9167 87.5418L96.76 80.9162C96.7132 80.6482 96.5941 80.3973 96.4155 80.1932L90.113 72.9849L87.8718 74.9454L93.8979 81.8432L95.2162 89.3875Z" fill="var(--b-Illustration-border)"/>
<path d="M66.0557 100.232C66.179 100.559 66.4086 100.836 66.7148 101.01L75.1096 105.799L79.9577 113.96C80.1321 114.257 80.4085 114.483 80.7317 114.597L90.1642 118.008C90.3258 118.068 90.5002 118.097 90.6703 118.097C90.8404 118.097 91.0147 118.068 91.1806 118.008L100.656 114.563C100.983 114.444 101.255 114.215 101.43 113.917L106.269 105.663L114.281 100.763C114.57 100.585 114.792 100.313 114.906 99.9937L118.24 90.6506C118.355 90.3274 118.355 89.9744 118.24 89.6512L114.906 80.308C114.792 79.9891 114.57 79.7169 114.281 79.5383L106.269 74.6392L101.43 66.3847C101.255 66.087 100.979 65.8574 100.656 65.7383L91.1806 62.2936C90.8531 62.1745 90.4959 62.1745 90.1684 62.2936L80.736 65.7042C80.4128 65.8233 80.1363 66.0487 79.962 66.3422L75.1139 74.5031L66.7191 79.2916C66.4129 79.466 66.179 79.7424 66.0599 80.0699L62.5429 89.6299C62.4196 89.9616 62.4196 90.3274 62.5429 90.6591L66.0557 100.232ZM68.6626 81.6178L76.9256 76.9016C77.151 76.774 77.3338 76.5912 77.4656 76.37L82.2414 68.3282L90.666 65.2832L99.1289 68.3579L103.888 76.4721C104.011 76.6847 104.185 76.8633 104.394 76.9909L112.278 81.8092L115.255 90.1573L112.278 98.5053L104.394 103.324C104.185 103.451 104.011 103.63 103.888 103.842L99.1289 111.957L90.666 115.031L82.2414 111.986L77.4656 103.944C77.3338 103.723 77.1467 103.54 76.9256 103.413L68.6626 98.6967L65.5198 90.1573L68.6626 81.6178Z" fill="var(--b-Illustration-border)"/>
<path d="M297.126 277.225H218.247C217.426 277.225 216.758 277.893 216.758 278.713V320.356H219.735V280.202H295.633V319.692H298.61V278.713C298.614 277.888 297.947 277.225 297.126 277.225Z" fill="var(--b-Illustration-border)"/>
<path d="M269.517 294.754H252.902C252.081 294.754 251.414 295.422 251.414 296.243V321.015H254.39V297.731H268.029V319.964H271.006V296.243C271.006 295.422 270.338 294.754 269.517 294.754Z" fill="var(--b-Illustration-border)"/>
<path d="M315.536 215.986C315.527 215.169 314.864 214.515 314.047 214.515H294.051C293.243 214.515 292.584 215.161 292.562 215.969L291.346 266.512L294.323 266.585L295.505 217.491H312.58L313.779 319.705L316.756 319.671L315.536 215.986Z" fill="var(--b-Illustration-border)"/>
<path d="M193.096 286.083V319.692H196.073V287.572H210.366V284.595H194.585C193.764 284.595 193.096 285.258 193.096 286.083Z" fill="var(--b-Illustration-border)"/>
<path d="M281.212 214.515H261.212C260.404 214.515 259.745 215.161 259.723 215.969L258.507 266.512L261.484 266.585L262.666 217.491H279.741L280.332 267.295L283.309 267.261L282.701 215.986C282.692 215.169 282.029 214.515 281.212 214.515Z" fill="var(--b-Illustration-border)"/>
<path d="M286.617 190.602C282.539 191.899 279.668 195.752 279.668 200.102H282.645C282.645 196.823 284.967 193.949 288.17 193.268C288.756 193.145 289.212 192.677 289.322 192.086C289.943 188.79 292.831 186.396 296.19 186.396C299.524 186.396 302.408 188.765 303.05 192.035C303.169 192.643 303.649 193.111 304.258 193.217C307.617 193.791 310.058 196.692 310.058 200.107H313.035C313.035 195.573 310.016 191.678 305.729 190.5C304.474 186.345 300.609 183.423 296.19 183.423C291.721 183.419 287.838 186.387 286.617 190.602Z" fill="var(--b-Illustration-border)"/>
<path d="M263.339 139.42C256.207 139.42 250.074 144.502 248.756 151.502L251.682 152.051C252.732 146.454 257.636 142.393 263.339 142.393C268.995 142.393 273.89 146.416 274.978 151.962C275.097 152.57 275.578 153.038 276.186 153.144C281.889 154.122 286.031 159.038 286.031 164.835C286.031 170.631 281.889 175.547 276.186 176.521C275.578 176.627 275.097 177.095 274.978 177.703C274.285 181.237 272.052 184.227 268.854 185.911L270.241 188.543C273.945 186.596 276.611 183.245 277.674 179.251C284.3 177.656 289.008 171.745 289.008 164.83C289.008 157.92 284.296 152.004 277.67 150.409C275.952 143.988 270.075 139.42 263.339 139.42Z" fill="var(--b-Illustration-border)"/>
<path d="M156.549 149.512C158.382 149.427 160.215 150.316 161.856 152.102L180.644 179.468L183.098 177.784L164.255 150.333C164.216 150.278 164.178 150.227 164.131 150.176C161.856 147.658 159.19 146.399 156.4 146.54C153.512 146.684 150.727 148.385 148.558 151.328C148.494 151.413 148.439 151.507 148.396 151.604L142.6 164.622C142.438 164.988 142.43 165.4 142.574 165.77C142.719 166.14 143.008 166.438 143.378 166.595L152.738 170.584C152.768 170.597 152.794 170.606 152.823 170.618C156.294 171.852 158.224 174.088 158.131 176.759C158.037 179.285 156.196 181.612 153.746 182.296L112.206 192.328C112.18 192.337 112.155 192.341 112.125 192.35C107.188 193.834 100.158 193.949 94.7017 186.085L70.1977 149.814C68.5392 147.424 68.3265 144.936 69.6406 143.316C71.112 141.504 74.0549 141.236 77.3252 142.614C77.3422 142.623 77.3593 142.627 77.372 142.636L84.6994 145.43C85.3841 145.689 86.1581 145.413 86.5238 144.779L94.1106 131.502L91.525 130.026L84.5718 142.198L78.4564 139.867C73.0428 137.596 69.1601 139.191 67.3271 141.449C65.1455 144.141 65.3071 147.998 67.7396 151.507L92.2479 187.778C96.0626 193.277 101.187 196.13 107.039 196.13C108.936 196.13 110.913 195.833 112.942 195.224L154.469 185.197C154.486 185.192 154.499 185.188 154.516 185.184C158.195 184.172 160.967 180.676 161.103 176.878C161.248 172.893 158.543 169.521 153.865 167.841L145.938 164.465L151.054 152.982C152.662 150.835 154.609 149.61 156.549 149.512Z" fill="var(--b-Illustration-border)"/>
<path d="M123.765 82.6555L125.53 85.054C134.018 78.8068 144.114 75.4982 154.724 75.4897L154.72 72.5128C143.472 72.5256 132.768 76.0298 123.765 82.6555Z" fill="var(--b-Illustration-border)"/>
<path d="M221.809 129.922L219.355 131.606L230.676 148.098L233.13 146.413L221.809 129.922Z" fill="var(--b-Illustration-border)"/>
<path d="M173.861 252.117L145.572 220.103C145.56 220.09 145.551 220.077 145.538 220.069C142.919 217.292 138.539 216.475 135.115 218.129C131.526 219.864 129.808 223.837 130.514 228.757L131.237 237.343L118.695 238.194C116.054 237.768 114.06 236.62 113.069 234.949C112.129 233.371 112.065 231.334 112.873 229.046L128.277 199.639L125.64 198.257L110.19 227.753C110.16 227.813 110.135 227.872 110.109 227.936C108.948 231.126 109.084 234.077 110.509 236.471C111.989 238.955 114.791 240.622 118.41 241.162C118.517 241.179 118.623 241.183 118.729 241.175L132.946 240.209C133.346 240.184 133.716 239.997 133.975 239.695C134.235 239.393 134.362 238.997 134.328 238.602L133.478 228.463C133.474 228.434 133.474 228.404 133.469 228.374C132.929 224.679 133.975 221.991 136.412 220.813C138.692 219.711 141.605 220.251 143.357 222.097L171.654 254.12C171.671 254.141 171.693 254.162 171.71 254.179C175.329 257.85 178.722 264.012 174.321 272.509L153.725 311.136C152.39 313.717 150.289 315.07 148.239 314.666C145.951 314.215 144.335 311.735 144.024 308.201C144.024 308.184 144.02 308.167 144.02 308.15L143.059 300.368C142.97 299.641 142.362 299.088 141.63 299.062L94.7655 297.544C94.7357 297.544 94.7102 297.544 94.6805 297.544C82.101 297.855 70.5464 294.07 61.25 286.615C52.5873 279.67 46.4464 269.863 43.9543 258.994L41.054 259.657C43.6949 271.173 50.2058 281.571 59.3873 288.933C69.2323 296.826 81.4588 300.832 94.7102 300.517L140.261 301.993L141.06 308.486C141.583 314.334 144.811 317.022 147.665 317.583C148.107 317.672 148.554 317.715 148.992 317.715C151.913 317.715 154.656 315.814 156.362 312.518L176.957 273.891C181.036 266.023 179.934 258.292 173.861 252.117Z" fill="var(--b-Illustration-border)"/>
<path d="M71.9592 175.076L62.9446 191.749L65.5631 193.164L74.5777 176.492L71.9592 175.076Z" fill="var(--b-Illustration-border)"/>
<path d="M200.117 168.849C200.126 168.824 200.134 168.798 200.143 168.773C201.665 163.848 205.489 157.945 215.057 157.805L227.611 157.771L258.834 157.69C261.743 157.656 263.925 158.86 264.537 160.854C265.222 163.087 263.801 165.681 260.837 167.624C260.825 167.633 260.808 167.646 260.795 167.654L254.39 172.179C253.791 172.604 253.591 173.4 253.914 174.054L263.291 192.979L270.716 207.957L273.383 206.634L265.958 191.656L257.146 173.876L262.492 170.099C267.395 166.872 268.237 162.759 267.387 159.982C266.37 156.669 263.066 154.645 258.809 154.713L227.607 154.794L215.036 154.828C206.173 154.96 199.883 159.587 197.315 167.854L182.481 207.919C182.477 207.936 182.469 207.948 182.464 207.965C181.252 211.585 182.609 215.833 185.684 218.066C188.907 220.409 193.219 220.043 197.221 217.096L204.447 212.401L211.123 223.05C211.995 225.576 211.927 227.877 210.928 229.544C209.984 231.117 208.214 232.138 205.82 232.504L172.628 232.835L172.658 235.812L205.952 235.48C206.02 235.48 206.084 235.476 206.148 235.463C209.507 234.979 212.042 233.46 213.479 231.075C214.968 228.595 215.112 225.338 213.875 221.893C213.837 221.791 213.79 221.697 213.735 221.604L206.165 209.535C205.952 209.199 205.616 208.956 205.225 208.871C204.838 208.786 204.43 208.859 204.094 209.075L195.563 214.621C195.537 214.638 195.512 214.655 195.486 214.672C192.484 216.896 189.626 217.245 187.432 215.654C185.386 214.17 184.48 211.342 185.28 208.927L200.117 168.849Z" fill="var(--b-Illustration-border)"/>
<path d="M188.299 291.651L174.813 291.768L174.839 294.745L188.325 294.628L188.299 291.651Z" fill="var(--b-Illustration-border)"/>
<path d="M219.701 58.9126H263.823C264.431 58.9126 264.98 58.5427 265.205 57.9771C265.732 56.6672 265.996 55.2808 265.996 53.8647C265.996 47.7663 261.033 42.8077 254.939 42.8077C253.519 42.8077 252.107 43.0841 250.797 43.6114C248.343 40.7026 244.728 39.0015 240.888 39.0015C235.147 39.0015 230.188 42.7269 228.521 48.0725C227.913 47.9364 227.292 47.8684 226.658 47.8684C221.955 47.8684 218.132 51.6958 218.132 56.3951C218.132 56.7821 218.162 57.1733 218.23 57.6368C218.336 58.3726 218.965 58.9126 219.701 58.9126ZM226.658 50.8453C227.462 50.8453 228.236 51.0154 228.968 51.3471C229.389 51.5385 229.874 51.5257 230.282 51.3131C230.69 51.0962 230.975 50.7049 231.056 50.2499C231.885 45.4571 236.019 41.9784 240.892 41.9784C244.18 41.9784 247.254 43.5987 249.125 46.3119C249.559 46.9413 250.397 47.1412 251.069 46.7712C252.251 46.1248 253.591 45.7803 254.947 45.7803C259.404 45.7803 263.028 49.4036 263.028 53.8604C263.028 54.5621 262.938 55.2553 262.76 55.9273H221.134C221.364 53.0907 223.754 50.8453 226.658 50.8453Z" fill="var(--b-Illustration-border)"/>
<path d="M108.667 39.6565H204.225C204.834 39.6565 205.382 39.2865 205.608 38.7209C206.662 36.0842 207.198 33.3072 207.198 30.4621C207.198 18.2144 197.234 8.24604 184.982 8.24604C181.699 8.24604 178.441 8.97751 175.49 10.3724C170.514 3.85726 162.783 6.10352e-05 154.55 6.10352e-05C142.315 6.10352e-05 131.832 8.32684 128.974 20.0473C127.29 19.4902 125.534 19.2052 123.73 19.2052C114.502 19.2052 106.996 26.7112 106.996 35.9396C106.996 36.6923 107.06 37.4706 107.192 38.3764C107.302 39.1164 107.932 39.6565 108.667 39.6565ZM123.735 22.1864C125.725 22.1864 127.651 22.6074 129.455 23.4324C129.876 23.6238 130.36 23.611 130.769 23.3941C131.177 23.1773 131.462 22.786 131.543 22.331C133.482 11.1166 143.161 2.97695 154.554 2.97695C162.243 2.97695 169.443 6.7661 173.81 13.1154C174.244 13.7448 175.082 13.9447 175.754 13.5789C178.569 12.0352 181.758 11.2229 184.986 11.2229C195.593 11.2229 204.225 19.8516 204.225 30.4621C204.225 32.5885 203.877 34.6765 203.192 36.6796H110.003C109.986 36.4244 109.977 36.182 109.977 35.9438C109.977 28.3613 116.148 22.1864 123.735 22.1864Z" fill="var(--b-Illustration-border)"/>
</svg>
