<svg viewBox="0 0 322 321" fill="none" xmlns="http://www.w3.org/2000/svg">
<path d="M160.951 320.713C249.514 320.713 321.308 248.919 321.308 160.356C321.308 71.794 249.514 0 160.951 0C72.3887 0 0.594727 71.794 0.594727 160.356C0.594727 248.919 72.3887 320.713 160.951 320.713Z" fill="var(--b-Illustration-bg)"/>
<path d="M204.401 227.009H149.873C137.527 227.009 127.521 217.002 127.521 204.657V150.129C127.521 137.783 137.527 127.776 149.873 127.776H204.401C216.747 127.776 226.753 137.783 226.753 150.129V204.657C226.753 217.002 216.747 227.009 204.401 227.009Z" fill="var(--b-Illustration-spot)"/>
<path d="M168.16 106.186H160.547C156.478 106.186 153.177 102.886 153.177 98.8157V87.3547C153.177 83.2848 156.478 79.9847 160.547 79.9847H168.16C172.23 79.9847 175.53 83.2848 175.53 87.3547V98.8157C175.53 102.886 172.23 106.186 168.16 106.186Z" fill="var(--b-Illustration-spot)"/>
<path d="M285.356 237.641H267.796C263.726 237.641 260.426 234.341 260.426 230.271V202.331C260.426 198.261 263.726 194.961 267.796 194.961H285.356C289.425 194.961 292.725 198.261 292.725 202.331V230.271C292.725 234.341 289.425 237.641 285.356 237.641Z" fill="var(--b-Illustration-spot)"/>
<path d="M52.4057 258.407H41.8207C35.0632 258.407 29.5857 252.929 29.5857 246.172V229.493C29.5857 222.735 35.0632 217.258 41.8207 217.258H52.4057C59.1632 217.258 64.6407 222.735 64.6407 229.493V246.172C64.6364 252.929 59.1589 258.407 52.4057 258.407Z" fill="var(--b-Illustration-spot)"/>
<path d="M91.1393 258.407H46.4988C41.723 258.407 37.853 254.537 37.853 249.761V242.587C37.853 237.811 41.723 233.941 46.4988 233.941H91.1393C95.9151 233.941 99.7851 237.811 99.7851 242.587V249.761C99.7851 254.537 95.9151 258.407 91.1393 258.407Z" fill="var(--b-Illustration-spot)"/>
<path d="M180.888 288.286H173.386C168.61 288.286 164.74 284.416 164.74 279.64V210.832C164.74 206.056 168.61 202.186 173.386 202.186H180.888C185.664 202.186 189.534 206.056 189.534 210.832V279.64C189.534 284.412 185.664 288.286 180.888 288.286Z" fill="var(--b-Illustration-spot)"/>
<path d="M236.654 93.0874H222.705C215.297 93.0874 209.292 87.0825 209.292 79.6743V65.7255C209.292 58.3173 215.297 52.3125 222.705 52.3125H236.654C244.062 52.3125 250.067 58.3173 250.067 65.7255V79.6743C250.071 87.0783 244.062 93.0874 236.654 93.0874Z" fill="var(--b-Illustration-spot)"/>
<path d="M60.5794 125.701L15.3052 70.5055C10.606 64.7771 11.4395 56.327 17.1679 51.6278L35.3354 36.7263C41.0638 32.0271 49.5139 32.8606 54.2131 38.589L99.4916 93.7848C104.191 99.5131 103.357 107.963 97.6289 112.662L79.4614 127.564C73.733 132.263 65.2786 131.43 60.5794 125.701Z" fill="var(--b-Illustration-spot)"/>
<path d="M46.5325 157.979C52.2117 157.979 56.8155 153.375 56.8155 147.696C56.8155 142.017 52.2117 137.413 46.5325 137.413C40.8534 137.413 36.2495 142.017 36.2495 147.696C36.2495 153.375 40.8534 157.979 46.5325 157.979Z" fill="var(--b-Illustration-spot)"/>
<path d="M71.6107 174.008C77.2898 174.008 81.8937 169.404 81.8937 163.725C81.8937 158.045 77.2898 153.442 71.6107 153.442C65.9315 153.442 61.3276 158.045 61.3276 163.725C61.3276 169.404 65.9315 174.008 71.6107 174.008Z" fill="var(--b-Illustration-spot)"/>
<path d="M57.3983 200.085C63.0774 200.085 67.6813 195.481 67.6813 189.802C67.6813 184.123 63.0774 179.519 57.3983 179.519C51.7191 179.519 47.1152 184.123 47.1152 189.802C47.1152 195.481 51.7191 200.085 57.3983 200.085Z" fill="var(--b-Illustration-spot)"/>
<path d="M233.26 121.521H230.274C227.514 121.521 225.273 119.284 225.273 116.52V87.8267C225.273 85.0667 227.51 82.8256 230.274 82.8256H233.26C236.02 82.8256 238.261 85.0625 238.261 87.8267V116.52C238.261 119.284 236.02 121.521 233.26 121.521Z" fill="var(--b-Illustration-spot)"/>
<path d="M156.048 274.605C156.048 287.193 141.342 289.086 140.687 289.166L140.862 290.646L141.032 292.126C141.21 292.105 159.029 289.872 159.029 274.609V250.709H156.052V274.605H156.048Z" fill="var(--b-Illustration-border)"/>
<path d="M185.613 274.605V250.705H182.636V274.605C182.636 289.868 200.455 292.101 200.633 292.122L200.978 289.166C200.94 289.162 196.972 288.673 193.098 286.568C188.13 283.867 185.613 279.84 185.613 274.605Z" fill="var(--b-Illustration-border)"/>
<path d="M297.518 231.147C291.301 228.948 288.145 225.767 288.145 221.697V202.186H288.116C288.133 202.029 288.145 201.867 288.145 201.701C288.145 196.526 278.823 193.736 270.054 193.736C261.285 193.736 251.963 196.526 251.963 201.701C251.963 201.867 251.972 202.029 251.993 202.186H251.963V221.697C251.963 225.767 248.808 228.944 242.59 231.147C237.628 232.903 232.558 233.307 232.507 233.311L232.733 236.28C233.639 236.212 254.94 234.46 254.94 221.702V206.226C258.393 208.484 264.339 209.671 270.054 209.671C275.77 209.671 281.72 208.484 285.168 206.226V221.702C285.168 234.46 306.47 236.212 307.38 236.28L307.606 233.311C307.55 233.307 302.481 232.903 297.518 231.147ZM270.05 206.69C260.822 206.69 254.936 203.734 254.936 201.701C254.936 199.668 260.826 196.713 270.05 196.713C279.274 196.713 285.164 199.668 285.164 201.701C285.164 203.734 279.278 206.69 270.05 206.69Z" fill="var(--b-Illustration-border)"/>
<path d="M227.868 156.606C227.004 147.93 223.126 139.748 216.947 133.573C210.767 127.398 202.589 123.52 193.914 122.652C185.685 121.831 177.358 123.736 170.35 128.019C155.406 118.361 135.631 120.419 122.97 133.08C110.417 145.634 108.286 165.285 117.731 180.187C107.686 195.212 109.613 215.182 122.473 228.047C129.839 235.412 139.53 239.193 149.295 239.189C156.584 239.189 163.911 237.079 170.333 232.788C185.234 242.234 204.886 240.103 217.44 227.549C230.1 214.889 232.158 195.118 222.501 180.17C226.783 173.161 228.688 164.83 227.868 156.606ZM215.335 225.44C203.546 237.228 184.962 239.044 171.145 229.756C170.63 229.412 169.959 229.42 169.457 229.777C155.529 239.627 136.66 238.011 124.587 225.937C112.509 213.86 110.897 194.99 120.746 181.067C121.104 180.561 121.112 179.889 120.768 179.379C111.48 165.562 113.296 146.977 125.084 135.189C131.846 128.427 140.802 124.948 149.826 124.948C156.656 124.948 163.524 126.947 169.495 131.026C169.988 131.366 170.639 131.37 171.145 131.047C184.881 122.146 203.261 124.098 214.85 135.687C226.439 147.275 228.391 165.655 219.49 179.392C219.162 179.893 219.171 180.544 219.511 181.042C228.965 194.884 227.217 213.562 215.335 225.44Z" fill="var(--b-Illustration-border)"/>
<path d="M215.092 120.9L215.263 122.38C218.214 122.04 223.789 119.845 223.789 113.968V103.638H220.812V113.968C220.812 118.65 215.156 119.394 214.914 119.424L215.092 120.9Z" fill="var(--b-Illustration-border)"/>
<path d="M232.303 103.634V113.964C232.303 119.841 237.883 122.035 240.83 122.376L241.174 119.42C240.932 119.39 235.276 118.65 235.276 113.964V103.634H232.303Z" fill="var(--b-Illustration-border)"/>
<path d="M204.099 73.1379C199.868 79.9124 200.833 88.7155 206.549 94.4354C209.896 97.7823 214.301 99.5003 218.741 99.5003C221.884 99.5003 225.039 98.6413 227.846 96.8849C234.561 100.848 243.215 99.7938 248.795 94.2185C254.426 88.5879 255.442 79.8656 251.372 73.1294C255.174 66.4569 254.064 57.8877 248.582 52.4017C243.096 46.9158 234.527 45.8101 227.855 49.612C221.118 45.5421 212.392 46.5628 206.766 52.1891C201.186 57.7644 200.136 66.4229 204.099 73.1379ZM218.962 50.118C221.752 50.118 224.555 50.9346 226.987 52.5974C227.48 52.9376 228.131 52.9418 228.637 52.6186C234.242 48.9868 241.744 49.7821 246.473 54.5111C251.202 59.2401 251.997 66.7418 248.365 72.3469C248.038 72.8487 248.046 73.4994 248.387 73.9969C252.248 79.6488 251.534 87.2738 246.686 92.1177C241.876 96.9275 234.289 97.6717 228.654 93.8783C228.14 93.5338 227.468 93.5423 226.966 93.8995C221.284 97.9183 213.583 97.2592 208.654 92.3303C203.725 87.4014 203.066 79.6998 207.085 74.0182C207.442 73.5121 207.45 72.8402 207.106 72.3299C203.317 66.6908 204.057 59.1082 208.866 54.2984C211.626 51.5384 215.284 50.118 218.962 50.118Z" fill="var(--b-Illustration-border)"/>
<path d="M146.781 81.4944C146.781 81.6049 146.79 81.7113 146.798 81.8176H146.781V94.8733C146.781 101.014 134.342 102.141 134.219 102.15L134.444 105.118C135.07 105.071 149.758 103.859 149.758 94.8733V85.3813C152.191 86.6571 155.797 87.3163 159.378 87.3163C162.959 87.3163 166.569 86.6614 168.998 85.3813V94.8733C168.998 103.859 183.686 105.071 184.311 105.118L184.537 102.15C184.409 102.141 171.974 101.031 171.974 94.8733V81.8176H171.957C171.966 81.7113 171.974 81.6049 171.974 81.4944C171.974 77.6712 165.638 75.6724 159.378 75.6724C153.118 75.6724 146.781 77.6712 146.781 81.4944ZM168.998 81.4944C168.998 82.3194 165.625 84.3394 159.378 84.3394C153.131 84.3394 149.758 82.3194 149.758 81.4944C149.758 80.6693 153.131 78.6493 159.378 78.6493C165.625 78.6493 168.998 80.6693 168.998 81.4944Z" fill="var(--b-Illustration-border)"/>
<path d="M61.9187 137.485C63.3731 139.106 66.2777 141.224 69.5013 141.224C71.062 141.224 72.6993 140.726 74.2771 139.437L72.3931 137.132C68.6337 140.207 64.5044 135.899 64.1514 135.521L9.85721 69.0638L7.55225 70.9477L61.8762 137.434C61.889 137.451 61.906 137.468 61.9187 137.485Z" fill="var(--b-Illustration-border)"/>
<path d="M113.781 113.585C113.972 110.502 111.956 108.133 111.603 107.746L89.4211 80.5971L87.1162 82.481L109.324 109.664C109.345 109.69 109.371 109.72 109.396 109.745C109.413 109.762 110.944 111.429 110.808 113.424C110.723 114.657 110.004 115.835 108.669 116.924C104.888 120.015 101.928 117.153 101.55 116.754L98.5304 113.296L81.5579 92.5259L79.2529 94.4099L96.2425 115.201C96.251 115.214 96.2637 115.227 96.2722 115.24L99.3469 118.765C99.3809 118.803 101.767 121.342 105.224 121.342C106.815 121.342 108.635 120.802 110.553 119.237C112.564 117.587 113.649 115.686 113.781 113.585Z" fill="var(--b-Illustration-border)"/>
<path d="M58.5168 52.9036L101.286 62.6848C101.299 62.689 101.324 62.6933 101.337 62.6975C101.363 62.7018 103.71 63.1951 105.577 65.4788C106.84 67.0268 106.806 68.6641 106.555 69.7655C106.232 71.1774 105.369 72.568 104.242 73.4909C102.281 75.0941 99.9763 74.8602 99.7254 74.8305L82.2638 71.4241C80.6265 71.1264 79.0913 70.9775 77.6964 70.9775C72.4741 70.9775 69.0975 74.0692 69.0975 78.8578C69.0975 80.4993 70.3307 83.0467 71.1388 84.3225C71.3174 84.6244 75.3659 91.7817 65.9632 97.9821L67.6005 100.466C79.4443 92.6578 73.7542 82.8893 73.6776 82.766C72.776 81.3413 72.0744 79.4957 72.0744 78.8578C72.0744 75.7405 74.1242 73.9544 77.6964 73.9544C78.9127 73.9544 80.2693 74.0905 81.711 74.3499L99.147 77.7521C99.2193 77.7648 99.2789 77.7776 99.3512 77.7861C99.9806 77.8626 103.264 78.1348 106.121 75.8001C107.767 74.452 108.984 72.4957 109.456 70.4332C110.021 67.9624 109.46 65.5341 107.878 63.5991C105.42 60.5924 102.345 59.8695 101.928 59.7844L59.1759 50.0032C59.1164 49.9905 59.0611 49.9777 58.9931 49.9692C58.6358 49.9139 50.1389 48.4935 43.2581 40.0732L40.9531 41.9571C48.4166 51.0877 57.5174 52.7462 58.5168 52.9036Z" fill="var(--b-Illustration-border)"/>
<path d="M105.649 134.402C111.518 129.609 107.38 123.898 107.338 123.843L104.943 125.612C105.199 125.969 107.35 129.176 103.77 132.102C101.988 133.56 100.146 133.79 98.1476 132.812C96.4976 132.004 95.3791 130.66 95.3706 130.651C95.2941 130.558 95.2047 130.481 95.1154 130.409L75.6338 106.564L73.3289 108.448L93.1124 132.663C93.4824 133.441 94.1671 135.772 90.9138 138.43C89.8293 139.314 88.7364 139.676 87.5669 139.535C84.8069 139.204 82.5445 136.244 82.5232 136.218C82.5105 136.201 82.4977 136.188 82.4849 136.171L57.309 105.173L54.9998 107.049L80.1587 138.03C80.4521 138.417 83.3014 142.015 87.1927 142.491C87.4861 142.525 87.7753 142.546 88.0645 142.546C89.74 142.546 91.3263 141.938 92.7977 140.739C95.0687 138.88 96.051 136.937 96.3275 135.215C97.3056 135.763 98.4666 136.214 99.7509 136.346C101.835 136.55 103.821 135.895 105.649 134.402Z" fill="var(--b-Illustration-border)"/>
<path d="M42.0291 139.71C38.2059 140.926 36.0881 145.025 37.3001 148.849C37.8912 150.699 39.1628 152.212 40.8894 153.106C41.9398 153.65 43.0753 153.922 44.2235 153.922C44.9635 153.922 45.712 153.807 46.4392 153.578C50.2623 152.361 52.3802 148.262 51.1639 144.439C49.9476 140.615 45.848 138.493 42.0291 139.71ZM45.5376 150.737C43.2794 151.455 40.8596 150.201 40.1409 147.943C39.4222 145.685 40.6768 143.265 42.9349 142.546C43.3687 142.41 43.8025 142.342 44.2363 142.342C46.0564 142.342 47.7532 143.511 48.3359 145.336C49.0461 147.598 47.7958 150.018 45.5376 150.737Z" fill="var(--b-Illustration-border)"/>
<path d="M57.0497 85.0412C56.4586 83.1912 55.187 81.6773 53.4604 80.7842C51.7338 79.8911 49.7648 79.7253 47.9107 80.3122C44.0875 81.5284 41.9696 85.628 43.1859 89.4512C43.777 91.3011 45.0486 92.8151 46.7752 93.7082C47.8256 94.2525 48.9611 94.5247 50.1093 94.5247C50.8493 94.5247 51.5977 94.4099 52.3249 94.1802C54.1749 93.5891 55.6888 92.3175 56.5819 90.5909C57.4707 88.8643 57.6408 86.8911 57.0497 85.0412ZM53.9367 89.2216C53.4094 90.2422 52.5163 90.9949 51.4234 91.3437C50.3304 91.6924 49.1652 91.5946 48.1445 91.0672C47.1239 90.5399 46.3712 89.6468 46.0225 88.5539C45.3037 86.2957 46.5583 83.8759 48.8165 83.1572C49.246 83.0211 49.6883 82.9531 50.1263 82.9531C50.8025 82.9531 51.4787 83.1147 52.0953 83.4336C53.116 83.961 53.8687 84.854 54.2174 85.947C54.5619 87.0357 54.4641 88.2009 53.9367 89.2216Z" fill="var(--b-Illustration-border)"/>
<path d="M72.793 171.001C73.5202 171.001 74.2644 170.89 74.9916 170.656C78.8148 169.44 80.9326 165.34 79.7206 161.517C79.1295 159.667 77.8579 158.153 76.1313 157.26C74.4047 156.367 72.4357 156.201 70.5815 156.788C66.7584 158.005 64.6405 162.104 65.8568 165.927C66.8392 169.023 69.7055 171.001 72.793 171.001ZM71.4831 159.629C71.9169 159.493 72.3507 159.425 72.7845 159.425C74.6046 159.425 76.3014 160.594 76.884 162.419C77.6027 164.677 76.3482 167.097 74.09 167.816C71.8318 168.534 69.4121 167.28 68.6933 165.022C67.9704 162.772 69.2249 160.348 71.4831 159.629Z" fill="var(--b-Illustration-border)"/>
<path d="M57.4024 186.638C53.5792 187.854 51.4614 191.954 52.6734 195.777C53.2645 197.627 54.5361 199.141 56.2627 200.034C57.3131 200.578 58.4486 200.851 59.5968 200.851C60.3368 200.851 61.0852 200.736 61.8124 200.506C65.6356 199.29 67.7535 195.19 66.5372 191.367C65.3209 187.544 61.2213 185.422 57.4024 186.638ZM60.9109 197.665C58.6527 198.384 56.2287 197.129 55.5142 194.871C54.7955 192.613 56.05 190.193 58.3082 189.475C58.742 189.338 59.1758 189.27 59.6096 189.27C61.4297 189.27 63.1265 190.44 63.7092 192.264C64.4194 194.527 63.1648 196.947 60.9109 197.665Z" fill="var(--b-Illustration-border)"/>
<path d="M31.2568 170.215L6.93237 196.581L9.12039 198.599L33.4448 172.234L31.2568 170.215Z" fill="var(--b-Illustration-border)"/>
<path d="M159.969 30.6982L111.012 83.7638L113.2 85.7824L162.157 32.7169L159.969 30.6982Z" fill="var(--b-Illustration-border)"/>
<path d="M211.227 18.961L174.666 58.6007L176.855 60.619L213.415 20.9794L211.227 18.961Z" fill="var(--b-Illustration-border)"/>
<path d="M96.5933 187.091L79.1174 206.038L81.3057 208.057L98.7816 189.109L96.5933 187.091Z" fill="var(--b-Illustration-border)"/>
<path d="M273.686 82.813L254.348 103.78L256.536 105.798L275.875 84.8313L273.686 82.813Z" fill="var(--b-Illustration-border)"/>
<path d="M134.951 249.661L96.5615 288.824L98.6873 290.908L137.077 251.744L134.951 249.661Z" fill="var(--b-Illustration-border)"/>
<path d="M278.12 121.897L236.315 167.21L238.503 169.229L280.308 123.915L278.12 121.897Z" fill="var(--b-Illustration-border)"/>
<path d="M216.523 242.427L198.072 262.431L200.261 264.449L218.711 244.445L216.523 242.427Z" fill="var(--b-Illustration-border)"/>
<path d="M280.603 162.731L265.619 178.972L267.807 180.991L282.791 164.75L280.603 162.731Z" fill="var(--b-Illustration-border)"/>
<path d="M25.3026 132.817L5.50415 155.682L7.75468 157.631L27.5532 134.765L25.3026 132.817Z" fill="var(--b-Illustration-border)"/>
<path d="M124.175 25.6235L102.683 48.9259L104.871 50.9442L126.363 27.6419L124.175 25.6235Z" fill="var(--b-Illustration-border)"/>
<path d="M250.427 255.604L231.783 275.818L233.972 277.836L252.615 257.622L250.427 255.604Z" fill="var(--b-Illustration-border)"/>
<path d="M98.0627 226.707C92.8702 225.321 85.9213 226.979 80.3587 230.926C72.9803 236.156 68.4809 244.772 67.6857 255.187C67.5538 256.91 66.0186 257.858 63.3607 257.858C62.9694 257.858 24.0445 257.382 24.0445 216.305C24.0445 213.979 24.8908 213.069 27.0682 213.069C40.6045 213.069 57.4579 220.485 64.1517 241.302L66.984 240.392C59.8012 218.053 41.6549 210.096 27.0682 210.096C23.2578 210.096 21.0676 212.358 21.0676 216.309C21.0676 238.142 31.7376 249.008 40.6853 254.273C51.7126 260.763 63.2416 260.835 63.3607 260.835C68.4299 260.835 70.4499 258.037 70.6498 255.413C71.377 245.899 75.4341 238.066 82.0768 233.354C86.9504 229.901 92.9212 228.421 97.293 229.586C97.378 229.607 99.3725 230.16 99.3343 232.04C99.1812 240.065 96.8252 246.329 92.3258 250.654C85.4577 257.258 75.7828 257.139 75.6808 257.139L75.6467 258.628L75.6127 260.116C76.055 260.129 86.5804 260.282 94.3586 252.827C99.4618 247.932 102.137 240.958 102.303 232.095C102.366 229.169 100.215 227.281 98.0627 226.707Z" fill="var(--b-Illustration-border)"/>
</svg>
