<svg viewBox="0 0 322 341" fill="none" xmlns="http://www.w3.org/2000/svg">
<path d="M161.141 340.934C249.704 340.934 321.498 269.14 321.498 180.578C321.498 92.0156 249.704 20.2216 161.141 20.2216C72.5789 20.2216 0.784851 92.0156 0.784851 180.578C0.784851 269.14 72.5789 340.934 161.141 340.934Z" fill="var(--b-Illustration-bg)"/>
<path d="M77.3929 118.591H61.4708C57.9963 118.591 55.181 115.775 55.181 112.301V75.5449C55.181 72.0705 57.9963 69.2552 61.4708 69.2552H77.3929C80.8673 69.2552 83.6826 72.0705 83.6826 75.5449V112.301C83.6826 115.775 80.8673 118.591 77.3929 118.591Z" fill="var(--b-Illustration-spot)"/>
<path d="M125.112 139.544H109.19C105.716 139.544 102.901 136.729 102.901 133.254V96.498C102.901 93.0235 105.716 90.2083 109.19 90.2083H125.112C128.587 90.2083 131.402 93.0235 131.402 96.498V133.254C131.402 136.729 128.587 139.544 125.112 139.544Z" fill="var(--b-Illustration-spot)"/>
<path d="M175.864 155.678H159.942C156.467 155.678 153.652 152.863 153.652 149.389V112.633C153.652 109.158 156.467 106.343 159.942 106.343H175.864C179.338 106.343 182.154 109.158 182.154 112.633V149.389C182.158 152.863 179.338 155.678 175.864 155.678Z" fill="var(--b-Illustration-spot)"/>
<path d="M125.261 247.294H43.5329C40.0584 247.294 37.2432 244.479 37.2432 241.005V185.775C37.2432 182.3 40.0584 179.485 43.5329 179.485H125.265C128.74 179.485 131.555 182.3 131.555 185.775V241.005C131.551 244.479 128.736 247.294 125.261 247.294Z" fill="var(--b-Illustration-spot)"/>
<path d="M259.783 247.294H178.054C174.58 247.294 171.765 244.479 171.765 241.005V185.775C171.765 182.3 174.58 179.485 178.054 179.485H259.787C263.261 179.485 266.077 182.3 266.077 185.775V241.005C266.072 244.479 263.257 247.294 259.783 247.294Z" fill="var(--b-Illustration-spot)"/>
<path d="M196.081 85.2538H191.459C187.984 85.2538 185.169 82.4386 185.169 78.9641V52.1679C185.169 48.6934 187.984 45.8781 191.459 45.8781H196.081C199.556 45.8781 202.371 48.6934 202.371 52.1679V78.9641C202.371 82.4386 199.556 85.2538 196.081 85.2538Z" fill="var(--b-Illustration-spot)"/>
<path d="M236.24 62.4934H231.617C228.142 62.4934 225.327 59.6781 225.327 56.2036V29.4074C225.327 25.933 228.142 23.1177 231.617 23.1177H236.24C239.714 23.1177 242.529 25.933 242.529 29.4074V56.2036C242.529 59.6781 239.714 62.4934 236.24 62.4934Z" fill="var(--b-Illustration-spot)"/>
<path d="M194.854 126.789L193.776 129.564L257.337 154.246L258.414 151.471L194.854 126.789Z" fill="var(--b-Illustration-border)"/>
<path d="M262.294 62.4969L197.707 105.457L199.355 107.936L263.943 64.9754L262.294 62.4969Z" fill="var(--b-Illustration-border)"/>
<path d="M260.095 91.743L217.017 122.224L218.737 124.654L261.814 94.173L260.095 91.743Z" fill="var(--b-Illustration-border)"/>
<path d="M17.3824 144.762L16.3241 147.545L66.4567 166.612L67.515 163.829L17.3824 144.762Z" fill="var(--b-Illustration-border)"/>
<path d="M7.5514 114.869L6.49847 117.653L166.862 178.291L167.915 175.507L7.5514 114.869Z" fill="var(--b-Illustration-border)"/>
<path d="M115.191 254.754L137.339 232.606C137.62 232.325 137.777 231.946 137.777 231.551V173.927C137.777 173.106 137.109 172.438 136.289 172.438H52.8167C52.4212 172.438 52.0427 172.596 51.7663 172.876L29.6182 195.024C29.3375 195.305 29.1802 195.684 29.1802 196.075V227.2H1.10815V230.177H29.1802V253.699C29.1802 254.52 29.8479 255.187 30.6686 255.187H114.132C114.532 255.187 114.91 255.034 115.191 254.754ZM65.3366 194.582H34.2622L42.3593 186.485H73.4338L65.3366 194.582ZM67.4417 196.687L88.7179 175.411H98.2567L78.6518 195.016C78.3711 195.297 78.2138 195.675 78.2138 196.066V214.553H67.4417V196.687ZM124.594 183.512H94.3698L102.467 175.415H132.695L124.594 183.512ZM91.3929 186.489H121.617L113.52 194.586H83.2958L91.3929 186.489ZM115.625 250.105V196.687L134.796 177.516V230.934L115.625 250.105ZM53.4333 175.415H84.5078L76.4106 183.512H45.3404L53.4333 175.415ZM32.1613 197.559H64.4648V216.046C64.4648 216.866 65.1325 217.534 65.9533 217.534H79.7022C80.523 217.534 81.1907 216.866 81.1907 216.046V197.559H112.648V252.21H32.1613V197.559Z" fill="var(--b-Illustration-border)"/>
<path d="M314.638 238.423C311.712 231.355 305.869 227.137 299.005 227.137L281.467 227.196H275.645V173.927C275.645 173.106 274.978 172.438 274.157 172.438H190.689C190.294 172.438 189.915 172.596 189.639 172.876L167.491 195.024C167.21 195.305 167.053 195.684 167.053 196.075V223.679H138.083V226.656H167.053V253.703C167.053 254.524 167.72 255.192 168.541 255.192H252.004C252.4 255.192 252.778 255.034 253.055 254.758L275.203 232.61C275.484 232.329 275.641 231.951 275.641 231.555V230.177H281.467L299.005 230.118C304.704 230.118 309.395 233.562 311.882 239.567C314.919 246.895 313.545 255.502 308.548 260.503C308.314 260.737 287.064 282.724 275.39 294.856C275.747 293.228 275.947 291.463 275.947 289.541C275.947 270.174 260.701 265.93 254.824 265.93H39.9948V268.907H254.828C259.876 268.907 272.974 272.615 272.974 289.541C272.974 295.256 271.048 299.301 268.42 302.133C268.309 302.252 268.211 302.354 268.135 302.435C263.61 307.083 257.205 308.308 254.828 308.308H52.5147V311.285H254.828C259.123 311.285 266.268 309.218 271.044 303.685C276.904 297.527 310.36 262.906 310.658 262.604C316.484 256.778 318.121 246.835 314.638 238.423ZM251.392 194.582H221.168L229.265 186.485H259.489L251.392 194.582ZM203.209 194.582H172.135L180.232 186.485H211.306L203.209 194.582ZM205.314 196.687L226.59 175.411H236.129L216.524 195.016C216.244 195.297 216.086 195.675 216.086 196.066V214.553H205.314V196.687V196.687ZM262.466 183.512H232.242L240.339 175.415H270.563L262.466 183.512ZM191.31 175.415H222.384L214.287 183.512H183.213L191.31 175.415ZM170.034 197.559H202.337V216.046C202.337 216.866 203.005 217.534 203.826 217.534H217.575C218.395 217.534 219.063 216.866 219.063 216.046V197.559H250.52V252.21H170.034V197.559ZM253.497 250.105V196.687L272.668 177.516V230.934L253.497 250.105Z" fill="var(--b-Illustration-border)"/>
<path d="M169.473 58.8279L135.789 77.6712L137.242 80.2691L170.926 61.4258L169.473 58.8279Z" fill="var(--b-Illustration-border)"/>
<path d="M229.648 65.5638C238.898 65.5638 242.253 58.6234 242.389 58.3257C242.483 58.1301 242.529 57.9132 242.529 57.6963V31.8272C242.529 27.213 240.003 22.922 236.023 20.6468V4.04006C236.023 3.81042 235.968 3.58077 235.865 3.37664C235.797 3.24056 234.13 0 229.648 0C225.161 0 223.499 3.24056 223.431 3.37664C223.329 3.58077 223.273 3.81042 223.273 4.04006V20.6468C219.288 22.922 216.767 27.213 216.767 31.8272V57.6963C216.767 57.9132 216.813 58.1301 216.907 58.3257C217.043 58.6234 220.398 65.5638 229.648 65.5638ZM219.743 31.8314C219.743 28.038 221.963 24.5296 225.404 22.8923C225.923 22.6456 226.254 22.1225 226.254 21.5484V4.47384C226.612 4.00179 227.624 2.98114 229.652 2.98114C231.677 2.98114 232.689 4.00604 233.05 4.47809V21.5527C233.05 22.1268 233.382 22.6499 233.901 22.8965C237.337 24.5338 239.561 28.0423 239.561 31.8357V57.3349C238.919 58.4533 236.112 62.5954 229.657 62.5954C223.192 62.5954 220.386 58.4448 219.752 57.3349V31.8314H219.743Z" fill="var(--b-Illustration-border)"/>
<path d="M191.318 86.5467C200.568 86.5467 203.923 79.6063 204.06 79.3086C204.153 79.113 204.2 78.8961 204.2 78.6792V52.81C204.2 48.1959 201.674 43.9049 197.693 41.6297V25.0229C197.693 24.7933 197.638 24.5636 197.536 24.3595C197.468 24.2234 195.801 20.9828 191.318 20.9828C186.836 20.9828 185.169 24.2234 185.101 24.3595C184.999 24.5636 184.944 24.7933 184.944 25.0229V41.6297C180.959 43.9049 178.437 48.1959 178.437 52.81V78.6792C178.437 78.8961 178.484 79.113 178.577 79.3086C178.714 79.6063 182.069 86.5467 191.318 86.5467ZM181.414 52.8143C181.414 49.0209 183.634 45.5124 187.074 43.8751C187.593 43.6285 187.925 43.1054 187.925 42.5313V25.4567C188.282 24.9846 189.294 23.964 191.323 23.964C193.347 23.964 194.359 24.9889 194.721 25.4609V42.5355C194.721 43.1096 195.052 43.6327 195.571 43.8794C199.007 45.5167 201.232 49.0251 201.232 52.8185V78.3177C200.589 79.4362 197.778 83.5783 191.327 83.5783C184.863 83.5783 182.056 79.4277 181.422 78.3177V52.8143H181.414Z" fill="var(--b-Illustration-border)"/>
<path d="M62.7084 295.477C64.2224 296.779 66.1148 297.476 68.0881 297.476C68.3007 297.476 68.5133 297.468 68.726 297.451C70.9289 297.285 72.9404 296.268 74.3778 294.593C75.8195 292.917 76.5212 290.778 76.3553 288.575C76.1895 286.372 75.1731 284.361 73.4975 282.923C71.8219 281.482 69.6871 280.78 67.4757 280.946C65.2728 281.112 63.2613 282.128 61.8238 283.804C60.3822 285.479 59.6805 287.618 59.8463 289.821C60.0164 292.028 61.0286 294.036 62.7084 295.477ZM64.082 285.743C65.0049 284.667 66.2892 284.021 67.7011 283.91C67.8372 283.901 67.9732 283.893 68.1093 283.893C69.3766 283.893 70.5844 284.339 71.554 285.173C72.6257 286.096 73.2764 287.38 73.3827 288.792C73.489 290.204 73.0425 291.573 72.1196 292.645C71.1968 293.721 69.9125 294.367 68.5006 294.478C67.0887 294.584 65.7193 294.138 64.6476 293.215C63.576 292.292 62.9253 291.008 62.819 289.596C62.7084 288.188 63.1592 286.819 64.082 285.743Z" fill="var(--b-Illustration-border)"/>
<path d="M113.218 280.946C111.015 281.112 109.003 282.128 107.566 283.804C106.124 285.479 105.422 287.618 105.588 289.821C105.754 292.024 106.771 294.036 108.446 295.473C109.96 296.774 111.853 297.472 113.826 297.472C114.038 297.472 114.251 297.463 114.464 297.446C119.014 297.102 122.438 293.117 122.093 288.567C121.753 284.021 117.76 280.601 113.218 280.946ZM114.247 294.486C112.835 294.593 111.466 294.146 110.394 293.223C109.322 292.301 108.672 291.016 108.565 289.604C108.459 288.192 108.905 286.823 109.828 285.751C110.751 284.675 112.035 284.029 113.447 283.918C113.583 283.91 113.715 283.901 113.851 283.901C116.594 283.901 118.921 286.024 119.133 288.801C119.35 291.714 117.16 294.265 114.247 294.486Z" fill="var(--b-Illustration-border)"/>
<path d="M158.964 280.946C156.761 281.112 154.75 282.128 153.312 283.804C151.87 285.479 151.169 287.618 151.335 289.821C151.5 292.024 152.517 294.036 154.192 295.473C155.706 296.774 157.599 297.472 159.572 297.472C159.785 297.472 159.997 297.463 160.21 297.446C164.76 297.102 168.184 293.117 167.839 288.567C167.499 284.021 163.506 280.601 158.964 280.946ZM159.989 294.486C158.577 294.593 157.208 294.146 156.136 293.223C155.064 292.301 154.414 291.016 154.307 289.604C154.201 288.192 154.647 286.823 155.57 285.751C156.493 284.675 157.777 284.029 159.189 283.918C159.325 283.91 159.457 283.901 159.593 283.901C162.336 283.901 164.663 286.024 164.875 288.801C165.096 291.714 162.902 294.265 159.989 294.486Z" fill="var(--b-Illustration-border)"/>
<path d="M204.706 280.946C202.503 281.112 200.491 282.128 199.054 283.804C197.612 285.479 196.911 287.618 197.077 289.821C197.404 294.163 201.04 297.476 205.327 297.476C205.535 297.476 205.748 297.468 205.956 297.451C210.507 297.106 213.93 293.121 213.586 288.571C213.241 284.021 209.248 280.601 204.706 280.946ZM205.731 294.486C202.826 294.708 200.266 292.517 200.045 289.6C199.939 288.188 200.385 286.819 201.308 285.747C202.231 284.671 203.515 284.025 204.927 283.914C205.063 283.906 205.195 283.897 205.331 283.897C208.074 283.897 210.4 286.019 210.613 288.796C210.838 291.714 208.648 294.265 205.731 294.486Z" fill="var(--b-Illustration-border)"/>
<path d="M251.069 297.476C251.277 297.476 251.49 297.468 251.698 297.451C253.901 297.285 255.913 296.268 257.35 294.593C258.792 292.917 259.493 290.778 259.328 288.575C258.983 284.025 254.986 280.602 250.448 280.946C248.245 281.112 246.233 282.128 244.796 283.804C243.354 285.479 242.653 287.618 242.819 289.821C243.15 294.163 246.786 297.476 251.069 297.476ZM247.054 285.743C247.977 284.667 249.261 284.021 250.673 283.91C250.809 283.902 250.941 283.893 251.077 283.893C253.82 283.893 256.147 286.015 256.359 288.792C256.465 290.204 256.019 291.573 255.096 292.645C254.173 293.717 252.889 294.368 251.477 294.478C248.564 294.699 246.012 292.509 245.791 289.592C245.685 288.188 246.131 286.819 247.054 285.743Z" fill="var(--b-Illustration-border)"/>
<path d="M46.7226 118.34L67.7479 126.377C67.9223 126.441 68.1009 126.475 68.2795 126.475C68.5942 126.475 68.9046 126.377 69.164 126.182L85.8899 113.794C86.2684 113.513 86.4938 113.071 86.4938 112.599V80.2442C86.4938 72.87 82.5345 68.2643 79.0431 64.1987C78.5412 63.6161 78.0607 63.059 77.5971 62.4977L77.4143 54.0263C77.4058 53.533 77.1464 53.0737 76.7338 52.8058C76.3213 52.5378 75.794 52.4953 75.339 52.6909L53.7735 61.9448C53.2334 62.1744 52.8805 62.7018 52.872 63.2887L52.7486 71.0796C52.132 71.8068 51.5281 72.432 50.9455 73.0443C48.0494 76.0595 45.7572 78.441 45.7572 88.1031V116.949C45.7657 117.566 46.1484 118.119 46.7226 118.34ZM48.7426 88.1031C48.7426 79.6403 50.4777 77.8371 53.0974 75.1069C53.7948 74.3839 54.5815 73.5632 55.3896 72.568C55.6022 72.3086 55.717 71.9854 55.7213 71.6537L55.8361 64.305L74.4842 56.3015L74.6288 63.0803C74.6373 63.412 74.7521 63.7309 74.9605 63.9861C75.5516 64.7091 76.1725 65.4363 76.7806 66.1422C80.0892 69.9952 83.5126 73.9757 83.5126 80.2484V111.85L68.0456 123.307L48.7383 115.924V88.1031H48.7426Z" fill="var(--b-Illustration-border)"/>
<path d="M69.7679 118.591V91.0545C69.7679 84.4799 64.8688 76.7102 62.6531 73.5292L72.5321 68.5535L71.1925 65.8956L59.7485 71.658C59.353 71.8578 59.0638 72.2236 58.966 72.6574C58.8682 73.0911 58.966 73.5462 59.2382 73.8991C59.3148 73.997 66.7867 83.7611 66.7867 91.0545V118.591H69.7679V118.591Z" fill="var(--b-Illustration-border)"/>
<path d="M95.5775 137.719L116.603 145.757C116.777 145.821 116.956 145.855 117.134 145.855C117.449 145.855 117.76 145.757 118.019 145.561L134.745 133.173C135.123 132.893 135.349 132.45 135.349 131.978V99.6237C135.349 92.2496 131.389 87.6439 127.898 83.5783C127.396 82.9957 126.916 82.4386 126.452 81.8772L126.269 73.4059C126.261 72.9126 126.001 72.4533 125.589 72.1853C125.172 71.9174 124.649 71.8749 124.194 72.0705L102.629 81.3244C102.088 81.554 101.735 82.0814 101.727 82.6682L101.604 90.4592C100.987 91.1864 100.383 91.8158 99.8005 92.4239C96.9044 95.4391 94.6122 97.8206 94.6122 107.483V136.329C94.6207 136.945 95.0034 137.498 95.5775 137.719ZM97.5976 107.483C97.5976 99.0199 99.3327 97.2167 101.952 94.4865C102.646 93.7635 103.437 92.9428 104.245 91.9476C104.457 91.6882 104.572 91.365 104.576 91.0333L104.691 83.6846L123.339 75.6811L123.484 82.4599C123.492 82.7916 123.607 83.1105 123.815 83.3657C124.407 84.0886 125.027 84.8201 125.636 85.5218C128.944 89.3747 132.368 93.3553 132.368 99.628V131.23L116.901 142.687L97.5933 135.304V107.483H97.5976Z" fill="var(--b-Illustration-border)"/>
<path d="M118.627 137.97V110.434C118.627 103.859 113.728 96.0897 111.512 92.9087L121.391 87.9331L120.052 85.2751L108.608 91.0375C108.212 91.2374 107.923 91.6032 107.825 92.0369C107.727 92.4707 107.825 92.9257 108.097 93.2787C108.174 93.3765 115.646 103.141 115.646 110.434V137.97H118.627V137.97Z" fill="var(--b-Illustration-border)"/>
<path d="M151.866 99.6832L151.743 107.474C151.126 108.201 150.522 108.831 149.94 109.439C147.044 112.454 144.752 114.836 144.752 124.498V153.344C144.752 153.96 145.13 154.513 145.708 154.734L166.734 162.772C166.908 162.836 167.087 162.87 167.265 162.87C167.58 162.87 167.89 162.772 168.15 162.576L184.876 150.188C185.254 149.908 185.48 149.465 185.48 148.993V116.639C185.48 109.265 181.52 104.659 178.029 100.593C177.527 100.011 177.047 99.4535 176.583 98.8922L176.4 90.4208C176.392 89.9275 176.132 89.4682 175.72 89.2003C175.303 88.9324 174.78 88.8898 174.325 89.0855L152.759 98.3393C152.228 98.569 151.875 99.0963 151.866 99.6832ZM154.711 108.044L154.826 100.695L173.474 92.6918L173.619 99.4706C173.627 99.8023 173.742 100.121 173.951 100.376C174.542 101.099 175.163 101.831 175.771 102.532C179.079 106.385 182.503 110.366 182.503 116.639V148.24L167.036 159.697L147.728 152.315V124.493C147.728 116.031 149.464 114.227 152.083 111.497C152.776 110.774 153.567 109.953 154.375 108.958C154.588 108.699 154.707 108.376 154.711 108.044Z" fill="var(--b-Illustration-border)"/>
<path d="M165.777 127.445V154.981H168.754V127.445C168.754 120.87 163.855 113.1 161.639 109.919L171.518 104.944L170.178 102.286L158.734 108.048C158.339 108.248 158.05 108.614 157.952 109.048C157.854 109.481 157.952 109.936 158.224 110.289C158.305 110.383 165.777 120.147 165.777 127.445Z" fill="var(--b-Illustration-border)"/>
<path d="M275.82 262.519C278.516 265.411 283.534 273.721 280.612 282.6L284.427 278.624C285.027 270.386 280.583 263.263 277.997 260.49L275.82 262.519Z" fill="var(--b-Illustration-border)"/>
<path d="M284.202 255.247C287.221 258.483 291.065 265.492 289.449 273.38L292.813 269.872C292.89 262.57 289.296 256.348 286.379 253.214L284.202 255.247Z" fill="var(--b-Illustration-border)"/>
<path d="M292.129 247.32C295.148 250.556 298.992 257.565 297.376 265.453L300.74 261.945C300.817 254.643 297.223 248.421 294.306 245.287L292.129 247.32Z" fill="var(--b-Illustration-border)"/>
<path d="M308.268 253.971C308.327 246.822 305.036 240.962 302.131 237.849L299.954 239.878C302.939 243.08 306.379 249.616 304.942 257.441L308.268 253.971Z" fill="var(--b-Illustration-border)"/>
</svg>
