<svg viewBox="0 0 340 332" fill="none" xmlns="http://www.w3.org/2000/svg">
<path d="M173.104 329.316C261.667 329.316 333.461 257.522 333.461 168.96C333.461 80.3972 261.667 8.60321 173.104 8.60321C84.5419 8.60321 12.7478 80.3972 12.7478 168.96C12.7478 257.522 84.5419 329.316 173.104 329.316Z" fill="var(--b-Illustration-bg)"/>
<path d="M52.4297 205.091H46.225C42.5676 205.091 39.6035 202.126 39.6035 198.469V194.85C39.6035 191.193 42.5676 188.229 46.225 188.229H52.4297C56.087 188.229 59.0511 191.193 59.0511 194.85V198.469C59.0553 202.126 56.0912 205.091 52.4297 205.091Z" fill="var(--b-Illustration-spot)"/>
<path d="M101.791 152.736H100.893C97.2361 152.736 94.2719 149.772 94.2719 146.114C94.2719 142.457 97.2361 139.493 100.893 139.493H101.791C105.448 139.493 108.412 142.457 108.412 146.114C108.412 149.772 105.448 152.736 101.791 152.736Z" fill="var(--b-Illustration-spot)"/>
<path d="M125.1 134.564H124.202C120.545 134.564 117.581 131.6 117.581 127.942C117.581 124.285 120.545 121.321 124.202 121.321H125.1C128.757 121.321 131.721 124.285 131.721 127.942C131.721 131.6 128.757 134.564 125.1 134.564Z" fill="var(--b-Illustration-spot)"/>
<path d="M157.148 133.467H156.251C152.593 133.467 149.629 130.502 149.629 126.845C149.629 123.188 152.593 120.224 156.251 120.224H157.148C160.805 120.224 163.77 123.188 163.77 126.845C163.77 130.502 160.805 133.467 157.148 133.467Z" fill="var(--b-Illustration-spot)"/>
<path d="M179.16 114.665H178.263C174.605 114.665 171.641 111.701 171.641 108.044C171.641 104.387 174.605 101.422 178.263 101.422H179.16C182.817 101.422 185.781 104.387 185.781 108.044C185.786 111.701 182.817 114.665 179.16 114.665Z" fill="var(--b-Illustration-spot)"/>
<path d="M182.452 48.5445H173.083C166.606 48.5445 161.354 43.2925 161.354 36.8156V33.7792C161.354 27.3023 166.606 22.0502 173.083 22.0502H182.452C188.929 22.0502 194.181 27.3023 194.181 33.7792V36.8156C194.185 43.2925 188.933 48.5445 182.452 48.5445Z" fill="var(--b-Illustration-spot)"/>
<path d="M119.614 93.2956H102.909C98.7543 93.2956 95.3861 89.9275 95.3861 85.7726V45.1211C95.3861 40.9662 98.7543 37.5981 102.909 37.5981H119.614C123.769 37.5981 127.137 40.9662 127.137 45.1211V85.7726C127.137 89.9275 123.769 93.2956 119.614 93.2956Z" fill="var(--b-Illustration-spot)"/>
<path d="M247.875 109.822L223.703 98.671C219.931 96.9317 218.281 92.4621 220.024 88.6899L240.161 45.0318C241.9 41.2596 246.37 39.6096 250.142 41.3532L274.314 52.5037C278.086 54.2431 279.736 58.7127 277.993 62.4848L257.856 106.143C256.117 109.915 251.647 111.561 247.875 109.822Z" fill="var(--b-Illustration-spot)"/>
<path d="M283.036 168.59L280.064 166.718C277.321 164.992 276.491 161.369 278.218 158.626L324.134 85.594C325.861 82.851 329.484 82.0218 332.227 83.7484L335.2 85.6195C337.943 87.3461 338.772 90.9694 337.046 93.7124L291.129 166.744C289.407 169.487 285.784 170.316 283.036 168.59Z" fill="var(--b-Illustration-spot)"/>
<path d="M181.231 189.066L180.823 185.579C180.444 182.36 182.749 179.442 185.969 179.064L258.188 170.58C261.407 170.201 264.325 172.506 264.703 175.726L265.111 179.213C265.49 182.432 263.185 185.349 259.966 185.728L187.746 194.212C184.527 194.591 181.61 192.286 181.231 189.066Z" fill="var(--b-Illustration-spot)"/>
<path d="M282.156 185.707L285.137 183.853C287.889 182.139 291.512 182.981 293.222 185.732L338.81 258.968C340.524 261.719 339.682 265.343 336.931 267.052L333.95 268.906C331.198 270.62 327.575 269.778 325.865 267.027L280.276 193.791C278.562 191.04 279.405 187.421 282.156 185.707Z" fill="var(--b-Illustration-spot)"/>
<path d="M275.786 213.558L279.298 213.528C282.539 213.502 285.192 216.105 285.218 219.35L285.941 305.611C285.966 308.852 283.364 311.506 280.119 311.531L276.606 311.561C273.366 311.586 270.712 308.984 270.687 305.739L269.964 219.477C269.938 216.233 272.545 213.583 275.786 213.558Z" fill="var(--b-Illustration-spot)"/>
<path d="M73.0042 87.3716H38.4723C34.3174 87.3716 30.9493 84.0035 30.9493 79.8486V68.345C30.9493 64.1902 34.3174 60.822 38.4723 60.822H73.0042C77.1591 60.822 80.5272 64.1902 80.5272 68.345V79.8486C80.5272 84.0035 77.1591 87.3716 73.0042 87.3716Z" fill="var(--b-Illustration-spot)"/>
<path d="M93.6766 204.406H88.2842C84.4015 204.406 81.2545 201.259 81.2545 197.376V194.574C81.2545 190.691 84.4015 187.544 88.2842 187.544H93.6766C97.5593 187.544 100.706 190.691 100.706 194.574V197.376C100.706 201.259 97.5593 204.406 93.6766 204.406Z" fill="var(--b-Illustration-spot)"/>
<path d="M118.602 230.581H112.916C109.114 230.581 106.031 227.498 106.031 223.696V220.6C106.031 216.798 109.114 213.715 112.916 213.715H118.602C122.404 213.715 125.487 216.798 125.487 220.6V223.696C125.487 227.498 122.404 230.581 118.602 230.581Z" fill="var(--b-Illustration-spot)"/>
<path d="M156.901 226.379H151.215C147.414 226.379 144.33 223.296 144.33 219.494V216.398C144.33 212.597 147.414 209.513 151.215 209.513H156.901C160.703 209.513 163.786 212.597 163.786 216.398V219.494C163.786 223.296 160.703 226.379 156.901 226.379Z" fill="var(--b-Illustration-spot)"/>
<path d="M178.701 255.34H173.015C169.213 255.34 166.13 252.257 166.13 248.455V245.359C166.13 241.557 169.213 238.474 173.015 238.474H178.701C182.503 238.474 185.586 241.557 185.586 245.359V248.455C185.586 252.257 182.503 255.34 178.701 255.34Z" fill="var(--b-Illustration-spot)"/>
<path d="M226.425 256.148H220.739C216.937 256.148 213.854 253.065 213.854 249.263V246.167C213.854 242.365 216.937 239.282 220.739 239.282H226.425C230.226 239.282 233.31 242.365 233.31 246.167V249.263C233.31 253.069 230.226 256.148 226.425 256.148Z" fill="var(--b-Illustration-spot)"/>
<path d="M32.4093 213.176L31.3448 215.956L236.593 294.548L237.657 291.768L32.4093 213.176Z" fill="var(--b-Illustration-border)"/>
<path d="M178.331 216.37L177.291 219.16L212.943 232.45L213.983 229.661L178.331 216.37Z" fill="var(--b-Illustration-border)"/>
<path d="M115.408 192.264L114.369 195.053L138.301 203.975L139.341 201.186L115.408 192.264Z" fill="var(--b-Illustration-border)"/>
<path d="M51.2644 168.351L50.2245 171.141L76.3846 180.893L77.4244 178.103L51.2644 168.351Z" fill="var(--b-Illustration-border)"/>
<path d="M32.4103 241.218L31.3457 243.998L236.594 322.589L237.658 319.809L32.4103 241.218Z" fill="var(--b-Illustration-border)"/>
<path d="M177.225 56.8883C189.047 56.8883 198.667 47.2687 198.667 35.4462C198.667 23.6237 189.047 14.0041 177.225 14.0041C165.402 14.0041 155.783 23.6237 155.783 35.4462C155.783 47.2687 165.402 56.8883 177.225 56.8883ZM177.225 16.9852C187.406 16.9852 195.69 25.2695 195.69 35.4504C195.69 45.6314 187.406 53.9156 177.225 53.9156C167.044 53.9156 158.76 45.6314 158.76 35.4504C158.76 25.2695 167.044 16.9852 177.225 16.9852Z" fill="var(--b-Illustration-border)"/>
<path d="M178.713 -6.10352e-05H175.737V9.98102H178.713V-6.10352e-05Z" fill="var(--b-Illustration-border)"/>
<path d="M178.713 60.9199H175.737V70.9009H178.713V60.9199Z" fill="var(--b-Illustration-border)"/>
<path d="M151.751 33.9578H141.774V36.9347H151.751V33.9578Z" fill="var(--b-Illustration-border)"/>
<path d="M212.675 33.9578H202.694V36.9347H212.675V33.9578Z" fill="var(--b-Illustration-border)"/>
<path d="M201.231 9.32067L194.174 16.3783L196.279 18.4833L203.336 11.4256L201.231 9.32067Z" fill="var(--b-Illustration-border)"/>
<path d="M158.161 52.4039L151.104 59.4615L153.209 61.5664L160.266 54.5088L158.161 52.4039Z" fill="var(--b-Illustration-border)"/>
<path d="M153.208 9.33108L151.103 11.436L158.16 18.4937L160.265 16.3887L153.208 9.33108Z" fill="var(--b-Illustration-border)"/>
<path d="M196.293 52.4177L194.188 54.5227L201.246 61.5803L203.351 59.4754L196.293 52.4177Z" fill="var(--b-Illustration-border)"/>
<path d="M90.2914 38.1041L126.703 37.9V80.006H129.68V36.4031C129.68 36.0076 129.523 35.6291 129.242 35.3484C128.961 35.072 128.587 34.9146 128.191 34.9146C128.187 34.9146 128.187 34.9146 128.183 34.9146L88.7944 35.1358C87.9737 35.14 87.3145 35.8034 87.3145 36.6242V98.7646H90.2914V38.1041Z" fill="var(--b-Illustration-border)"/>
<path d="M33.9261 56.6502H82.1772V53.6733H32.4377C31.6169 53.6733 30.9492 54.341 30.9492 55.1617V90.6122H33.9261V56.6502Z" fill="var(--b-Illustration-border)"/>
<path d="M47.8027 65.7892H44.8258V73.0996H47.8027V65.7892Z" fill="var(--b-Illustration-border)"/>
<path d="M60.5948 65.7892H57.6179V73.0996H60.5948V65.7892Z" fill="var(--b-Illustration-border)"/>
<path d="M73.3869 65.7892H70.41V73.0996H73.3869V65.7892Z" fill="var(--b-Illustration-border)"/>
<path d="M104.291 47.3155H101.314V54.6259H104.291V47.3155Z" fill="var(--b-Illustration-border)"/>
<path d="M117.083 47.3155H114.106V54.6259H117.083V47.3155Z" fill="var(--b-Illustration-border)"/>
<path d="M104.291 63.7862H101.314V71.0966H104.291V63.7862Z" fill="var(--b-Illustration-border)"/>
<path d="M117.083 63.7862H114.106V71.0966H117.083V63.7862Z" fill="var(--b-Illustration-border)"/>
<path d="M205.799 99.9851C205.948 100.376 206.258 100.687 206.645 100.84L254.28 119.479C254.458 119.548 254.641 119.582 254.82 119.582C255.368 119.582 255.887 119.28 256.151 118.765L273.532 84.3224L270.874 82.9828L254.101 116.218L209.248 98.6625L220.05 77.1396L240.224 84.7094L231.847 101.831L234.522 103.141L243.023 85.7598L256.517 90.8248L257.563 88.0393L244.341 83.0764L252.243 66.9289L276.066 76.4209C276.245 76.4932 276.432 76.5272 276.615 76.5272C277.159 76.5272 277.678 76.2253 277.942 75.715L289.067 53.9539C289.258 53.5797 289.284 53.1417 289.135 52.7504C288.986 52.3592 288.675 52.0445 288.284 51.8914L240.65 33.2518C239.935 32.9711 239.132 33.2773 238.783 33.962L222.01 66.7716L224.66 68.1282L240.82 36.5179L285.669 54.0688L275.909 73.1591L253.557 64.254L260.842 49.361L258.167 48.0512L250.78 63.1483L239.038 58.4703L237.937 61.2345L249.47 65.8317L241.543 82.0345L220.819 74.2563C220.671 74.201 220.517 74.1712 220.36 74.1627L219.229 74.116C218.634 74.0904 218.098 74.4136 217.834 74.9367L205.858 98.7986C205.671 99.1558 205.646 99.5939 205.799 99.9851Z" fill="var(--b-Illustration-border)"/>
<path d="M265.166 120.322L262.351 121.283L266.672 133.964L242.895 147.522L234.666 144.66L239.51 130.503L236.695 129.537L231.375 145.094C231.111 145.868 231.519 146.714 232.293 146.982L242.559 150.554C242.716 150.609 242.882 150.635 243.048 150.635C243.303 150.635 243.558 150.567 243.784 150.439L269.215 135.937C269.836 135.585 270.117 134.84 269.887 134.164L265.166 120.322Z" fill="var(--b-Illustration-border)"/>
<path d="M250.318 123.577L244.932 139.021L247.743 140.001L253.129 124.558L250.318 123.577Z" fill="var(--b-Illustration-border)"/>
<path d="M169.685 106.156C169.685 110.847 173.5 114.665 178.19 114.665H183.374C188.065 114.665 191.88 110.851 191.88 106.156C191.88 100.806 186.9 96.4512 180.78 96.4512C174.661 96.4554 169.685 100.806 169.685 106.156ZM180.78 99.4323C185.258 99.4323 188.903 102.452 188.903 106.16C188.903 109.209 186.424 111.693 183.374 111.693H178.19C175.141 111.693 172.662 109.214 172.662 106.16C172.662 102.447 176.302 99.4323 180.78 99.4323Z" fill="var(--b-Illustration-border)"/>
<path d="M147.375 126.058C147.375 130.749 151.19 134.568 155.881 134.568H161.065C165.756 134.568 169.57 130.753 169.57 126.058C169.57 120.709 164.59 116.354 158.471 116.354C152.355 116.354 147.375 120.709 147.375 126.058ZM158.475 119.331C162.953 119.331 166.598 122.35 166.598 126.058C166.598 129.108 164.118 131.591 161.069 131.591H155.885C152.836 131.591 150.357 129.112 150.357 126.058C150.352 122.35 153.997 119.331 158.475 119.331Z" fill="var(--b-Illustration-border)"/>
<path d="M115.757 126.058C115.757 130.749 119.571 134.568 124.262 134.568H129.446C134.137 134.568 137.951 130.753 137.951 126.058C137.951 120.709 132.971 116.354 126.852 116.354C120.736 116.354 115.757 120.709 115.757 126.058ZM134.979 126.058C134.979 129.108 132.499 131.591 129.45 131.591H124.266C121.217 131.591 118.738 129.112 118.738 126.058C118.738 122.35 122.382 119.331 126.86 119.331C131.338 119.331 134.979 122.35 134.979 126.058Z" fill="var(--b-Illustration-border)"/>
<path d="M103.5 135.185C97.3806 135.185 92.4007 139.539 92.4007 144.889C92.4007 149.58 96.2154 153.399 100.906 153.399H106.09C110.781 153.399 114.596 149.584 114.596 144.889C114.6 139.539 109.62 135.185 103.5 135.185ZM106.09 150.418H100.906C97.8569 150.418 95.3776 147.939 95.3776 144.885C95.3776 141.177 99.0221 138.157 103.5 138.157C107.978 138.157 111.623 141.177 111.623 144.885C111.623 147.939 109.139 150.418 106.09 150.418Z" fill="var(--b-Illustration-border)"/>
<path d="M36.2098 196.122C36.2098 202.662 41.5299 207.982 48.0706 207.982H55.7297C62.2703 207.982 67.5905 202.662 67.5905 196.122C67.5905 188.607 60.5522 182.496 51.898 182.496C43.248 182.496 36.2098 188.607 36.2098 196.122ZM64.6136 196.122C64.6136 201.021 60.6288 205.005 55.7297 205.005H48.0706C43.1715 205.005 39.1867 201.021 39.1867 196.122C39.1867 190.249 44.8896 185.473 51.898 185.473C58.9064 185.473 64.6136 190.249 64.6136 196.122Z" fill="var(--b-Illustration-border)"/>
<path d="M88.1352 207.136H95.7943C102.335 207.136 107.655 201.816 107.655 195.275C107.655 187.761 100.617 181.65 91.9626 181.65C83.3127 181.65 76.2744 187.765 76.2744 195.275C76.2744 201.816 81.5946 207.136 88.1352 207.136ZM91.9669 184.627C98.9753 184.627 104.682 189.402 104.682 195.275C104.682 200.174 100.698 204.159 95.7986 204.159H88.1395C83.2404 204.159 79.2556 200.174 79.2556 195.275C79.2513 189.402 84.9542 184.627 91.9669 184.627Z" fill="var(--b-Illustration-border)"/>
<path d="M113.873 233.558H121.532C128.072 233.558 133.392 228.238 133.392 221.697C133.392 214.183 126.354 208.072 117.7 208.072C109.05 208.072 102.012 214.187 102.012 221.697C102.012 228.238 107.332 233.558 113.873 233.558ZM117.7 211.049C124.708 211.049 130.416 215.824 130.416 221.697C130.416 226.596 126.431 230.581 121.532 230.581H113.873C108.973 230.581 104.989 226.596 104.989 221.697C104.989 215.824 110.692 211.049 117.7 211.049Z" fill="var(--b-Illustration-border)"/>
<path d="M156.37 201.829C147.72 201.829 140.682 207.944 140.682 215.454C140.682 221.995 146.002 227.315 152.542 227.315H160.201C166.742 227.315 172.062 221.995 172.062 215.454C172.062 207.944 165.024 201.829 156.37 201.829ZM160.201 224.342H152.542C147.643 224.342 143.658 220.358 143.658 215.458C143.658 209.586 149.361 204.81 156.37 204.81C163.378 204.81 169.085 209.586 169.085 215.458C169.085 220.353 165.096 224.342 160.201 224.342Z" fill="var(--b-Illustration-border)"/>
<path d="M163.744 245.776C163.744 252.317 169.064 257.637 175.605 257.637H183.264C189.804 257.637 195.125 252.317 195.125 245.776C195.125 238.262 188.086 232.15 179.436 232.15C170.782 232.15 163.744 238.262 163.744 245.776ZM179.432 235.127C186.441 235.127 192.143 239.903 192.143 245.776C192.143 250.675 188.159 254.66 183.26 254.66H175.6C170.701 254.66 166.717 250.675 166.717 245.776C166.721 239.903 172.424 235.127 179.432 235.127Z" fill="var(--b-Illustration-border)"/>
<path d="M45.5062 192.949C44.2432 193.034 43.2906 194.127 43.3756 195.39C43.4607 196.653 44.5536 197.606 45.8167 197.521C47.0797 197.436 48.0323 196.343 47.9473 195.08C47.8665 193.821 46.7693 192.864 45.5062 192.949Z" fill="var(--b-Illustration-border)"/>
<path d="M49.6143 189.704C49.6994 190.967 50.7923 191.92 52.0596 191.835C53.3227 191.75 54.2753 190.657 54.1902 189.394C54.1052 188.131 53.0122 187.178 51.7492 187.263C50.4861 187.348 49.525 188.441 49.6143 189.704Z" fill="var(--b-Illustration-border)"/>
<path d="M58.0857 197.525C59.3488 197.44 60.3014 196.347 60.2163 195.084C60.1312 193.821 59.0383 192.868 57.7753 192.953C56.5122 193.038 55.5596 194.131 55.6447 195.394C55.7297 196.657 56.8227 197.61 58.0857 197.525Z" fill="var(--b-Illustration-border)"/>
<path d="M85.9876 197.776C87.2507 197.691 88.2033 196.598 88.1182 195.335C88.0332 194.072 86.9403 193.119 85.6772 193.204C84.4142 193.289 83.4615 194.382 83.5466 195.645C83.6317 196.908 84.7246 197.861 85.9876 197.776Z" fill="var(--b-Illustration-border)"/>
<path d="M92.2264 192.086C93.4894 192.001 94.442 190.908 94.357 189.645C94.2719 188.382 93.179 187.429 91.9159 187.514C90.6529 187.599 89.7003 188.692 89.7853 189.955C89.8661 191.214 90.9633 192.171 92.2264 192.086Z" fill="var(--b-Illustration-border)"/>
<path d="M98.2567 197.776C99.5198 197.691 100.472 196.598 100.387 195.335C100.302 194.072 99.2093 193.119 97.9463 193.204C96.6832 193.289 95.7306 194.382 95.8157 195.645C95.8965 196.908 96.9894 197.861 98.2567 197.776Z" fill="var(--b-Illustration-border)"/>
<path d="M111.725 222.709C112.988 222.624 113.941 221.531 113.856 220.268C113.771 219.005 112.678 218.053 111.415 218.138C110.151 218.223 109.199 219.316 109.284 220.579C109.365 221.838 110.458 222.794 111.725 222.709Z" fill="var(--b-Illustration-border)"/>
<path d="M117.959 217.015C119.222 216.93 120.175 215.837 120.09 214.574C120.005 213.311 118.912 212.358 117.645 212.444C116.382 212.529 115.429 213.622 115.514 214.885C115.603 216.148 116.696 217.1 117.959 217.015Z" fill="var(--b-Illustration-border)"/>
<path d="M123.99 222.709C125.253 222.624 126.205 221.531 126.12 220.268C126.035 219.005 124.942 218.053 123.679 218.138C122.416 218.223 121.464 219.316 121.549 220.579C121.634 221.838 122.727 222.794 123.99 222.709Z" fill="var(--b-Illustration-border)"/>
<path d="M148.711 212.346C147.448 212.431 146.495 213.524 146.58 214.787C146.665 216.05 147.758 217.002 149.021 216.917C150.284 216.832 151.237 215.739 151.152 214.476C151.067 213.213 149.974 212.261 148.711 212.346Z" fill="var(--b-Illustration-border)"/>
<path d="M154.945 206.651C153.682 206.736 152.729 207.829 152.814 209.092C152.9 210.355 153.992 211.308 155.255 211.223C156.519 211.138 157.471 210.045 157.386 208.782C157.305 207.523 156.208 206.566 154.945 206.651Z" fill="var(--b-Illustration-border)"/>
<path d="M160.975 212.346C159.712 212.431 158.76 213.524 158.845 214.787C158.93 216.05 160.023 217.002 161.286 216.917C162.549 216.832 163.502 215.739 163.416 214.476C163.336 213.213 162.239 212.261 160.975 212.346Z" fill="var(--b-Illustration-border)"/>
<path d="M172.462 245.853C173.725 245.768 174.678 244.675 174.593 243.412C174.508 242.149 173.415 241.196 172.152 241.281C170.889 241.366 169.936 242.459 170.021 243.722C170.106 244.985 171.199 245.938 172.462 245.853Z" fill="var(--b-Illustration-border)"/>
<path d="M179.849 242.157C181.112 242.072 182.065 240.979 181.979 239.716C181.894 238.453 180.801 237.5 179.538 237.585C178.275 237.67 177.323 238.763 177.408 240.026C177.489 241.289 178.586 242.246 179.849 242.157Z" fill="var(--b-Illustration-border)"/>
<path d="M187.019 245.853C188.282 245.768 189.235 244.675 189.15 243.412C189.065 242.149 187.972 241.196 186.709 241.281C185.445 241.366 184.493 242.459 184.578 243.722C184.663 244.985 185.756 245.938 187.019 245.853Z" fill="var(--b-Illustration-border)"/>
<path d="M227.671 232.15C219.021 232.15 211.982 238.266 211.982 245.776C211.982 252.317 217.302 257.637 223.843 257.637H231.502C238.043 257.637 243.363 252.317 243.363 245.776C243.363 238.262 236.325 232.15 227.671 232.15ZM231.502 254.66H223.843C218.944 254.66 214.959 250.675 214.959 245.776C214.959 239.903 220.662 235.127 227.671 235.127C234.679 235.127 240.386 239.903 240.386 245.776C240.386 250.675 236.401 254.66 231.502 254.66Z" fill="var(--b-Illustration-border)"/>
<path d="M220.39 241.277C219.127 241.362 218.174 242.455 218.259 243.718C218.344 244.981 219.437 245.933 220.7 245.848C221.963 245.763 222.916 244.67 222.831 243.407C222.746 242.144 221.653 241.192 220.39 241.277Z" fill="var(--b-Illustration-border)"/>
<path d="M227.777 237.585C226.514 237.67 225.561 238.763 225.646 240.026C225.731 241.289 226.824 242.242 228.087 242.157C229.35 242.072 230.303 240.979 230.218 239.716C230.133 238.453 229.04 237.5 227.777 237.585Z" fill="var(--b-Illustration-border)"/>
<path d="M234.947 241.277C233.684 241.362 232.731 242.455 232.816 243.718C232.901 244.981 233.994 245.933 235.257 245.848C236.52 245.763 237.473 244.67 237.388 243.407C237.303 242.144 236.21 241.192 234.947 241.277Z" fill="var(--b-Illustration-border)"/>
<path d="M63.1719 156.469C63.6057 156.159 64.031 156.338 64.15 156.401C64.3244 156.491 64.6136 156.703 64.6136 157.129V169.742H67.5905V157.129C67.5905 155.704 66.7952 154.411 65.5152 153.752C64.2393 153.097 62.7339 153.182 61.5516 153.969L23.6686 172.706C23.5963 172.74 23.5283 172.783 23.4645 172.83C21.2956 174.378 19.9985 176.874 19.9985 179.502V242.557H22.9754V179.506C22.9754 177.873 23.7707 176.317 25.1018 175.322L62.9635 156.593C63.0358 156.559 63.1081 156.516 63.1719 156.469Z" fill="var(--b-Illustration-border)"/>
<path d="M63.2145 135.317L8.32915 160.063C8.28663 160.08 8.24835 160.101 8.21008 160.123C0.34259 164.562 0.385116 169.997 0.431896 175.751C0.436149 176.215 0.440403 176.691 0.440403 177.176L0.665796 232.07L3.64268 232.057L3.41729 177.167C3.41729 176.678 3.41304 176.198 3.40878 175.726C3.362 170.061 3.33223 166.314 9.61772 162.746L64.4392 138.025L63.2145 135.317Z" fill="var(--b-Illustration-border)"/>
<path d="M75.8237 122.282C77.865 123.456 79.128 125.642 79.128 127.998V162.53H82.1049V127.998C82.1049 124.566 80.255 121.38 77.2738 119.684C77.2568 119.675 77.2398 119.667 77.2271 119.658L76.8741 119.475C76.8231 119.45 76.7678 119.424 76.7125 119.403L24.4596 99.6407L23.4049 102.426L75.577 122.154L75.8237 122.282Z" fill="var(--b-Illustration-border)"/>
<path d="M205.167 124.196L100.892 165.283L101.983 168.053L206.258 126.966L205.167 124.196Z" fill="var(--b-Illustration-border)"/>
<path d="M197.829 150.084L117.386 181.781L118.477 184.55L198.921 152.854L197.829 150.084Z" fill="var(--b-Illustration-border)"/>
<path d="M92.5113 126.845L111.266 118.905L110.168 116.137L91.4183 124.077L92.5113 126.845Z" fill="var(--b-Illustration-border)"/>
<path d="M164.685 95.115L128.608 109.375L129.702 112.144L165.78 97.8835L164.685 95.115Z" fill="var(--b-Illustration-border)"/>
<path d="M121.778 173.127C123.416 172.409 124.16 170.503 123.441 168.87C122.722 167.233 120.817 166.489 119.184 167.208C117.547 167.926 116.803 169.831 117.521 171.464C118.236 173.102 120.141 173.846 121.778 173.127Z" fill="var(--b-Illustration-border)"/>
<path d="M142.591 165.068C144.228 164.35 144.973 162.445 144.254 160.811C143.535 159.174 141.63 158.43 139.997 159.149C138.36 159.867 137.615 161.773 138.334 163.406C139.049 165.039 140.958 165.783 142.591 165.068Z" fill="var(--b-Illustration-border)"/>
<path d="M163.408 157.341C165.045 156.623 165.789 154.717 165.071 153.084C164.352 151.447 162.447 150.703 160.814 151.421C159.177 152.14 158.432 154.045 159.151 155.678C159.865 157.311 161.771 158.06 163.408 157.341Z" fill="var(--b-Illustration-border)"/>
<path d="M184.221 149.015C185.858 148.296 186.602 146.391 185.883 144.758C185.165 143.125 183.26 142.376 181.627 143.095C179.989 143.813 179.245 145.719 179.964 147.352C180.678 148.985 182.588 149.729 184.221 149.015Z" fill="var(--b-Illustration-border)"/>
<path d="M153.788 275.086C154.507 273.448 153.759 271.543 152.126 270.829C150.488 270.11 148.583 270.858 147.869 272.492C147.15 274.129 147.898 276.034 149.531 276.748C151.164 277.463 153.07 276.719 153.788 275.086Z" fill="var(--b-Illustration-border)"/>
<path d="M188.55 287.907C189.269 286.27 188.52 284.365 186.887 283.651C185.254 282.936 183.345 283.68 182.63 285.313C181.916 286.946 182.66 288.856 184.293 289.57C185.926 290.289 187.831 289.545 188.55 287.907Z" fill="var(--b-Illustration-border)"/>
<path d="M223.307 301.04C224.026 299.402 223.277 297.497 221.644 296.783C220.007 296.064 218.102 296.813 217.387 298.446C216.669 300.083 217.417 301.988 219.05 302.703C220.688 303.417 222.593 302.673 223.307 301.04Z" fill="var(--b-Illustration-border)"/>
<path d="M119.027 260.682C119.746 259.044 118.997 257.139 117.364 256.425C115.727 255.706 113.822 256.455 113.107 258.088C112.393 259.721 113.137 261.63 114.77 262.345C116.403 263.063 118.308 262.315 119.027 260.682Z" fill="var(--b-Illustration-border)"/>
<path d="M84.2653 248.204C84.984 246.567 84.2355 244.662 82.6025 243.947C80.9652 243.229 79.06 243.977 78.3455 245.61C77.6268 247.247 78.3753 249.153 80.0083 249.867C81.6414 250.582 83.5466 249.842 84.2653 248.204Z" fill="var(--b-Illustration-border)"/>
<path d="M49.5038 234.774C50.2225 233.137 49.474 231.232 47.8409 230.517C46.2079 229.803 44.2985 230.547 43.584 232.18C42.8653 233.818 43.6138 235.723 45.2468 236.437C46.8798 237.156 48.785 236.407 49.5038 234.774Z" fill="var(--b-Illustration-border)"/>
<path d="M237.405 188.56C226.807 188.781 186.253 189.76 178.207 189.955L177.871 186.311L177.752 185.022L177.62 183.61L177.284 179.966C185.233 178.686 225.28 172.243 235.742 170.525C247.127 168.653 265.515 170.099 265.702 170.116L265.94 167.148C265.175 167.084 247.007 165.659 235.261 167.586C223.694 169.487 175.924 177.172 175.439 177.248C174.665 177.371 174.12 178.073 174.193 178.856L174.788 185.303L175.371 191.614C175.443 192.383 176.085 192.966 176.851 192.966C176.863 192.966 176.876 192.966 176.889 192.966C177.378 192.953 225.748 191.784 237.469 191.537C249.368 191.286 266.97 186.566 267.714 186.366L266.936 183.491C266.757 183.538 248.942 188.318 237.405 188.56Z" fill="var(--b-Illustration-border)"/>
<path d="M336.386 256.408C336.153 255.978 313.009 213.485 307.434 203.177C301.774 192.707 289.535 179.209 289.016 178.639L286.813 180.642C286.936 180.778 299.328 194.442 304.814 204.593C309.854 213.919 329.255 249.544 333.103 256.612L327.728 260.031L324.641 261.996C319.869 255.511 295.837 222.833 289.53 214.315C282.666 205.044 275.547 188.024 275.479 187.854L272.732 188.998C273.03 189.709 280.06 206.519 287.14 216.088C294.115 225.508 322.778 264.492 323.067 264.883C323.356 265.279 323.807 265.492 324.266 265.492C324.538 265.492 324.815 265.415 325.066 265.258L331.615 261.09L335.876 258.381C336.54 257.956 336.761 257.097 336.386 256.408Z" fill="var(--b-Illustration-border)"/>
<path d="M287.468 138.17C293.621 129.541 317.075 96.4426 321.727 89.8722L325.1 91.9348L330.288 95.1073C326.563 102.243 307.796 138.208 302.922 147.62C297.619 157.864 285.469 171.745 285.346 171.885L287.582 173.85C288.089 173.272 300.094 159.561 305.567 148.989C310.955 138.583 333.346 95.6857 333.571 95.2519C333.933 94.5587 333.694 93.6996 333.027 93.2914L328.719 90.6547L322.093 86.6062C321.425 86.1979 320.554 86.3765 320.103 87.0144C319.822 87.4142 291.848 126.896 285.044 136.439C278.133 146.131 271.401 163.061 271.116 163.78L273.885 164.873C273.953 164.703 280.765 147.564 287.468 138.17Z" fill="var(--b-Illustration-border)"/>
<path d="M286.286 223.122L283.31 223.161L284.74 331.488L287.716 331.449L286.286 223.122Z" fill="var(--b-Illustration-border)"/>
<path d="M263.158 194.897L260.112 331.437L263.088 331.503L266.134 194.964L263.158 194.897Z" fill="var(--b-Illustration-border)"/>
</svg>
