<svg viewBox="0 0 348 321" fill="none" xmlns="http://www.w3.org/2000/svg">
<path d="M162.64 320.713C251.202 320.713 322.996 248.919 322.996 160.356C322.996 71.794 251.202 0 162.64 0C74.0775 0 2.28351 71.794 2.28351 160.356C2.28351 248.919 74.0775 320.713 162.64 320.713Z" fill="var(--b-Illustration-bg)"/>
<path d="M141.228 215.599H104.212C99.6405 215.599 95.9322 211.891 95.9322 207.319V190.04C95.9322 185.469 99.6405 181.76 104.212 181.76H141.228C145.799 181.76 149.508 185.469 149.508 190.04V207.319C149.508 211.895 145.799 215.599 141.228 215.599Z" fill="var(--b-Illustration-spot)"/>
<path d="M133.39 142.695H53.5711C46.1458 142.695 40.124 136.678 40.124 129.248V102.911C40.124 95.4859 46.1416 89.4641 53.5711 89.4641H133.39C140.815 89.4641 146.837 95.4817 146.837 102.911V129.248C146.833 136.678 140.815 142.695 133.39 142.695Z" fill="var(--b-Illustration-spot)"/>
<path d="M112.377 53.2694H57.5303C52.0826 53.2694 47.6683 48.8551 47.6683 43.4074V27.8978C47.6683 22.4501 52.0826 18.0358 57.5303 18.0358H112.377C117.825 18.0358 122.239 22.4501 122.239 27.8978V43.4074C122.239 48.8551 117.825 53.2694 112.377 53.2694Z" fill="var(--b-Illustration-spot)"/>
<path d="M262.136 184.809L261.915 184.588C258.066 180.735 258.066 174.492 261.915 170.644L272.883 159.676C276.731 155.827 282.979 155.827 286.827 159.676L287.048 159.897C290.897 163.746 290.897 169.993 287.048 173.842L276.081 184.809C272.232 188.658 265.989 188.658 262.136 184.809Z" fill="var(--b-Illustration-spot)"/>
<path d="M262.136 141.398L261.915 141.177C258.066 137.328 258.066 131.081 261.915 127.232L272.883 116.265C276.731 112.412 282.979 112.412 286.827 116.265L287.048 116.486C290.897 120.334 290.897 126.582 287.048 130.43L276.081 141.398C272.232 145.251 265.989 145.251 262.136 141.398Z" fill="var(--b-Illustration-spot)"/>
<path d="M279.321 255.332C273.873 255.332 269.459 250.918 269.459 245.47C269.459 240.022 273.873 235.608 279.321 235.608C284.769 235.608 289.183 240.022 289.183 245.47C289.183 250.918 284.769 255.332 279.321 255.332Z" fill="var(--b-Illustration-spot)"/>
<path d="M264.624 287.431C259.176 287.431 254.762 283.017 254.762 277.569C254.762 272.122 259.176 267.707 264.624 267.707C270.072 267.707 274.486 272.122 274.486 277.569C274.482 283.017 270.067 287.431 264.624 287.431Z" fill="var(--b-Illustration-spot)"/>
<path d="M175.585 29.2586H149.695C146.22 29.2586 143.405 26.4433 143.405 22.9689V16.3091C143.405 12.8347 146.22 10.0194 149.695 10.0194H175.585C179.06 10.0194 181.875 12.8347 181.875 16.3091V22.9689C181.875 26.4391 179.06 29.2586 175.585 29.2586Z" fill="var(--b-Illustration-spot)"/>
<path d="M253.439 82.2983H196.045C192.57 82.2983 189.755 79.483 189.755 76.0085V48.9869C189.755 45.5124 192.57 42.6971 196.045 42.6971H253.439C256.914 42.6971 259.729 45.5124 259.729 48.9869V76.0085C259.729 79.483 256.914 82.2983 253.439 82.2983Z" fill="var(--b-Illustration-spot)"/>
<path d="M258.428 82.2982H233.252C229.777 82.2982 226.962 79.483 226.962 76.0085V8.73084C226.962 5.25639 229.777 2.4411 233.252 2.4411H258.428C261.902 2.4411 264.717 5.25639 264.717 8.73084V76.0085C264.722 79.483 261.902 82.2982 258.428 82.2982Z" fill="var(--b-Illustration-spot)"/>
<path d="M265.466 268.902C264.224 267.835 262.642 267.316 261.009 267.439C257.641 267.695 255.106 270.646 255.357 274.014C255.481 275.647 256.233 277.136 257.475 278.203C258.598 279.168 259.997 279.683 261.46 279.683C261.617 279.683 261.775 279.679 261.932 279.666C265.3 279.411 267.835 276.459 267.584 273.091C267.456 271.454 266.708 269.965 265.466 268.902ZM261.707 276.693C260.873 276.757 260.052 276.489 259.414 275.94C258.777 275.392 258.39 274.626 258.326 273.789C258.194 272.054 259.5 270.535 261.23 270.408C261.311 270.404 261.392 270.399 261.473 270.399C262.226 270.399 262.944 270.667 263.523 271.16C264.16 271.709 264.547 272.475 264.611 273.312C264.743 275.047 263.442 276.561 261.707 276.693Z" fill="var(--b-Illustration-border)"/>
<path d="M283.319 242.221C282.077 241.153 280.495 240.635 278.862 240.758C275.494 241.013 272.959 243.965 273.21 247.333C273.453 250.548 276.149 253.001 279.317 253.001C279.47 253.001 279.628 252.997 279.785 252.984C281.418 252.861 282.906 252.108 283.974 250.867C285.041 249.625 285.56 248.043 285.437 246.41C285.309 244.772 284.561 243.284 283.319 242.221ZM281.716 248.923C281.167 249.561 280.402 249.948 279.56 250.012C277.82 250.144 276.31 248.838 276.179 247.107C276.047 245.372 277.352 243.854 279.083 243.726C279.164 243.722 279.245 243.718 279.326 243.718C280.078 243.718 280.797 243.982 281.375 244.479C282.013 245.028 282.4 245.793 282.464 246.631C282.528 247.469 282.264 248.285 281.716 248.923Z" fill="var(--b-Illustration-border)"/>
<path d="M307.313 266.215C306.071 265.147 304.489 264.628 302.856 264.752C299.488 265.007 296.953 267.958 297.204 271.326C297.327 272.959 298.08 274.448 299.322 275.515C300.445 276.481 301.844 276.995 303.307 276.995C303.464 276.995 303.621 276.991 303.779 276.978C307.147 276.723 309.681 273.772 309.43 270.404C309.307 268.766 308.554 267.282 307.313 266.215ZM303.553 274.006C302.72 274.069 301.899 273.801 301.261 273.253C300.623 272.704 300.236 271.939 300.172 271.101C300.04 269.366 301.346 267.848 303.077 267.72C303.158 267.716 303.239 267.712 303.319 267.712C304.072 267.712 304.791 267.98 305.369 268.473C306.007 269.021 306.394 269.787 306.458 270.625C306.59 272.36 305.288 273.878 303.553 274.006Z" fill="var(--b-Illustration-border)"/>
<path d="M317.026 229.063C315.784 227.996 314.206 227.477 312.569 227.6C309.201 227.855 306.666 230.807 306.917 234.175C307.04 235.808 307.793 237.296 309.035 238.364C310.158 239.329 311.557 239.844 313.02 239.844C313.177 239.844 313.334 239.839 313.492 239.827C316.86 239.571 319.395 236.62 319.144 233.252C319.02 231.615 318.268 230.13 317.026 229.063ZM313.271 236.858C312.429 236.922 311.616 236.654 310.978 236.105C310.341 235.557 309.954 234.791 309.89 233.954C309.758 232.218 311.063 230.7 312.794 230.573C312.875 230.568 312.956 230.564 313.037 230.564C313.789 230.564 314.508 230.832 315.087 231.325C315.724 231.874 316.111 232.64 316.175 233.477C316.307 235.208 315.001 236.726 313.271 236.858Z" fill="var(--b-Illustration-border)"/>
<path d="M334.194 200.191C332.952 199.124 331.37 198.605 329.737 198.729C326.369 198.984 323.834 201.935 324.085 205.303C324.209 206.936 324.961 208.425 326.203 209.492C327.326 210.457 328.725 210.972 330.188 210.972C330.345 210.972 330.503 210.968 330.66 210.955C334.028 210.7 336.563 207.749 336.312 204.38C336.188 202.747 335.436 201.259 334.194 200.191ZM330.439 207.987C329.597 208.05 328.784 207.783 328.147 207.234C327.509 206.685 327.122 205.92 327.058 205.082C326.926 203.347 328.232 201.829 329.962 201.701C330.043 201.697 330.124 201.693 330.205 201.693C330.958 201.693 331.676 201.961 332.255 202.454C332.893 203.003 333.28 203.768 333.343 204.606C333.475 206.337 332.17 207.855 330.439 207.987Z" fill="var(--b-Illustration-border)"/>
<path d="M123.992 136.682H121.015V162.198H123.992V136.682Z" fill="var(--b-Illustration-border)"/>
<path d="M64.4539 145.187H61.477V162.198H64.4539V145.187Z" fill="var(--b-Illustration-border)"/>
<path d="M157.579 93.1043L142.614 78.1391C146.612 76.8335 149.508 73.0699 149.508 68.6385H146.531C146.531 72.5085 143.384 75.6555 139.514 75.6555H131.009C127.139 75.6555 123.992 72.5085 123.992 68.6385H121.015C121.015 73.0656 123.911 76.8292 127.908 78.1391L125.187 80.8608C123.06 82.9871 120.228 84.1609 117.217 84.1609H50.2074C42.3527 84.1609 35.9609 90.5527 35.9609 98.4074V128.176C35.9609 132.046 32.8139 135.193 28.9439 135.193V138.17C34.4554 138.17 38.9377 133.688 38.9377 128.176V104.149H45.9547C51.4662 104.149 55.9485 99.6662 55.9485 94.1547V87.1378H86.9932V102.66C86.9932 108.172 91.4755 112.654 96.987 112.654H105.492C111.004 112.654 115.486 108.172 115.486 102.66V87.1378H117.217C121.023 87.1378 124.6 85.6578 127.292 82.9659L131.625 78.6324H138.897L155.011 94.7458C154.709 98.3394 151.689 101.172 148.019 101.172H139.514C134.003 101.172 129.52 105.654 129.52 111.166V115.418C129.52 121.631 124.464 126.688 118.251 126.688C110.396 126.688 104.004 133.08 104.004 140.934V162.198H106.981V140.934C106.981 134.721 112.037 129.665 118.251 129.665C126.105 129.665 132.497 123.273 132.497 115.418V111.166C132.497 107.296 135.644 104.149 139.514 104.149H148.019C153.531 104.149 158.013 99.6662 158.013 94.1547C158.013 93.7592 157.856 93.3807 157.579 93.1043ZM52.9716 94.1547C52.9716 98.0247 49.8246 101.172 45.9547 101.172H38.9377V98.4074C38.9377 92.1942 43.9942 87.1378 50.2074 87.1378H52.9716V94.1547ZM112.509 102.66C112.509 106.53 109.362 109.677 105.492 109.677H96.987C93.1171 109.677 89.9701 106.53 89.9701 102.66V87.1378H112.509V102.66Z" fill="var(--b-Illustration-border)"/>
<path d="M71.4708 109.677H62.9654C57.4539 109.677 52.9716 114.159 52.9716 119.671V136.405C47.9662 138.617 44.4662 143.626 44.4662 149.44V162.198H47.4431V149.44C47.4431 143.227 52.4995 138.17 58.7127 138.17H96.987V135.193H80.9458V119.152C80.9458 113.93 76.6974 109.677 71.4708 109.677ZM55.9485 135.465V119.671C55.9485 115.801 59.0955 112.654 62.9654 112.654H71.4708C75.0558 112.654 77.9689 115.571 77.9689 119.152V135.193H58.7127C57.7686 135.193 56.8458 135.291 55.9485 135.465Z" fill="var(--b-Illustration-border)"/>
<path d="M138.923 179.651C138.102 179.651 137.434 180.319 137.434 181.139C137.434 184.784 134.47 187.748 130.826 187.748H114.359C110.868 187.748 108.031 184.907 108.031 181.42C108.031 176.228 104.102 171.903 99.0835 171.579C96.4043 171.405 93.8485 172.319 91.8965 174.148C89.97 175.955 88.8643 178.503 88.8643 181.139C88.8643 181.96 89.532 182.628 90.3528 182.628C93.9973 182.628 96.9614 185.592 96.9614 189.237V197.334C96.9614 207.081 104.893 215.012 114.64 215.012C118.284 215.012 121.244 217.976 121.244 221.621V229.718H124.221V221.621C124.221 216.335 119.922 212.035 114.64 212.035C106.534 212.035 99.9383 205.439 99.9383 197.334V189.237C99.9383 184.508 96.4937 180.565 91.9815 179.791C92.2537 178.469 92.9214 177.27 93.9335 176.321C95.2816 175.058 97.0422 174.433 98.8922 174.552C102.35 174.777 105.059 177.793 105.059 181.42C105.059 186.553 109.235 190.725 114.363 190.725H130.83C135.559 190.725 139.501 187.28 140.275 182.768C143.273 183.393 145.531 186.056 145.531 189.237V189.896C145.531 192.907 144.009 195.752 141.36 197.695C138.902 199.494 137.439 202.386 137.439 205.431C137.439 209.075 134.474 212.035 130.83 212.035V215.012C136.116 215.012 140.416 210.713 140.416 205.431C140.416 203.334 141.428 201.34 143.12 200.098C146.544 197.589 148.508 193.868 148.508 189.9V189.241C148.508 183.951 144.209 179.651 138.923 179.651Z" fill="var(--b-Illustration-border)"/>
<path d="M116.128 221.616H113.151V229.714H116.128V221.616Z" fill="var(--b-Illustration-border)"/>
<path d="M203.024 47.4177L229.123 39.5884L255.221 47.4177V76.9867H258.198V46.3077C258.198 45.6485 257.769 45.0702 257.139 44.8831L229.552 36.6073C229.271 36.5223 228.974 36.5223 228.697 36.6073L201.11 44.8831C200.481 45.0702 200.051 45.6528 200.051 46.3077V77.4842H203.028V47.4177H203.024Z" fill="var(--b-Illustration-border)"/>
<path d="M238.887 76.9866V54.5834C238.887 53.7626 238.219 53.095 237.398 53.095H220.847C220.026 53.095 219.358 53.7626 219.358 54.5834V77.9775H222.335V56.0719H235.91V76.9866H238.887Z" fill="var(--b-Illustration-border)"/>
<path d="M248.817 26.9962C248.817 21.7313 253.099 17.4489 258.364 17.4489C263.629 17.4489 267.911 21.7313 267.911 26.9962V76.9866H270.888V26.9962C270.888 20.0898 265.27 14.472 258.364 14.472C251.458 14.472 245.84 20.0898 245.84 26.9962V37.2026H248.817V26.9962Z" fill="var(--b-Illustration-border)"/>
<path d="M236.85 30.0071C236.85 25.9288 240.167 22.6117 244.245 22.6117V19.6348C238.525 19.6348 233.873 24.2872 233.873 30.0071V35.6504H236.85V30.0071Z" fill="var(--b-Illustration-border)"/>
<path d="M183.491 51.8277V76.9866H186.468V53.3161H196.02V50.3392H184.98C184.159 50.3392 183.491 51.0027 183.491 51.8277Z" fill="var(--b-Illustration-border)"/>
<path d="M264.416 230.394C255.311 230.394 247.919 222.846 247.847 222.773C247.286 222.186 246.359 222.161 245.763 222.714C245.678 222.79 237.385 230.394 229.135 230.394C219.928 230.394 212.648 222.854 212.575 222.782C212.303 222.493 211.925 222.327 211.529 222.318C211.138 222.306 210.747 222.459 210.462 222.735C210.381 222.812 202.433 230.394 193.855 230.394C184.55 230.394 177.371 222.863 177.303 222.786C177.031 222.493 176.648 222.323 176.244 222.314C175.849 222.306 175.453 222.459 175.169 222.744C175.092 222.82 167.305 230.394 158.575 230.394V233.371C166.57 233.371 173.57 228.089 176.181 225.844C178.681 228.123 185.358 233.371 193.855 233.371C201.761 233.371 208.837 228.064 211.461 225.831C213.97 228.098 220.711 233.371 229.135 233.371C236.773 233.371 244.058 228.013 246.729 225.81C249.238 228.059 256.046 233.371 264.416 233.371V230.394Z" fill="var(--b-Illustration-border)"/>
<path d="M220.979 253.971C220.417 253.384 219.49 253.359 218.895 253.912C218.81 253.988 210.491 261.596 202.267 261.596C193.064 261.596 185.779 254.056 185.707 253.98L184.627 255.004L183.546 256.029C183.878 256.378 191.763 264.573 202.267 264.573C209.905 264.573 217.189 259.215 219.86 257.012C222.369 259.261 229.178 264.573 237.547 264.573V261.596C228.442 261.592 221.051 254.043 220.979 253.971Z" fill="var(--b-Illustration-border)"/>
<path d="M190.848 291.255C181.662 290.659 174.884 282.664 174.816 282.583C174.56 282.277 174.195 282.086 173.799 282.052C173.404 282.018 173.008 282.145 172.706 282.4C172.621 282.473 164.226 289.524 155.64 288.971L155.449 291.943C163.337 292.454 170.741 287.618 173.506 285.56C175.862 287.984 182.249 293.683 190.657 294.227C191.023 294.253 191.384 294.261 191.75 294.261C200.757 294.261 209.441 287.283 209.819 286.976L207.94 284.667C207.85 284.739 199.052 291.79 190.848 291.255Z" fill="var(--b-Illustration-border)"/>
<path d="M139.208 26.0053H183.329C183.938 26.0053 184.486 25.6353 184.712 25.0697C185.239 23.7599 185.503 22.3735 185.503 20.9573C185.503 14.859 180.54 9.90034 174.446 9.90034C173.025 9.90034 171.613 10.1768 170.303 10.7041C167.854 7.79525 164.235 6.09418 160.395 6.09418C154.653 6.09418 149.695 9.81953 148.028 15.1652C147.42 15.0291 146.799 14.961 146.165 14.961C141.462 14.961 137.638 18.7885 137.638 23.4877C137.638 23.8747 137.668 24.2659 137.736 24.7295C137.838 25.461 138.468 26.0053 139.208 26.0053ZM146.161 17.9379C146.965 17.9379 147.739 18.108 148.47 18.4398C148.891 18.6311 149.376 18.6184 149.784 18.4057C150.192 18.1888 150.477 17.7976 150.558 17.3426C151.387 12.5498 155.521 9.07106 160.395 9.07106C163.682 9.07106 166.757 10.6913 168.628 13.4046C169.062 14.034 169.899 14.2338 170.571 13.8638C171.754 13.2174 173.093 12.873 174.45 12.873C178.907 12.873 182.53 16.5005 182.53 20.9531C182.53 21.6548 182.441 22.348 182.262 23.0199H140.637C140.866 20.1834 143.256 17.9379 146.161 17.9379Z" fill="var(--b-Illustration-border)"/>
<path d="M24.3382 55.6041H125.544C126.152 55.6041 126.701 55.2341 126.926 54.6685C128.04 51.8872 128.606 48.9571 128.606 45.9547C128.606 33.0308 118.089 22.5139 105.165 22.5139C101.678 22.5139 98.2203 23.2964 95.086 24.7891C89.834 17.8742 81.6518 13.7831 72.9338 13.7831C59.98 13.7831 48.8933 22.6202 45.9121 35.0381C44.109 34.4299 42.225 34.1237 40.2943 34.1237C30.5684 34.1237 22.6584 42.0338 22.6584 51.7597C22.6584 52.5507 22.7222 53.3672 22.8625 54.3283C22.9688 55.064 23.5982 55.6041 24.3382 55.6041ZM40.2943 37.1049C42.4164 37.1049 44.4662 37.5514 46.3884 38.4317C46.8095 38.6231 47.2943 38.6103 47.7025 38.3934C48.1108 38.1766 48.3957 37.7853 48.4765 37.3303C50.5391 25.41 60.8221 16.76 72.9338 16.76C81.1074 16.76 88.758 20.7873 93.402 27.5363C93.8358 28.1657 94.6735 28.3656 95.3455 27.9998C98.3394 26.3583 101.733 25.4908 105.165 25.4908C116.447 25.4908 125.629 34.6723 125.629 45.9547C125.629 48.2384 125.255 50.4796 124.51 52.6272H25.665C25.6438 52.3253 25.631 52.0403 25.631 51.7597C25.6353 43.6795 32.2099 37.1049 40.2943 37.1049Z" fill="var(--b-Illustration-border)"/>
<path d="M21.7045 241.687L10.3489 254.839L12.6021 256.785L23.9577 243.632L21.7045 241.687Z" fill="var(--b-Illustration-border)"/>
<path d="M119.858 267.665L117.459 265.9L110.842 274.882C102.256 270.174 93.8655 264.726 85.7173 258.564L100.84 240.252C106.513 243.794 112.492 247.209 118.786 250.433L120.143 247.783C80.2144 227.324 53.0226 199.158 37.2451 179.132C20.128 157.409 12.3668 140.309 12.2903 140.139L9.57282 141.355C9.62385 141.47 13.0855 149.108 20.4385 160.633L11.2441 170.002C5.61781 159.744 2.79828 153.148 2.74299 153.021L0 154.177C0.055285 154.313 3.06194 161.352 9.06675 172.217L2.03279 179.387L4.15914 181.471L10.585 174.922C14.0594 181.059 18.3972 188.224 23.5982 195.943L9.66213 211.665L11.8905 213.639L25.3291 198.478C27.97 202.314 30.8193 206.269 33.877 210.287C36.4158 213.626 39.0057 216.883 41.6381 220.06L35.9608 226.218L38.1509 228.234L43.5646 222.357C48.9826 228.757 54.5834 234.808 60.3415 240.482L46.7924 255.906C28.5143 236.004 18.95 220.94 18.7884 220.685L16.2666 222.267C16.4282 222.527 26.1839 237.9 44.8192 258.156L23.8959 281.975L26.1328 283.94L46.852 260.35C52.2912 266.159 58.4363 272.33 65.2661 278.628L53.1034 293.355L55.3999 295.252L67.4648 280.64C76.119 288.482 85.8237 296.485 96.5617 304.213L98.3011 301.797C87.6141 294.104 77.9604 286.143 69.3615 278.343L83.8121 260.848C91.9986 267.044 100.423 272.534 109.052 277.284L102.579 286.07L104.978 287.835L111.697 278.713C120.628 283.455 129.771 287.419 139.072 290.57L140.029 287.75C131.013 284.697 122.15 280.865 113.483 276.289L119.858 267.665ZM12.7581 172.723L22.1013 163.202C25.58 168.505 29.8156 174.505 34.8466 180.897C35.1698 181.31 35.5058 181.731 35.8417 182.147L25.6438 193.651C20.464 185.932 16.173 178.792 12.7581 172.723ZM45.6059 220.166L54.4175 210.606L52.2274 208.591L43.6794 217.866C41.1789 214.842 38.7165 211.738 36.301 208.565C33.0902 204.346 30.1133 200.204 27.3704 196.198L37.7384 184.503C50.9516 200.672 70.9435 221.094 98.3138 238.653L83.3571 256.761C81.9367 255.655 80.5248 254.533 79.1214 253.389C74.133 249.314 69.2424 244.955 64.4539 240.346L73.2314 230.356L70.9945 228.391L62.319 238.27C56.5779 232.597 51.0026 226.554 45.6059 220.166ZM67.1713 276.349C60.3585 270.063 54.2389 263.91 48.8295 258.122L62.4849 242.578C67.2862 247.201 72.1938 251.568 77.1949 255.655C78.6068 256.812 80.0272 257.939 81.4561 259.053L67.1713 276.349Z" fill="var(--b-Illustration-border)"/>
<path d="M277.382 95.9954L187.113 196.692L189.329 198.679L279.599 97.9824L277.382 95.9954Z" fill="var(--b-Illustration-border)"/>
<path d="M240.087 96.282L166.727 178.139L168.944 180.126L242.304 98.2687L240.087 96.282Z" fill="var(--b-Illustration-border)"/>
<path d="M309.988 83.4762C309.988 81.6518 312.709 81.1883 312.99 81.1458C313.1 81.1415 313.211 81.1415 313.322 81.1415C319.556 81.1415 325.157 85.5345 332.65 93.0788C340.411 100.891 344.838 109.749 344.213 116.026C337.902 116.822 329.737 112.671 321.606 104.485C319.343 102.205 317.319 99.7386 315.597 97.1572L313.122 98.8115C314.955 101.554 317.098 104.17 319.497 106.585C327.623 114.763 335.687 119.11 342.597 119.11C343.711 119.11 344.796 118.995 345.846 118.769C346.425 118.642 346.875 118.187 346.99 117.604C348.44 110.238 343.758 100.04 334.768 90.9865C326.548 82.7108 320.326 77.9648 312.858 78.1774C311.897 78.2072 307.019 79.2406 307.019 83.4805V117.621H309.996V83.4762H309.988Z" fill="var(--b-Illustration-border)"/>
<path d="M312.845 124.749C311.884 124.778 307.006 125.812 307.006 130.052V202.403H309.983V130.048C309.983 128.223 312.705 127.76 312.981 127.717C319.348 127.56 325.017 131.974 332.637 139.65C340.399 147.462 344.826 156.321 344.2 162.598C337.889 163.393 329.724 159.242 321.593 151.056C319.331 148.776 317.306 146.31 315.584 143.728L313.109 145.383C314.942 148.126 317.085 150.741 319.484 153.157C328.921 162.653 338.281 166.978 345.834 165.336C346.412 165.209 346.863 164.754 346.978 164.171C348.428 156.805 343.745 146.608 334.755 137.554C326.535 129.278 320.313 124.532 312.845 124.749Z" fill="var(--b-Illustration-border)"/>
<path d="M272.313 124.128C263.323 133.178 258.636 143.38 260.091 150.745C260.205 151.328 260.656 151.787 261.235 151.911C262.285 152.14 263.369 152.251 264.484 152.251C271.39 152.251 279.457 147.909 287.584 139.727C289.983 137.311 292.126 134.696 293.959 131.953L291.484 130.303C289.757 132.888 287.737 135.355 285.475 137.63C277.344 145.817 269.179 149.967 262.868 149.172C262.238 142.895 266.67 134.037 274.431 126.224C281.924 118.684 287.525 114.287 293.759 114.287C293.87 114.287 293.98 114.287 294.091 114.291C294.367 114.334 297.089 114.793 297.089 116.622V150.762H300.066V116.622C300.066 112.378 295.188 111.348 294.227 111.319C286.764 111.106 280.533 115.852 272.313 124.128Z" fill="var(--b-Illustration-border)"/>
<path d="M300.062 202.403V159.71C300.062 155.47 295.184 154.437 294.223 154.407C286.764 154.19 280.533 158.94 272.313 167.216C263.323 176.266 258.636 186.468 260.091 193.834C260.205 194.416 260.656 194.876 261.235 194.999C268.792 196.64 278.148 192.315 287.584 182.819C289.983 180.404 292.126 177.788 293.959 175.045L291.484 173.391C289.757 175.977 287.737 178.443 285.475 180.718C277.344 188.905 269.179 193.055 262.868 192.26C262.238 185.983 266.67 177.125 274.431 169.313C282.056 161.636 287.716 157.222 294.087 157.38C294.363 157.422 297.085 157.881 297.085 159.71V202.403H300.062Z" fill="var(--b-Illustration-border)"/>
<path d="M209.718 90.5847L155.809 150.721L158.025 152.708L211.935 92.5718L209.718 90.5847Z" fill="var(--b-Illustration-border)"/>
<path d="M177.431 90.5868L165.957 103.386L168.173 105.373L179.647 92.5738L177.431 90.5868Z" fill="var(--b-Illustration-border)"/>
<path d="M243.665 172.239L224.033 194.138L226.249 196.126L245.882 174.226L243.665 172.239Z" fill="var(--b-Illustration-border)"/>
</svg>
