<svg viewBox="0 0 358 321" fill="none" xmlns="http://www.w3.org/2000/svg">
<path d="M177.076 320.713C265.638 320.713 337.432 248.919 337.432 160.356C337.432 71.794 265.638 0 177.076 0C88.5133 0 16.7192 71.794 16.7192 160.356C16.7192 248.919 88.5133 320.713 177.076 320.713Z" fill="var(--b-Illustration-bg)"/>
<path d="M39.5304 236.378H32.1222C30.0341 236.378 28.3373 234.685 28.3373 232.593V218.797C28.3373 216.709 30.0299 215.012 32.1222 215.012H39.5304C41.6185 215.012 43.3153 216.705 43.3153 218.797V232.593C43.311 234.681 41.6185 236.378 39.5304 236.378Z" fill="var(--b-Illustration-spot)"/>
<path d="M77.1029 236.378H69.6947C67.6066 236.378 65.9098 234.685 65.9098 232.593V218.797C65.9098 216.709 67.6024 215.012 69.6947 215.012H77.1029C79.191 215.012 80.8878 216.705 80.8878 218.797V232.593C80.8878 234.681 79.191 236.378 77.1029 236.378Z" fill="var(--b-Illustration-spot)"/>
<path d="M276.465 236.212H255.346C252.399 236.212 250.005 233.822 250.005 230.87V193.74C250.005 190.793 252.395 188.399 255.346 188.399H276.465C279.412 188.399 281.807 190.789 281.807 193.74V230.87C281.802 233.822 279.412 236.212 276.465 236.212Z" fill="var(--b-Illustration-spot)"/>
<path d="M332.09 236.212H310.972C308.024 236.212 305.63 233.822 305.63 230.87V193.74C305.63 190.793 308.02 188.399 310.972 188.399H332.09C335.038 188.399 337.432 190.789 337.432 193.74V230.87C337.432 233.822 335.038 236.212 332.09 236.212Z" fill="var(--b-Illustration-spot)"/>
<path d="M58.3147 207.663H50.9065C48.8184 207.663 47.1216 205.971 47.1216 203.879V190.083C47.1216 187.995 48.8142 186.298 50.9065 186.298H58.3147C60.4028 186.298 62.0996 187.99 62.0996 190.083V203.879C62.0953 205.967 60.4028 207.663 58.3147 207.663Z" fill="var(--b-Illustration-spot)"/>
<path d="M26.3769 151.175H34.0828C36.1709 151.175 37.8677 149.482 37.8677 147.39V119.701C37.8677 117.613 36.1752 115.916 34.0828 115.916H26.3769C24.2889 115.916 22.592 117.608 22.592 119.701V147.39C22.5963 149.482 24.2889 151.175 26.3769 151.175Z" fill="var(--b-Illustration-spot)"/>
<path d="M123.853 151.175H131.559C133.647 151.175 135.344 149.482 135.344 147.39V119.701C135.344 117.613 133.651 115.916 131.559 115.916H123.853C121.765 115.916 120.068 117.608 120.068 119.701V147.39C120.072 149.482 121.765 151.175 123.853 151.175Z" fill="var(--b-Illustration-spot)"/>
<path d="M163.977 151.175H171.683C173.771 151.175 175.468 149.482 175.468 147.39V119.701C175.468 117.613 173.775 115.916 171.683 115.916H163.977C161.889 115.916 160.192 117.608 160.192 119.701V147.39C160.197 149.482 161.889 151.175 163.977 151.175Z" fill="var(--b-Illustration-spot)"/>
<path d="M204.756 151.175H212.462C214.55 151.175 216.247 149.482 216.247 147.39V119.701C216.247 117.613 214.555 115.916 212.462 115.916H204.756C202.668 115.916 200.971 117.608 200.971 119.701V147.39C200.976 149.482 202.668 151.175 204.756 151.175Z" fill="var(--b-Illustration-spot)"/>
<path d="M244.519 151.175H252.225C254.313 151.175 256.01 149.482 256.01 147.39V119.701C256.01 117.613 254.317 115.916 252.225 115.916H244.519C242.431 115.916 240.734 117.608 240.734 119.701V147.39C240.734 149.482 242.431 151.175 244.519 151.175Z" fill="var(--b-Illustration-spot)"/>
<path d="M284.103 151.175H291.809C293.897 151.175 295.594 149.482 295.594 147.39V119.701C295.594 117.613 293.901 115.916 291.809 115.916H284.103C282.015 115.916 280.318 117.608 280.318 119.701V147.39C280.318 149.482 282.011 151.175 284.103 151.175Z" fill="var(--b-Illustration-spot)"/>
<path d="M80.4498 79.8316H95.8021C97.8901 79.8316 99.5869 78.139 99.5869 76.0467V52.6186C99.5869 50.5305 97.8944 48.8337 95.8021 48.8337H80.4498C78.3617 48.8337 76.6649 50.5262 76.6649 52.6186V76.0467C76.6649 78.139 78.3575 79.8316 80.4498 79.8316Z" fill="var(--b-Illustration-spot)"/>
<path d="M124.1 79.8316H139.452C141.54 79.8316 143.237 78.139 143.237 76.0467V52.6186C143.237 50.5305 141.544 48.8337 139.452 48.8337H124.1C122.012 48.8337 120.315 50.5262 120.315 52.6186V76.0467C120.319 78.139 122.012 79.8316 124.1 79.8316Z" fill="var(--b-Illustration-spot)"/>
<path d="M170.148 79.8316H185.5C187.588 79.8316 189.285 78.139 189.285 76.0467V52.6186C189.285 50.5305 187.592 48.8337 185.5 48.8337H170.148C168.06 48.8337 166.363 50.5262 166.363 52.6186V76.0467C166.367 78.139 168.06 79.8316 170.148 79.8316Z" fill="var(--b-Illustration-spot)"/>
<path d="M212.135 79.8316H227.487C229.575 79.8316 231.272 78.139 231.272 76.0467V52.6186C231.272 50.5305 229.579 48.8337 227.487 48.8337H212.135C210.046 48.8337 208.35 50.5262 208.35 52.6186V76.0467C208.354 78.139 210.046 79.8316 212.135 79.8316Z" fill="var(--b-Illustration-spot)"/>
<path d="M256.401 79.8316H271.753C273.841 79.8316 275.538 78.139 275.538 76.0467V52.6186C275.538 50.5305 273.846 48.8337 271.753 48.8337H256.401C254.313 48.8337 252.616 50.5262 252.616 52.6186V76.0467C252.616 78.139 254.309 79.8316 256.401 79.8316Z" fill="var(--b-Illustration-spot)"/>
<path d="M115.411 239.805L99.0512 177.082L96.1721 177.835L112.532 240.558C114.608 248.519 121.807 254.082 130.036 254.082H217.417V251.105H130.036C123.16 251.101 117.146 246.457 115.411 239.805Z" fill="var(--b-Illustration-border)"/>
<path d="M233.611 166.489C233.33 166.136 232.901 165.927 232.446 165.927H100.102C99.9529 165.923 96.4401 165.791 94.9092 161.211L91.826 149.389C89.7507 141.428 82.5508 135.865 74.3219 135.865H57.0857V138.842H74.3219C81.1942 138.842 87.2075 143.486 88.9426 150.141L92.0386 162.011C92.0471 162.04 92.0556 162.07 92.0641 162.1C94.2798 168.828 99.8466 168.909 100.08 168.909H230.566L223.6 199.086L219.658 216.173L216.222 231.066H120.072V234.043H217.417C218.11 234.043 218.709 233.567 218.867 232.89L222.571 216.845L226.513 199.758L233.896 167.756C233.998 167.31 233.892 166.846 233.611 166.489Z" fill="var(--b-Illustration-border)"/>
<path d="M111.72 185.498H123.053L124.942 198.388L113.8 198.448L113.817 201.425L125.38 201.365L127.383 215.016H115.888V217.993H127.816L128.833 224.921L131.78 224.487L130.827 217.993H152.635L153.001 224.33L155.974 224.16L155.621 217.993H175.676L175.476 223.518L178.453 223.624L178.657 217.989H199.47L198.377 224.453L201.312 224.951L202.485 217.989H212.062V215.012H202.991L205.364 200.948L214.571 200.902L214.554 197.925L205.87 197.972L207.976 185.498H221.01V182.522H208.477L209.757 174.952L206.823 174.454L205.462 182.522H179.95L180.197 175.679L177.22 175.573L176.969 182.522H153.584L153.128 174.616L150.156 174.786L150.602 182.517H125.635L124.457 174.484L121.51 174.918L122.624 182.522H111.728V185.498H111.72ZM130.389 215.016L128.386 201.352L151.67 201.233L152.465 215.016H130.389ZM155.442 215.016L154.647 201.216L176.28 201.106L175.774 215.016H155.442ZM199.963 215.016H178.755L179.261 201.089L202.332 200.97L199.963 215.016ZM204.948 185.498L202.838 197.989L179.372 198.112L179.831 185.503H204.948V185.498ZM176.85 185.498L176.391 198.125L154.477 198.24L153.741 185.498H176.85V185.498ZM150.76 185.498L151.495 198.252L127.948 198.376L126.06 185.498H150.76Z" fill="var(--b-Illustration-border)"/>
<path d="M135.191 263.182C127.634 263.182 121.484 269.332 121.484 276.889C121.484 284.446 127.634 290.595 135.191 290.595C142.748 290.595 148.897 284.446 148.897 276.889C148.897 269.332 142.748 263.182 135.191 263.182ZM135.191 287.618C129.275 287.618 124.461 282.804 124.461 276.889C124.461 270.973 129.275 266.159 135.191 266.159C141.106 266.159 145.92 270.973 145.92 276.889C145.92 282.804 141.106 287.618 135.191 287.618Z" fill="var(--b-Illustration-border)"/>
<path d="M199.836 263.182C192.279 263.182 186.129 269.332 186.129 276.889C186.129 284.446 192.279 290.595 199.836 290.595C207.393 290.595 213.542 284.446 213.542 276.889C213.542 269.332 207.393 263.182 199.836 263.182ZM199.836 287.618C193.92 287.618 189.106 282.804 189.106 276.889C189.106 270.973 193.92 266.159 199.836 266.159C205.751 266.159 210.565 270.973 210.565 276.889C210.565 282.804 205.751 287.618 199.836 287.618Z" fill="var(--b-Illustration-border)"/>
<path d="M320.613 90.6378H48.1465V93.6147H320.613V90.6378Z" fill="var(--b-Illustration-border)"/>
<path d="M317.823 165.494H245.782V168.471H317.823V165.494Z" fill="var(--b-Illustration-border)"/>
<path d="M71.4768 168.079H0.171875V171.056H71.4768V168.079Z" fill="var(--b-Illustration-border)"/>
<path d="M357.687 246.724H227.261V249.701H357.687V246.724Z" fill="var(--b-Illustration-border)"/>
<path d="M101.084 246.724H6.13416V249.701H101.084V246.724Z" fill="var(--b-Illustration-border)"/>
<path d="M286.196 236.212V184.422C286.196 183.602 285.528 182.934 284.707 182.934H244.6C243.779 182.934 243.112 183.602 243.112 184.422V236.212H246.088V228.961L246.475 229.841L283.219 213.634V236.216H286.196V236.212ZM283.219 185.911V193.965L282.828 193.081L246.088 209.288V185.911H283.219V185.911ZM282.828 210.551L246.088 226.758V211.491L246.475 212.371L283.219 196.164V211.44L282.828 210.551Z" fill="var(--b-Illustration-border)"/>
<path d="M296.921 184.167V235.957H299.898V229.208L337.028 213.366V235.957H340.005V184.167C340.005 183.347 339.337 182.679 338.516 182.679H298.409C297.588 182.679 296.921 183.347 296.921 184.167ZM336.654 210.287L299.898 225.971V211.738L337.028 195.896V211.168L336.654 210.287ZM337.028 185.656V193.698L336.654 192.822L299.898 208.506V185.66H337.028V185.656Z" fill="var(--b-Illustration-border)"/>
<path d="M71.0559 56.0931H98.0988V80.6482H101.076V44.866C101.076 44.0452 100.408 43.3776 99.5872 43.3776H69.5674C68.7467 43.3776 68.079 44.0452 68.079 44.866V80.6482H71.0559V56.0931ZM98.0988 46.3545V53.1162H71.0559V46.3545H98.0988Z" fill="var(--b-Illustration-border)"/>
<path d="M115.462 56.0931H142.505V80.6482H145.482V44.866C145.482 44.0452 144.815 43.3776 143.994 43.3776H113.974C113.153 43.3776 112.486 44.0452 112.486 44.866V80.6482H115.462V56.0931ZM142.505 46.3545V53.1162H115.462V46.3545H142.505Z" fill="var(--b-Illustration-border)"/>
<path d="M159.355 56.0931H186.398V80.6482H189.374V44.866C189.374 44.0452 188.707 43.3776 187.886 43.3776H157.866C157.045 43.3776 156.378 44.0452 156.378 44.866V80.6482H159.355V56.0931V56.0931ZM186.398 46.3545V53.1162H159.355V46.3545H186.398Z" fill="var(--b-Illustration-border)"/>
<path d="M203.953 56.0931H230.996V80.6482H233.972V44.866C233.972 44.0452 233.305 43.3776 232.484 43.3776H202.464C201.644 43.3776 200.976 44.0452 200.976 44.866V80.6482H203.953V56.0931ZM230.996 46.3545V53.1162H203.953V46.3545H230.996Z" fill="var(--b-Illustration-border)"/>
<path d="M248.359 56.0931H275.402V80.6482H278.379V44.866C278.379 44.0452 277.711 43.3776 276.891 43.3776H246.871C246.05 43.3776 245.382 44.0452 245.382 44.866V80.6482H248.359V56.0931ZM275.402 46.3545V53.1162H248.359V46.3545H275.402Z" fill="var(--b-Illustration-border)"/>
<path d="M84.707 236.212V210.751C84.707 209.93 84.0393 209.262 83.2185 209.262H67.1731V183.206C67.1731 182.385 66.5054 181.718 65.6847 181.718H40.632C39.8113 181.718 39.1436 182.385 39.1436 183.206V209.262H23.0939C22.2731 209.262 21.6055 209.93 21.6055 210.751V236.212H24.5824V212.239H40.632H46.6581V236.212H49.635V212.239H56.6775V236.212H59.6543V212.239H65.6804H81.7258V236.212H84.707ZM58.1659 209.267H48.1465H42.1205V184.699H64.1962V209.267H58.1659Z" fill="var(--b-Illustration-border)"/>
<path d="M20.7931 145.145H39.6708V155.258H42.6477V117.226C42.6477 116.66 42.3287 116.145 41.8269 115.895L30.9017 110.43C30.4807 110.221 29.9917 110.221 29.5707 110.43L18.6455 115.895C18.1394 116.145 17.8247 116.66 17.8247 117.226V155.258H20.8016V145.145H20.7931ZM20.7931 142.168V129.376H39.6708V142.168H20.7931ZM30.2298 113.428L39.6666 118.148V126.403H20.7888V118.148L30.2298 113.428Z" fill="var(--b-Illustration-border)"/>
<path d="M35.0313 134.419H25.4373V137.396H35.0313V134.419Z" fill="var(--b-Illustration-border)"/>
<path d="M139.052 151.107V117.23C139.052 116.664 138.733 116.15 138.231 115.899L127.306 110.434C126.885 110.226 126.396 110.226 125.975 110.434L115.05 115.899C114.544 116.15 114.229 116.664 114.229 117.23V151.107H117.206V145.145H136.084V151.103H139.052V151.107ZM126.639 113.428L136.075 118.148V126.403H117.198V118.148L126.639 113.428ZM117.202 142.168V129.376H136.08V142.168H117.202Z" fill="var(--b-Illustration-border)"/>
<path d="M131.436 134.419H121.842V137.396H131.436V134.419Z" fill="var(--b-Illustration-border)"/>
<path d="M178.785 151.107V117.23C178.785 116.664 178.466 116.15 177.964 115.899L167.039 110.434C166.618 110.226 166.129 110.226 165.708 110.434L154.783 115.899C154.277 116.15 153.962 116.664 153.962 117.23V151.107H156.939V145.145H175.817V151.103H178.785V151.107ZM166.367 113.428L175.804 118.148V126.403H156.926V118.148L166.367 113.428ZM156.93 142.168V129.376H175.808V142.168H156.93Z" fill="var(--b-Illustration-border)"/>
<path d="M171.164 134.419H161.57V137.396H171.164V134.419Z" fill="var(--b-Illustration-border)"/>
<path d="M219.811 151.107V117.23C219.811 116.664 219.492 116.15 218.99 115.899L208.065 110.434C207.644 110.226 207.155 110.226 206.734 110.434L195.809 115.899C195.303 116.15 194.988 116.664 194.988 117.23V151.107H197.965V145.145H216.843V151.103H219.811V151.107ZM207.397 113.428L216.834 118.148V126.403H197.956V118.148L207.397 113.428ZM197.961 142.168V129.376H216.838V142.168H197.961Z" fill="var(--b-Illustration-border)"/>
<path d="M212.194 134.419H202.6V137.396H212.194V134.419Z" fill="var(--b-Illustration-border)"/>
<path d="M259.544 155.258V117.226C259.544 116.66 259.225 116.145 258.723 115.895L247.798 110.43C247.377 110.221 246.888 110.221 246.467 110.43L235.541 115.895C235.035 116.145 234.721 116.66 234.721 117.226V151.566H237.698V145.145H256.575V155.258H259.544ZM247.126 113.428L256.563 118.148V126.403H237.685V118.148L247.126 113.428ZM237.689 142.168V129.376H256.567V142.168H237.689Z" fill="var(--b-Illustration-border)"/>
<path d="M251.923 134.419H242.329V137.396H251.923V134.419Z" fill="var(--b-Illustration-border)"/>
<path d="M298.388 155.258V117.226C298.388 116.66 298.069 116.145 297.567 115.895L286.642 110.43C286.221 110.221 285.732 110.221 285.311 110.43L274.386 115.895C273.88 116.145 273.565 116.66 273.565 117.226V155.258H276.542V145.145H295.42V155.258H298.388ZM285.974 113.428L295.411 118.148V126.403H276.533V118.148L285.974 113.428ZM276.533 142.168V129.376H295.411V142.168H276.533Z" fill="var(--b-Illustration-border)"/>
<path d="M290.771 134.419H281.177V137.396H290.771V134.419Z" fill="var(--b-Illustration-border)"/>
</svg>
