<svg viewBox="0 0 371 321" fill="none" xmlns="http://www.w3.org/2000/svg">
<path d="M183.016 320.713C271.578 320.713 343.372 248.919 343.372 160.356C343.372 71.794 271.578 0 183.016 0C94.4533 0 22.6592 71.794 22.6592 160.356C22.6592 248.919 94.4533 320.713 183.016 320.713Z" fill="var(--b-Illustration-bg)"/>
<path d="M124.116 171.137H8.61685C4.0452 171.137 0.336853 167.429 0.336853 162.857V136.231C0.336853 131.659 4.0452 127.951 8.61685 127.951H124.116C128.687 127.951 132.396 131.659 132.396 136.231V162.857C132.4 167.429 128.692 171.137 124.116 171.137Z" fill="var(--b-Illustration-spot)"/>
<path d="M362.058 250.522H202.812C198.24 250.522 194.532 246.814 194.532 242.242V211.755C194.532 207.183 198.24 203.474 202.812 203.474H362.058C366.63 203.474 370.339 207.183 370.339 211.755V242.242C370.339 246.814 366.63 250.522 362.058 250.522Z" fill="var(--b-Illustration-spot)"/>
<path d="M352.184 103.477H228.6C224.029 103.477 220.32 99.7683 220.32 95.1966V76.7442C220.32 72.1725 224.029 68.4642 228.6 68.4642H352.184C356.755 68.4642 360.464 72.1725 360.464 76.7442V95.1924C360.464 99.7683 356.76 103.477 352.184 103.477Z" fill="var(--b-Illustration-spot)"/>
<path d="M266.411 82.9829V25.0186C266.411 20.447 270.119 16.7386 274.691 16.7386H314.615C319.187 16.7386 322.895 20.447 322.895 25.0186V82.9829C322.895 87.5545 319.187 91.2629 314.615 91.2629H274.691C270.119 91.2672 266.411 87.5588 266.411 82.9829Z" fill="var(--b-Illustration-spot)"/>
<path d="M108.623 242.353C102.516 242.353 97.5663 237.403 97.5663 231.296C97.5663 225.189 102.516 220.239 108.623 220.239C134.85 220.239 142.194 203.568 152.928 174.097C163.504 145.051 176.671 108.899 224.509 103.102C230.569 102.367 236.081 106.687 236.817 112.748C237.552 118.812 233.232 124.319 227.171 125.055C211.632 126.939 200.384 132.944 191.772 143.954C183.658 154.335 178.597 168.228 173.707 181.662C168.544 195.845 163.202 210.509 154.025 221.859C142.879 235.65 128.028 242.353 108.623 242.353Z" fill="var(--b-Illustration-spot)"/>
<path d="M241.673 289.945C231.165 294.737 220.248 298.186 209.021 300.274C223.944 292.717 237.471 277.408 247.81 255.817L245.126 254.532C231.624 282.732 212.691 299.845 192.554 302.345C191.342 302.426 190.126 302.49 188.906 302.541V252.176H185.929V302.626C185.908 302.626 185.891 302.626 185.869 302.626C174.042 302.184 162.318 296.655 151.865 286.568C141.186 276.264 131.826 261.252 124.801 243.161L122.024 244.237C129.206 262.727 138.809 278.105 149.798 288.707C156.041 294.733 162.739 299.207 169.662 302.039C138.66 299.152 109.525 286.177 86.5007 264.781C60.3594 240.486 44.4416 207.583 41.6773 172.136L38.7089 172.366C41.5285 208.561 57.7823 242.157 84.4722 266.963C111.307 291.901 146.268 305.633 182.922 305.633C183.896 305.633 184.866 305.62 185.835 305.603C186.363 305.62 186.886 305.633 187.413 305.633C189.229 305.633 191.041 305.522 192.839 305.301C210.224 304.136 227.023 299.896 242.902 292.649C261.146 284.327 277.209 272.504 290.651 257.514L288.436 255.528C275.274 270.212 259.539 281.792 241.673 289.945Z" fill="var(--b-Illustration-border)"/>
<path d="M321.756 189.368L324.673 189.964C326.599 180.489 327.578 170.737 327.578 160.986C327.578 138.663 322.627 117.255 312.867 97.3569L310.197 98.6668C319.757 118.153 324.601 139.118 324.601 160.986C324.601 170.537 323.644 180.089 321.756 189.368Z" fill="var(--b-Illustration-border)"/>
<path d="M52.8831 104.659L51.518 104.068L52.8831 104.659C73.581 56.9394 118.464 24.7592 169.539 19.9367C159.719 23.9725 150.406 31.3467 142.02 41.8253C133.629 52.3124 126.497 65.4618 120.922 80.6056H80.7043V83.5825H119.855C117.324 90.8334 115.143 98.5137 113.344 106.56L116.248 107.211C118.107 98.9092 120.373 91.012 123.01 83.5868H185.924V106.887H188.901V83.5868H200.333V80.6099H188.901V19.4306C190.126 19.4816 191.347 19.5454 192.563 19.6262C209.229 21.6973 225.151 33.7749 237.863 54.1539L240.389 52.5804C231.301 38.0106 220.567 27.5192 209.029 21.6845C222.506 24.1851 235.507 28.6462 247.882 35.0422L249.247 32.3971C231.56 23.2538 212.631 17.9804 192.852 16.6621C191.049 16.441 189.233 16.3304 187.413 16.3304C186.869 16.3304 186.328 16.3431 185.788 16.3601C184.836 16.3431 183.879 16.3304 182.922 16.3304C125.226 16.3304 73.1132 50.5391 50.1529 103.477C49.7446 104.421 49.3406 105.378 48.9536 106.322L51.7094 107.449C52.0879 106.517 52.4834 105.582 52.8831 104.659ZM185.924 80.6056H124.099C129.504 66.2018 136.338 53.6903 144.346 43.688C156.67 28.2847 170.981 19.8984 185.831 19.337C185.865 19.337 185.895 19.337 185.929 19.337V80.6056H185.924Z" fill="var(--b-Illustration-border)"/>
<path d="M116.253 214.757C113.556 202.705 111.783 190.01 110.988 177.031L108.015 177.214C108.823 190.351 110.618 203.198 113.348 215.408L116.253 214.757Z" fill="var(--b-Illustration-border)"/>
<path d="M179.635 162.47H185.924V185.826H188.901V162.47H264.323C264.285 168.904 264.017 175.356 263.511 181.671L266.479 181.909C266.989 175.517 267.262 168.985 267.3 162.47H314.539V159.493H267.3C267.189 139.582 264.901 120.334 260.479 102.265L257.587 102.971C261.954 120.811 264.212 139.816 264.323 159.489H188.901V151.026H185.924V159.489H179.635V162.47Z" fill="var(--b-Illustration-border)"/>
<path d="M174.094 238.172H79.8452V241.149H174.094V238.172Z" fill="var(--b-Illustration-border)"/>
<path d="M50.0339 157.711C50.0339 162.215 53.6997 165.876 58.1991 165.876C62.6984 165.876 66.3642 162.215 66.3642 157.711C66.3642 153.208 62.6984 149.546 58.1991 149.546C53.6997 149.546 50.0339 153.208 50.0339 157.711ZM63.3916 157.711C63.3916 160.573 61.0611 162.9 58.2033 162.9C55.3455 162.9 53.015 160.573 53.015 157.711C53.015 154.849 55.3455 152.523 58.2033 152.523C61.0611 152.523 63.3916 154.849 63.3916 157.711Z" fill="var(--b-Illustration-border)"/>
<path d="M86.3391 157.711C86.3391 153.208 82.6733 149.546 78.1739 149.546C73.6746 149.546 70.0087 153.212 70.0087 157.711C70.0087 162.211 73.6703 165.876 78.1739 165.876C82.6775 165.876 86.3391 162.215 86.3391 157.711ZM78.1697 162.9C75.3076 162.9 72.9814 160.573 72.9814 157.711C72.9814 154.849 75.3076 152.523 78.1697 152.523C81.0317 152.523 83.358 154.849 83.358 157.711C83.3622 160.573 81.0317 162.9 78.1697 162.9Z" fill="var(--b-Illustration-border)"/>
<path d="M130.988 157.711C130.988 153.208 127.322 149.546 122.823 149.546C118.324 149.546 114.658 153.212 114.658 157.711C114.658 162.211 118.319 165.876 122.823 165.876C127.327 165.876 130.988 162.215 130.988 157.711ZM122.823 162.9C119.961 162.9 117.635 160.573 117.635 157.711C117.635 154.849 119.961 152.523 122.823 152.523C125.685 152.523 128.011 154.849 128.011 157.711C128.011 160.573 125.685 162.9 122.823 162.9Z" fill="var(--b-Illustration-border)"/>
<path d="M47.1973 157.107V154.131H40.729C39.4021 154.131 38.3262 153.055 38.3262 151.728V125.059C38.3262 123.732 39.4064 122.656 40.729 122.656H101.657V119.679H40.7332C37.7648 119.679 35.3535 122.095 35.3535 125.059V151.728C35.3535 154.696 37.7691 157.107 40.7332 157.107H47.1973Z" fill="var(--b-Illustration-border)"/>
<path d="M134.748 119.679H118.443C118.277 119.679 114.343 119.709 111.664 122.393C110.078 123.983 109.274 126.118 109.278 128.738V151.728C109.278 153.055 108.202 154.131 106.875 154.131H89.1289V157.107H106.875C109.844 157.107 112.255 154.692 112.255 151.728V128.738C112.247 122.877 117.818 122.661 118.443 122.656H134.748C136.653 122.656 138.205 124.209 138.205 126.114V148.925C138.205 151.796 135.87 154.135 132.995 154.135V157.112C137.508 157.112 141.182 153.442 141.182 148.925V126.114C141.182 122.563 138.299 119.679 134.748 119.679Z" fill="var(--b-Illustration-border)"/>
<path d="M324.643 211.593H292.106V214.57H323.163L323.27 228.757L326.246 228.736L326.127 213.069C326.127 212.252 325.464 211.593 324.643 211.593Z" fill="var(--b-Illustration-border)"/>
<path d="M295.801 205.376H314.101C314.632 205.376 315.126 205.091 315.394 204.627C315.657 204.163 315.657 203.598 315.389 203.134L310.422 194.629C310.154 194.17 309.665 193.889 309.138 193.889H282.605C281.972 193.889 281.406 194.289 281.198 194.888L277.893 204.397C275.525 211.848 270.005 211.61 269.783 211.593C269.745 211.589 269.707 211.589 269.669 211.589H180.911C180.358 211.589 179.852 211.895 179.596 212.38C179.341 212.864 179.371 213.456 179.682 213.911L191.797 231.785L194.26 230.113L183.717 214.561H269.613C272.412 214.744 278.259 213.047 280.713 205.333L283.66 196.862H308.279L311.507 202.394H295.797V205.376H295.801Z" fill="var(--b-Illustration-border)"/>
<path d="M209.467 208.429V199.315C209.467 198.495 208.8 197.827 207.979 197.827H192.691C191.87 197.827 191.202 198.495 191.202 199.315V208.429H194.179V200.804H206.491V208.429H209.467Z" fill="var(--b-Illustration-border)"/>
<path d="M234.01 208.429V199.315C234.01 198.495 233.342 197.827 232.521 197.827H217.233C216.412 197.827 215.744 198.495 215.744 199.315V208.429H218.721V200.804H231.033V208.429H234.01Z" fill="var(--b-Illustration-border)"/>
<path d="M257.697 208.429V199.315C257.697 198.495 257.03 197.827 256.209 197.827H240.92C240.1 197.827 239.432 198.495 239.432 199.315V208.429H242.409V200.804H254.72V208.429H257.697Z" fill="var(--b-Illustration-border)"/>
<path d="M301.628 191.712L304.23 182.981C304.464 182.194 304.018 181.365 303.231 181.131L295.908 178.945C295.529 178.83 295.121 178.873 294.777 179.06C294.428 179.247 294.173 179.566 294.058 179.944L290.8 190.861L293.654 191.712L296.486 182.22L300.96 183.555L298.783 190.861L301.628 191.712Z" fill="var(--b-Illustration-border)"/>
<path d="M300.581 234.587C300.02 234.005 299.093 233.975 298.498 234.528C298.413 234.604 290.094 242.212 281.87 242.212C272.662 242.212 265.382 234.672 265.31 234.596C265.037 234.307 264.659 234.141 264.263 234.132C263.864 234.128 263.481 234.273 263.196 234.549C263.115 234.626 255.167 242.208 246.589 242.208C237.284 242.208 230.106 234.677 230.038 234.6C229.766 234.307 229.383 234.137 228.979 234.128C228.571 234.12 228.188 234.273 227.903 234.558C227.826 234.634 220.04 242.208 211.309 242.208V245.185C219.304 245.185 226.304 239.903 228.915 237.658C231.416 239.937 238.092 245.185 246.589 245.185C254.495 245.185 261.571 239.878 264.195 237.645C266.704 239.912 273.445 245.185 281.87 245.185C289.507 245.185 296.792 239.827 299.463 237.624C301.972 239.873 308.781 245.185 317.15 245.185V242.208C308.045 242.208 300.654 234.664 300.581 234.587Z" fill="var(--b-Illustration-border)"/>
<path d="M286.284 90.2975V65.3342C286.284 64.5134 285.616 63.8458 284.795 63.8458H229.481C228.66 63.8458 227.992 64.5134 227.992 65.3342V90.7015H230.969V66.8227H283.303V90.2975H286.284Z" fill="var(--b-Illustration-border)"/>
<path d="M266.926 90.4634V76.0127C266.926 75.192 266.258 74.5243 265.437 74.5243H253.785C252.964 74.5243 252.296 75.192 252.296 76.0127V91.1013H255.273V77.5012H263.949V90.4634H266.926Z" fill="var(--b-Illustration-border)"/>
<path d="M284.085 28.6249H295.193L296.027 90.3188L299.004 90.2805L298.153 27.1195C298.14 26.3072 297.481 25.6523 296.665 25.6523H282.639C281.831 25.6523 281.172 26.2944 281.151 27.0982L280.3 57.8877L283.277 57.9685L284.085 28.6249Z" fill="var(--b-Illustration-border)"/>
<path d="M223.956 68.3366H212.891C212.07 68.3366 211.402 69.0043 211.402 69.8251V90.2975H214.379V71.3135H223.956V68.3366Z" fill="var(--b-Illustration-border)"/>
<path d="M261.061 28.6249H272.169L272.577 58.3895L275.554 58.347L275.129 27.1109C275.116 26.2987 274.457 25.6437 273.641 25.6437H259.615C258.807 25.6437 258.148 26.2859 258.127 27.0897L257.276 57.8792L260.253 57.96L261.061 28.6249Z" fill="var(--b-Illustration-border)"/>
<path d="M107.428 228.289C108.3 228.289 112.225 228.272 113.08 228.242L112.969 225.265C112.149 225.295 108.262 225.312 107.424 225.312V228.289H107.428Z" fill="var(--b-Illustration-border)"/>
<path d="M132.791 223.824L131.533 221.127C130.121 221.787 128.632 222.373 127.114 222.875L128.045 225.703C129.678 225.163 131.273 224.534 132.791 223.824Z" fill="var(--b-Illustration-border)"/>
<path d="M117.792 224.9L118.145 227.855C119.855 227.651 121.539 227.375 123.146 227.03L122.521 224.121C120.999 224.445 119.412 224.708 117.792 224.9Z" fill="var(--b-Illustration-border)"/>
<path d="M146.26 209.309C145.239 210.581 144.172 211.789 143.083 212.899L145.209 214.982C146.366 213.804 147.501 212.52 148.586 211.172L146.26 209.309Z" fill="var(--b-Illustration-border)"/>
<path d="M135.704 218.865L137.282 221.387C138.711 220.494 140.11 219.49 141.441 218.414L139.566 216.101C138.328 217.104 137.031 218.031 135.704 218.865Z" fill="var(--b-Illustration-border)"/>
<path d="M173.12 156.78L170.377 155.627C169.76 157.099 169.143 158.613 168.493 160.263L171.261 161.356C171.899 159.723 172.507 158.23 173.12 156.78Z" fill="var(--b-Illustration-border)"/>
<path d="M182.012 139.348L179.503 137.745C178.627 139.118 177.755 140.573 176.909 142.07L179.503 143.533C180.319 142.087 181.161 140.679 182.012 139.348Z" fill="var(--b-Illustration-border)"/>
<path d="M194.528 124.723L192.601 122.452C191.33 123.532 190.079 124.689 188.884 125.893L190.994 127.993C192.133 126.845 193.32 125.748 194.528 124.723Z" fill="var(--b-Illustration-border)"/>
<path d="M185.465 129.618C184.402 130.873 183.356 132.204 182.348 133.581L184.751 135.338C185.716 134.02 186.72 132.744 187.736 131.544L185.465 129.618Z" fill="var(--b-Illustration-border)"/>
<path d="M200.864 116.605C199.41 117.455 197.977 118.374 196.603 119.348L198.321 121.776C199.622 120.857 200.979 119.981 202.361 119.178L200.864 116.605Z" fill="var(--b-Illustration-border)"/>
<path d="M210.003 112.276C208.417 112.875 206.848 113.539 205.347 114.249L206.618 116.941C208.047 116.265 209.54 115.635 211.049 115.061L210.003 112.276Z" fill="var(--b-Illustration-border)"/>
<path d="M215.63 113.534C217.148 113.092 218.726 112.688 220.325 112.335L219.687 109.426C218.024 109.792 216.378 110.213 214.792 110.676L215.63 113.534Z" fill="var(--b-Illustration-border)"/>
<path d="M161.574 178.873L164.363 179.91C164.937 178.367 165.507 176.81 166.077 175.245L163.279 174.225C162.713 175.781 162.143 177.333 161.574 178.873Z" fill="var(--b-Illustration-border)"/>
<path d="M158.001 188.071L160.753 189.207C161.352 187.757 161.956 186.238 162.603 184.567L159.826 183.495C159.188 185.145 158.592 186.642 158.001 188.071Z" fill="var(--b-Illustration-border)"/>
<path d="M177.211 147.849L174.553 146.51C173.83 147.947 173.103 149.465 172.388 151.03L175.097 152.268C175.79 150.737 176.505 149.248 177.211 147.849Z" fill="var(--b-Illustration-border)"/>
<path d="M164.976 169.572L167.77 170.597C168.335 169.053 168.905 167.505 169.488 165.962L166.702 164.915C166.12 166.463 165.546 168.02 164.976 169.572Z" fill="var(--b-Illustration-border)"/>
<path d="M149.105 205.418L151.575 207.077C152.477 205.733 153.37 204.287 154.238 202.781L151.656 201.297C150.827 202.747 149.968 204.134 149.105 205.418Z" fill="var(--b-Illustration-border)"/>
<path d="M153.961 197.006L156.619 198.342C157.334 196.921 158.057 195.394 158.771 193.804L156.058 192.583C155.365 194.136 154.654 195.624 153.961 197.006Z" fill="var(--b-Illustration-border)"/>
<path d="M225.385 111.404C226.198 111.28 230.089 110.727 230.927 110.625L230.569 107.67C229.706 107.776 225.785 108.333 224.943 108.461L225.385 111.404Z" fill="var(--b-Illustration-border)"/>
<path d="M241.069 107.364H235.383V110.498H241.069V107.364Z" fill="var(--b-Illustration-border)"/>
</svg>
