<svg viewBox="0 0 144 144" fill="none" xmlns="http://www.w3.org/2000/svg">
<path fill-rule="evenodd" clip-rule="evenodd" d="M144 72C144 95.1946 133.032 115.828 116 128.996V73.3361C116 64.4923 112.554 56.1597 106.316 49.8737C100.091 43.5998 91.7936 40.0923 82.9835 40.0182L80.812 40V52.7536L82.9364 52.7823C88.3598 52.8554 93.4419 55.0139 97.2812 58.8839C101.127 62.7607 103.234 67.8921 103.234 73.3361V136.891C93.7864 141.447 83.1914 144 72 144C32.2355 144 0 111.765 0 72C0 32.2355 32.2355 0 72 0C111.765 0 144 32.2355 144 72ZM72.0693 96.9493L72.0873 83.7832L40.9485 70.0397C40.3201 69.7612 39.9233 69.1487 39.9233 68.4671C39.9233 67.7947 40.3235 67.1748 40.9521 66.8928L40.9553 66.8914L72.0854 53.1517V40.0063L36.0378 56.0934C31.1552 58.2737 28 63.1275 28 68.4786C28 73.8297 31.1554 78.6835 36.038 80.8639L72.0693 96.9493Z" fill="var(--b-text-200)" />
</svg>
