<svg viewBox="0 0 144 144" fill="none" xmlns="http://www.w3.org/2000/svg">
<path d="M25.6902 92.1999C32.0684 118.483 55.755 138 84 138C116.131 138 142.363 112.743 143.926 81H121.883C120.354 100.584 103.977 116 84 116C68.0333 116 54.3666 106.153 48.7419 92.1999L25.6902 92.1999Z" fill="url(#paint0_linear_3704_563)"/>
<path d="M63.9678 21.4429L77.8143 40.501C79.8274 40.1714 81.8937 40 84.0001 40C103.977 40 120.354 55.4155 121.883 75H143.925C143.46 65.7041 140.837 56.6289 136.247 48.5001C131.163 39.4957 123.838 31.9581 114.983 26.6185C106.128 21.2788 96.0428 18.3184 85.7064 18.0243C78.2865 17.8132 70.9179 18.9812 63.9678 21.4429Z" fill="url(#paint1_linear_3704_563)"/>
<path d="M42.1963 42.3198L38.7963 55.9598H46.3163L42.9163 42.3198H42.1963Z" fill="url(#paint2_linear_3704_563)"/>
<path fill-rule="evenodd" clip-rule="evenodd" d="M0.0803854 76.2151C-0.449849 81.7124 4.07714 86.1998 9.59999 86.1998L83.9739 86.1999C92.1446 86.1999 96.8667 76.9322 92.0641 70.322L48.3482 10.1522C45.1019 5.68417 38.8106 4.65941 34.6749 8.31963C24.9312 16.9429 16.8693 27.3388 10.9353 38.9848C5.00137 50.6309 1.32959 63.2636 0.0803854 76.2151ZM36.0363 66.9998H30.5963L37.9563 38.9998H47.1563L54.5163 66.9998H49.0763L47.5563 60.8398H37.5563L36.0363 66.9998Z" fill="url(#paint3_linear_3704_563)"/>
<defs>
<linearGradient id="paint0_linear_3704_563" x1="67.9904" y1="78" x2="67.9904" y2="138" gradientUnits="userSpaceOnUse">
<stop stop-color="#4F5563"/>
<stop offset="1" stop-color="#646A78"/>
</linearGradient>
<linearGradient id="paint1_linear_3704_563" x1="64.0001" y1="21.5" x2="141.181" y2="78.7974" gradientUnits="userSpaceOnUse">
<stop offset="0.0140557" stop-color="#C0C6D4"/>
<stop offset="1" stop-color="#6D7381"/>
</linearGradient>
<linearGradient id="paint2_linear_3704_563" x1="92.329" y1="80.0522" x2="10.9195" y2="38.9403" gradientUnits="userSpaceOnUse">
<stop stop-color="#858B99"/>
<stop offset="1" stop-color="#A4AAB8"/>
</linearGradient>
<linearGradient id="paint3_linear_3704_563" x1="92.329" y1="80.0522" x2="10.9195" y2="38.9403" gradientUnits="userSpaceOnUse">
<stop stop-color="#858B99"/>
<stop offset="1" stop-color="#A4AAB8"/>
</linearGradient>
</defs>
</svg>
