<svg viewBox="0 0 32 32" xmlns="http://www.w3.org/2000/svg">
<path d="M9.6051 15.6812L9 18.495C10.5234 18.4735 11.9992 19.0279 13.1349 20.0483C14.1791 21.1023 14.948 22.5138 15 24H17C17.052 22.5138 17.8149 21.1023 18.8591 20.0483C19.9961 19.0261 21.4744 18.4712 23 18.494L22.3949 15.6802C21.5929 15.7636 20.8151 16.0046 20.1056 16.3895C19.3982 16.7626 18.7629 17.2598 18.2298 17.8577C17.7408 18.3912 17.2171 19.0273 17 19.719V8H15V19.719C14.7829 19.0273 14.2612 18.3922 13.7722 17.8587C13.2391 17.2608 12.6038 16.7636 11.8964 16.3905C11.1863 16.0054 10.4078 15.7644 9.6051 15.6812Z" />
</svg>
