<svg viewBox="0 0 32 32" xmlns="http://www.w3.org/2000/svg">
<path d="M15.3188 9.60461L12.505 8.99951C12.5265 10.5229 11.9721 11.9987 10.9517 13.1344C9.89771 14.1786 8.48619 14.9475 7 14.9995V16.9995C8.48619 17.0515 9.89771 17.8144 10.9517 18.8586C11.9739 19.9956 12.5288 21.4739 12.506 22.9995L15.3198 22.3944C15.2364 21.5924 14.9954 20.8146 14.6105 20.1051C14.2374 19.3977 13.7402 18.7624 13.1423 18.2293C12.6088 17.7403 11.9727 17.2166 11.281 16.9995H25V14.9995H11.281C11.9727 14.7825 12.6078 14.2607 13.1413 13.7717C13.7392 13.2386 14.2364 12.6033 14.6095 11.8959C14.9946 11.1859 15.2356 10.4073 15.3188 9.60461Z" />
</svg>
