<svg viewBox="0 0 32 32" xmlns="http://www.w3.org/2000/svg">
<path d="M20.2964 20.7467L22.7139 19.1849C21.6215 18.1229 20.9699 16.6873 20.8885 15.1628C20.8954 13.6791 21.3498 12.1373 22.3639 11.0497L20.9497 9.63544C19.862 10.6496 18.3245 11.1082 16.8409 11.1151C15.314 11.034 13.8764 10.381 12.8137 9.28613L11.2519 11.7037C11.878 12.2118 12.5985 12.5914 13.3723 12.8209C14.1363 13.0573 14.9371 13.1549 15.7368 13.1091C16.4598 13.0776 17.28 12.9982 17.9226 12.6626L9.63599 20.9492L11.0502 22.3634L19.3368 14.0768C19.0012 14.7193 18.921 15.5374 18.8895 16.2604C18.8437 17.0601 18.9414 17.8609 19.1777 18.625C19.4075 19.3994 19.7876 20.1203 20.2964 20.7467Z" />
</svg>
