<svg viewBox="0 0 32 32" xmlns="http://www.w3.org/2000/svg">
<path d="M22.3949 16.3183L23 13.5045C21.4766 13.5261 20.0008 12.9716 18.8651 11.9512C17.8209 10.8972 17.052 9.4857 17 7.99951H15C14.948 9.4857 14.1851 10.8972 13.1409 11.9512C12.0039 12.9734 10.5256 13.5283 9 13.5055L9.6051 16.3193C10.4071 16.2359 11.1849 15.9949 11.8944 15.61C12.6018 15.2369 13.2371 14.7397 13.7702 14.1418C14.2592 13.6083 14.7829 12.9722 15 12.2805V23.9995H17V12.2805C17.2171 12.9722 17.7388 13.6073 18.2278 14.1408C18.7609 14.7387 19.3962 15.2359 20.1036 15.609C20.8137 15.9941 21.5922 16.2351 22.3949 16.3183Z" />
</svg>
