<svg viewBox="0 0 32 32" xmlns="http://www.w3.org/2000/svg">
<path fill-rule="evenodd" clip-rule="evenodd" d="M10.0781 13.9375C10.5078 7.57812 12.9062 3 16 3C17.5078 3 18.8516 4.08984 19.8867 5.94531C19.2344 6.08203 18.5625 6.26562 17.8828 6.47656C17.2891 5.53906 16.6328 5 16 5C14.6445 5 13.1836 7.44141 12.4648 11.1406C12.5217 11.1048 12.5779 11.0685 12.6338 11.0323L12.6339 11.0323L12.634 11.0322L12.634 11.0322C12.7547 10.9542 12.8746 10.8767 13 10.8047C15.8867 9.13672 18.8867 8.03516 21.4531 7.70312C24.3164 7.33203 26.375 7.97266 27.2578 9.5C28 10.7812 27.7695 12.4727 26.6445 14.3359C26.2031 13.8398 25.707 13.3477 25.1836 12.8633C25.6953 11.875 25.832 11.0312 25.5273 10.5C25.1875 9.91406 24.2695 9.60156 22.9727 9.60156C22.5859 9.60156 22.1602 9.62891 21.707 9.6875C19.3984 9.98828 16.6602 11 14 12.5352C13.4219 12.8711 12.6914 13.3633 12.1094 13.7656C12.0547 14.3867 12.0156 15.0195 12.0078 15.6836C11.2852 15.1133 10.6328 14.5273 10.0781 13.9375ZM4.74219 9.5C5.48047 8.22266 7.05078 7.57422 9.21875 7.61328C9.00781 8.24609 8.82812 8.91797 8.67188 9.625C7.57422 9.67969 6.77734 9.97656 6.47656 10.5C6.03516 11.2617 6.48438 12.6484 7.67969 14.2148C9.08984 16.0625 11.3359 17.9258 14 19.4648C14.6523 19.8438 15.3242 20.1914 15.9922 20.5039C16.5703 20.2305 17.1523 19.9375 17.7305 19.6133C17.582 20.5898 17.3867 21.4375 17.168 22.1641C16.1641 22.6523 15.1602 23.0703 14.1797 23.4062L13.5195 23.6094C12.8477 23.8203 12.2617 23.9766 11.7305 24.0898L11.7227 24.0918C11.7107 24.095 11.7004 24.0977 11.6875 24.0977L11.4688 24.1445C11.1562 24.207 10.8516 24.2578 10.5469 24.2969C10.0195 24.3672 9.51172 24.4023 9.03906 24.4023C6.96094 24.4023 5.46094 23.7461 4.74219 22.5C4 21.2188 4.23047 19.5273 5.35156 17.668C5.79687 18.1602 6.29297 18.6523 6.81641 19.1367C6.30469 20.125 6.16797 20.9688 6.47656 21.5C6.91406 22.2617 8.33984 22.5664 10.2891 22.3125C11.3086 22.1797 12.418 21.8945 13.5625 21.5C13.4753 21.4509 13.3872 21.4044 13.2995 21.3581L13.2994 21.358C13.1986 21.3047 13.0982 21.2517 13 21.1953C10.1133 19.5273 7.66016 17.4805 6.08984 15.4258C5.91797 15.2031 5.78125 15 5.65625 14.8086C4.27344 12.7578 3.9375 10.8906 4.74219 9.5ZM20.7422 11.8984C19.9531 12.082 19.1172 12.3516 18.2617 12.6914C18.8281 13.0273 19.3672 13.3867 19.8906 13.7461C19.9531 14.4727 20 15.2148 20 16C20 21.8984 18.1445 26.3984 16.3594 26.9414C16.2383 26.9805 16.1133 27 16 27C15.3672 27 14.7109 26.4648 14.1172 25.5195C13.4375 25.7344 12.7656 25.918 12.1133 26.0547C13.1484 27.9102 14.4922 29 16 29C16.1992 29 16.3906 28.9805 16.5781 28.9414C19.707 28.3477 22 22.9883 22 16C22 15.8776 21.9949 15.7577 21.9898 15.6375C21.986 15.5467 21.9822 15.4557 21.9805 15.3633C22.8945 16.1562 23.6992 16.9727 24.3242 17.7852C25.5156 19.3516 25.9648 20.7383 25.5273 21.5C25.2188 22.0273 24.4336 22.332 23.3281 22.3867C23.1719 23.0859 22.9961 23.7617 22.7852 24.3906C22.8125 24.3906 22.8428 24.3936 22.873 24.3965C22.9033 24.3994 22.9336 24.4023 22.9609 24.4023C25.0391 24.4023 26.5391 23.7461 27.2578 22.5C28.1406 20.9727 27.6641 18.8672 25.9102 16.5742C24.668 14.9492 22.8672 13.332 20.7422 11.8984ZM14 16C14 14.8945 14.8945 14 16 14C17.1055 14 18 14.8945 18 16C18 17.1055 17.1055 18 16 18C14.8945 18 14 17.1055 14 16Z" />
</svg>
