<svg viewBox="0 0 32 32" xmlns="http://www.w3.org/2000/svg">
<path fill-rule="evenodd" clip-rule="evenodd" d="M14.2188 3.59375C14.7539 3.21094 15.375 3 16 3C16.625 3 17.2461 3.21094 17.7812 3.59375L19.4375 4.75L21.3125 5H21.3438C22.6602 5.16016 23.6953 6.22266 23.875 7.53125C23.877 7.54297 23.8838 7.55273 23.8906 7.5625C23.8975 7.57227 23.9043 7.58203 23.9062 7.59375H23.875L24.25 9.46875L25.4062 11.125C26.168 12.1914 26.1367 13.6016 25.4375 14.7188V14.75L25.4062 14.7812L24.25 16.4375L24 18.3125L27.125 23.0625L28.1562 24.5938H23.375L22.2188 27.2812L21.5 29L20.4688 27.4375L17.3125 22.6875C16.4922 23.0664 15.5352 23.0352 14.6875 22.6875L11.5312 27.4375L10.5 29L9.78125 27.2812L8.625 24.5938H3.84375L4.875 23.0625L8.09375 18.1562L7.78125 16.4375L6.59375 14.7812C5.83203 13.7148 5.86328 12.2734 6.5625 11.1562V11.125L6.59375 11.0938L7.75 9.59375L8 7.65625V7.625L8.03125 7.59375C8.31641 6.32031 9.32031 5.31641 10.5938 5.03125L10.625 5H10.6562L12.5625 4.75L14.2188 3.59375ZM16.625 5.21875C16.457 5.10156 16.2305 5.03125 16 5.03125C15.7695 5.03125 15.543 5.10156 15.375 5.21875L13.5938 6.5L13.375 6.65625L13.125 6.6875L11.0312 6.96875C11.0234 6.9707 11.0195 6.97754 11.0156 6.98438C11.0117 6.99121 11.0078 6.99805 11 7C10.5117 7.125 10.125 7.51172 10 8C9.99805 8.00781 9.99121 8.01172 9.98438 8.01562C9.97754 8.01953 9.9707 8.02344 9.96875 8.03125L9.6875 10.125L9.65625 10.4062L9.5 10.5938L8.25 12.2188C7.94922 12.6992 7.98047 13.293 8.21875 13.625L9.5 15.4062L9.65625 15.5938L9.6875 15.8438L10.0938 18.125V18.1875C10.1094 18.3242 10.1562 18.4531 10.2188 18.5625C10.3594 18.8047 10.5977 18.9648 10.9062 19H10.9375L13.125 19.3125L13.4062 19.3438L13.5938 19.5L15.2188 20.75C15.6992 21.0508 16.293 21.0195 16.625 20.7812L18.4062 19.5L18.5938 19.3438L18.8438 19.3125L21.125 18.9062H21.1875C21.4375 18.8789 21.6367 18.7656 21.7812 18.5938V18.5625L21.8438 18.5312C21.9258 18.4102 21.9805 18.2578 22 18.0938V18.0625L22.3125 15.875L22.3438 15.625L23.75 13.6562C24.0508 13.1758 24.0195 12.6133 23.7812 12.2812L22.5 10.5L22.3438 10.3125L22.3125 10.0938L21.9062 7.875V7.8125C21.8555 7.36328 21.543 7.05078 21.0938 7H21.0625L18.875 6.6875L18.625 6.65625L18.4062 6.5L16.625 5.21875ZM22.9062 20.25L24.4375 22.5938H22.0312L21.7812 23.2188L21.0938 24.8125L18.9688 21.5625L19.4375 21.2188L21.4062 20.875V20.9062C21.418 20.9043 21.4277 20.8975 21.4375 20.8906C21.4473 20.8838 21.457 20.877 21.4688 20.875C22.0078 20.8008 22.4961 20.5742 22.9062 20.25ZM10.6562 21C10.0625 20.9297 9.51953 20.6641 9.09375 20.2812L7.5625 22.5938H9.96875L10.2188 23.2188L10.9062 24.8125L13.0312 21.5938L12.5938 21.25L10.6875 21H10.6562Z" />
</svg>
