<svg viewBox="0 0 32 32" xmlns="http://www.w3.org/2000/svg">
<path fill-rule="evenodd" clip-rule="evenodd" d="M16 3C14.8945 3 14 3.89453 14 5C14 5.06196 14.0102 5.1219 14.0202 5.18126V5.18127C14.0241 5.20424 14.028 5.22712 14.0312 5.25C10.5742 6.13281 8 9.27344 8 13V22C8 22.5664 7.56641 23 7 23H6V25H13.1875C13.0742 25.3164 13 25.6484 13 26C13 27.6445 14.3555 29 16 29C17.6445 29 19 27.6445 19 26C19 25.6484 18.9258 25.3164 18.8125 25H26V23H25C24.4336 23 24 22.5664 24 22V13.2812C24 9.52344 21.4883 6.17188 17.9688 5.25C17.972 5.22712 17.9759 5.20424 17.9798 5.18127V5.18126C17.9898 5.1219 18 5.06196 18 5C18 3.89453 17.1055 3 16 3ZM15.5625 7C15.6586 6.99221 15.7546 6.99478 15.8519 6.99737C15.9009 6.99868 15.9502 7 16 7H16.1875C19.4531 7.09766 22 9.96094 22 13.2812V22C22 22.3516 22.0742 22.6836 22.1875 23H9.8125C9.92578 22.6836 10 22.3516 10 22V13C10 9.82422 12.4453 7.22656 15.5625 7ZM17 26C17 25.4375 16.5625 25 16 25C15.4375 25 15 25.4375 15 26C15 26.5625 15.4375 27 16 27C16.5625 27 17 26.5625 17 26Z" />
</svg>
