<svg viewBox="0 0 32 32" xmlns="http://www.w3.org/2000/svg">
<path fill-rule="evenodd" clip-rule="evenodd" d="M8.5 5L8.1875 5.40625L5 9.65625V27H27V9.65625L23.8125 5.40625L23.5 5H8.5ZM9.5 7H15V9H8L9.5 7ZM22.5 7H17V9H24L22.5 7ZM7 11H25V25H7V11ZM11.9062 14.0938C11.8555 13.543 12.2617 13.0508 12.8125 13H12.9062H13H19C19.3594 12.9961 19.6953 13.1836 19.8789 13.4961C20.0586 13.8086 20.0586 14.1914 19.8789 14.5039C19.6953 14.8164 19.3594 15.0039 19 15H13C12.4492 15.0508 11.957 14.6445 11.9062 14.0938Z" />
</svg>
