<svg viewBox="0 0 32 32" xmlns="http://www.w3.org/2000/svg">
<path fill-rule="evenodd" clip-rule="evenodd" d="M23.7188 9.75L27.2188 5.375L28.7812 6.625L24.2812 12.25L23.5625 11.9062L20.3438 10.3125L16.8438 15.5625L16.25 16.4375L15.4062 15.8125L12 13.25L8.59375 15.8125L8.21875 16.0938L7.75 15.9688L3.75 14.9688L4.25 13.0312L7.78125 13.9062L11.4062 11.1875L12 10.75L12.5938 11.1875L15.75 13.5625L19.1562 8.4375L19.6562 7.71875L20.4375 8.09375L23.7188 9.75ZM19.2188 19.375L20.0625 18.3125L20.8438 19.4375L24.0938 24.2812L27.2188 20.375L28.7812 21.625L24.7812 26.625L23.9375 27.6875L23.1562 26.5625L19.9062 21.7188L16.7812 25.625L16.1875 26.375L15.4062 25.8125L12 23.25L8.59375 25.8125L8.09375 26.1562L7.5625 25.9062L3.5625 23.9062L4.4375 22.0938L7.90625 23.8125L11.4062 21.1875L12 20.75L12.5938 21.1875L15.8125 23.625L19.2188 19.375Z" />
</svg>
