<svg viewBox="0 0 32 32" xmlns="http://www.w3.org/2000/svg">
<path fill-rule="evenodd" clip-rule="evenodd" d="M3 16C3 8.83203 8.83203 3 16 3C23.168 3 29 8.83203 29 16C29 23.168 23.168 29 16 29C8.83203 29 3 23.168 3 16ZM14.9375 5.0625C14.917 5.06152 14.8965 5.06055 14.875 5.0625C9.32031 5.625 5 10.293 5 16C5 22.0859 9.91406 27 16 27C18.6875 27 21.1562 26.0625 23.0625 24.4688L15.2812 16.7188L15 16.4062V5.0625C14.9785 5.06445 14.958 5.06348 14.9375 5.0625ZM17 5.0625C22.2852 5.53906 26.4609 9.71484 26.9375 15H17V5.0625ZM26.9375 17H18.4375L24.4688 23.0625C25.8633 21.3945 26.7305 19.293 26.9375 17Z"/>
</svg>
