<svg viewBox="0 0 32 32" xmlns="http://www.w3.org/2000/svg">
<path fill-rule="evenodd" clip-rule="evenodd" d="M3 16C3 8.80078 8.80078 3 16 3C19.5 3 22.6992 4.38672 25 6.6875L23.5938 8.09375C21.6953 6.19531 19 5 16 5C9.89844 5 5 9.89844 5 16C5 22.1016 9.89844 27 16 27C22.1016 27 27 22.1016 27 16C27 15.1016 26.8867 14.3008 26.6875 13.5L28.3125 11.9062C28.8125 13.207 29 14.6016 29 16C29 23.1992 23.1992 29 16 29C8.80078 29 3 23.1992 3 16ZM16 18.5625L27.2812 7.28125L28.7188 8.71875L16.7188 20.7188L16 21.4062L15.2812 20.7188L10.2812 15.7188L11.7188 14.2812L16 18.5625Z" />
</svg>
