<svg viewBox="0 0 32 32" mlns="http://www.w3.org/2000/svg">
<path d="M4.56512 11.4864L4.61741 11.3587C5.0496 10.3064 6.07584 9.62644 7.23179 9.62644C8.08891 9.62644 8.88876 10.0021 9.42658 10.6569L10.8761 12.4222C11.3372 12.9838 11.9983 13.3357 12.724 13.4149C12.8277 13.4263 12.9327 13.4319 13.0387 13.4319C14.0949 13.4319 15.0426 12.8636 15.5122 11.9487L16.2478 10.5151C16.248 10.5147 16.2482 10.5145 16.2484 10.5142L16.6586 9.71489C16.0222 8.87923 15.7832 7.74379 16.0218 6.65713C16.278 5.48856 17.1214 4.52688 18.1695 4.20757C18.4939 4.10848 18.8208 4.06558 19.139 4.07976C19.4963 4.09394 19.5977 3.98456 19.6314 3.94876C20.4306 3.10035 21.5571 2.7963 22.6468 3.13684C23.6803 3.45983 24.514 4.41283 24.7711 5.5642C25.0214 6.68349 24.7666 7.85651 24.0893 8.70278C24.0113 8.8001 23.9283 8.89158 23.8413 8.97738L27.6866 10.0757C28.3887 10.2764 28.899 10.8744 28.9867 11.5992C29.0745 12.3244 28.7215 13.0269 28.0875 13.389L24.11 15.6617C24.0694 15.8729 24.0256 16.0838 23.9758 16.2941C23.1646 19.7186 20.5663 22.3389 17.2943 23.3364V26.4301H18.7201C19.1587 26.4301 19.5143 26.7857 19.5143 27.2243C19.5143 27.6629 19.1587 28.0185 18.7201 28.0185H11.4795C11.0409 28.0185 10.6853 27.6629 10.6853 27.2243C10.6853 26.7857 11.0409 26.4301 11.4795 26.4301H11.8806V23.4748C8.49832 22.6559 5.69787 20.2471 4.4762 16.9726C3.81195 15.193 3.84354 13.2444 4.56519 11.4864L4.56512 11.4864ZM13.0387 15.0206C11.7142 15.0206 10.4784 14.4411 9.64862 13.4303L9.12655 12.7946C8.9273 13.2497 8.82412 13.7344 8.82412 14.2265C8.82412 16.4144 10.8243 18.1942 13.283 18.1942C15.7418 18.1942 17.7419 16.4142 17.7419 14.2265C17.7419 13.5277 17.5335 12.8457 17.1445 12.2471L16.9253 12.6743C16.1825 14.1217 14.6932 15.0206 13.0387 15.0206ZM23.221 5.91077C23.0877 5.31264 22.6663 4.80709 22.1729 4.65302C22.0382 4.61083 21.9035 4.59027 21.7709 4.59027C21.4091 4.59027 21.0643 4.74414 20.7874 5.03823C20.4995 5.34385 19.968 5.70157 19.0732 5.66736C18.9307 5.66133 18.7842 5.68118 18.6332 5.72727C18.1324 5.8799 17.7064 6.39061 17.5731 6.99795C17.4723 7.45744 17.515 7.92437 17.68 8.32554C18.3898 7.70259 19.3169 7.34326 20.3113 7.34326C21.1228 7.34326 21.8856 7.59268 22.522 8.01708C22.6413 7.93341 22.7523 7.83113 22.8493 7.70988C23.2283 7.23691 23.367 6.5644 23.221 5.91077ZM27.2996 12.01C27.3785 11.9648 27.4209 11.8806 27.4099 11.7902C27.3989 11.6998 27.3376 11.6284 27.2502 11.6032L24.2311 10.7406C24.3701 11.7248 24.4094 12.7117 24.3531 13.6939L27.2996 12.01ZM13.4692 26.43H15.7062V23.6825C15.2593 23.7427 14.8046 23.7754 14.3433 23.7752C14.1684 23.7752 13.9918 23.7707 13.8152 23.7615C13.6995 23.7548 13.5842 23.7456 13.4694 23.7353L13.4692 26.43ZM5.96401 16.417C7.19266 19.7088 10.31 21.9695 13.9012 22.1755C17.9299 22.3868 21.5235 19.755 22.4298 15.9278C22.8224 14.2709 22.8963 12.5765 22.6494 10.8923C22.4856 9.77459 21.4803 8.93149 20.311 8.93149C19.4071 8.93149 18.5963 9.41739 18.1949 10.1995L17.9437 10.6888C18.8395 11.6838 19.3298 12.9304 19.3298 14.2264C19.3298 17.29 16.6171 19.7824 13.2827 19.7824C9.94825 19.7824 7.23567 17.29 7.23567 14.2264C7.23567 13.2634 7.50689 12.3258 8.02204 11.4911C7.80275 11.314 7.52584 11.2149 7.23176 11.2149C6.72263 11.2149 6.2729 11.5083 6.08679 11.9618L6.0345 12.0892C5.46509 13.4763 5.44009 15.0135 5.96412 16.4173L5.96401 16.417Z" />
<path d="M19.5324 11.4455C19.5324 11.8841 19.888 12.2397 20.3266 12.2397C20.7651 12.2397 21.1207 11.8841 21.1207 11.4455C21.1207 11.007 20.7651 10.6514 20.3266 10.6514C19.888 10.6514 19.5324 11.007 19.5324 11.4455Z" />
</svg>
