<svg viewBox="0 0 32 32" xmlns="http://www.w3.org/2000/svg">
<path d="M6.9186 20.6977C9.91859 20.6977 11.6279 18.9535 11.6279 16.093V15.8488H9.36045V16.1628C9.36045 17.593 8.55813 18.6395 6.9186 18.6395C5.27906 18.6395 4.30232 17.5581 4.30232 15.8488V12.8488C4.30232 11.1395 5.27906 10.0581 6.9186 10.0581C8.55813 10.0581 9.36045 11.1046 9.36045 12.5349V12.7093H11.6279V12.6046C11.6279 9.74418 9.91859 8 6.9186 8C3.88372 8 2 9.74418 2 12.8837V15.8139C2 18.9535 3.88372 20.6977 6.9186 20.6977Z" />
<path d="M18.248 20.6977C21.3178 20.6977 23.2713 18.9535 23.2713 15.8139V12.8837C23.2713 9.74418 21.3178 8 18.248 8C15.1783 8 13.2248 9.74418 13.2248 12.8837V15.8139C13.2248 18.9535 15.1783 20.6977 18.248 20.6977ZM18.248 18.6395C16.5387 18.6395 15.5271 17.5581 15.5271 15.8837V12.8139C15.5271 11.1395 16.5387 10.0581 18.248 10.0581C19.9573 10.0581 20.9689 11.1395 20.9689 12.8139V15.8837C20.9689 17.5581 19.9573 18.6395 18.248 18.6395Z" />
<path d="M24.593 23.9418H29.9651V22.6163H26.3372C26.3372 22.2325 26.6512 22.0232 27.5756 21.8314C29.0581 21.5174 30 20.9593 30 19.7035C30 18.4477 28.8837 17.6279 27.3837 17.6279C25.8663 17.6279 24.7849 18.3953 24.6628 19.8081L26.3023 19.9302C26.3372 19.2151 26.8256 18.9535 27.3837 18.9535C27.9419 18.9535 28.3605 19.2151 28.3605 19.686C28.3605 20.1744 27.907 20.4535 26.8779 20.6802C25.3081 21.029 24.593 21.779 24.593 23.1744V23.9418Z" />
</svg>
