<svg viewBox="0 0 32 32" xmlns="http://www.w3.org/2000/svg">
<path fill-rule="evenodd" clip-rule="evenodd" d="M13.0312 3.8125L13.1875 3H18.8125L18.9688 3.8125L19.5625 6.78125C20.5156 7.15625 21.375 7.68359 22.1562 8.3125L25.0625 7.3125L25.8438 7.0625L26.25 7.78125L28.25 11.2188L28.6562 11.9375L28.0625 12.4688L25.8125 14.4375C25.8269 14.5273 25.842 14.6171 25.8572 14.7071L25.8572 14.7071L25.8572 14.7071L25.8572 14.7072C25.9283 15.1297 26 15.5556 26 16C26 16.4444 25.9283 16.8703 25.8572 17.2928L25.8572 17.2929L25.8572 17.2929L25.8572 17.2929C25.842 17.3829 25.8269 17.4727 25.8125 17.5625L28.0625 19.5312L28.6562 20.0625L28.25 20.7812L26.25 24.2188L25.8438 24.9375L25.0625 24.6875L22.1562 23.6875C21.375 24.3164 20.5156 24.8438 19.5625 25.2188L18.9688 28.1875L18.8125 29H13.1875L13.0312 28.1875L12.4375 25.2188C11.4844 24.8438 10.625 24.3164 9.84375 23.6875L6.9375 24.6875L6.15625 24.9375L5.75 24.2188L3.75 20.7812L3.34375 20.0625L3.9375 19.5312L6.1875 17.5625C6.1731 17.4727 6.15798 17.3829 6.14283 17.2929L6.14283 17.2929C6.07169 16.8703 6 16.4444 6 16C6 15.5556 6.07169 15.1297 6.14283 14.7071L6.14283 14.7071C6.15798 14.6171 6.1731 14.5273 6.1875 14.4375L3.9375 12.4688L3.34375 11.9375L3.75 11.2188L5.75 7.78125L6.15625 7.0625L6.9375 7.3125L9.84375 8.3125C10.625 7.68359 11.4844 7.15625 12.4375 6.78125L13.0312 3.8125ZM17.1875 5H14.8125L14.3125 7.59375L14.1875 8.1875L13.625 8.375C12.4883 8.73047 11.457 9.33203 10.5938 10.125L10.1562 10.5312L9.59375 10.3438L7.0625 9.46875L5.875 11.5L7.875 13.2812L8.34375 13.6562L8.1875 14.25C8.05859 14.8203 8 15.4023 8 16C8 16.5977 8.05859 17.1797 8.1875 17.75L8.34375 18.3438L7.875 18.7188L5.875 20.5L7.0625 22.5312L9.59375 21.6562L10.1562 21.4688L10.5938 21.875C11.457 22.668 12.4883 23.2695 13.625 23.625L14.1875 23.8125L14.3125 24.4062L14.8125 27H17.1875L17.6875 24.4062L17.8125 23.8125L18.375 23.625C19.5117 23.2695 20.543 22.668 21.4062 21.875L21.8438 21.4688L22.4062 21.6562L24.9375 22.5312L26.125 20.5L24.125 18.7188L23.6875 18.3438L23.8125 17.75C23.9414 17.1797 24 16.5977 24 16C24 15.4023 23.9414 14.8203 23.8125 14.25L23.6562 13.6562L24.125 13.2812L26.125 11.5L24.9375 9.46875L22.4062 10.3438L21.8438 10.5312L21.4062 10.125C20.543 9.33203 19.5117 8.73047 18.375 8.375L17.8125 8.1875L17.6875 7.59375L17.1875 5ZM16 11C13.25 11 11 13.25 11 16C11 18.75 13.25 21 16 21C18.75 21 21 18.75 21 16C21 13.25 18.75 11 16 11ZM19 16C19 14.332 17.668 13 16 13C14.332 13 13 14.332 13 16C13 17.668 14.332 19 16 19C17.668 19 19 17.668 19 16Z" />
</svg>
