<svg viewBox="0 0 32 32" xmlns="http://www.w3.org/2000/svg">
<path fill-rule="evenodd" clip-rule="evenodd" d="M15 8V3H17V8H15ZM6.09375 7.5L7.5 6.09375L11.0625 9.625L9.625 11.0625L6.09375 7.5ZM24.5 6.09375L20.9375 9.625L22.375 11.0625L25.9062 7.5L24.5 6.09375ZM9 16C9 12.1445 12.1445 9 16 9C19.8555 9 23 12.1445 23 16C23 19.8555 19.8555 23 16 23C12.1445 23 9 19.8555 9 16ZM16 11C18.7734 11 21 13.2266 21 16C21 18.7734 18.7734 21 16 21C13.2266 21 11 18.7734 11 16C11 13.2266 13.2266 11 16 11ZM3 17V15H8V17H3ZM24 17H29V15H24V17ZM6.09375 24.5L9.625 20.9375L11.0625 22.375L7.5 25.9062L6.09375 24.5ZM22.375 20.9375L20.9375 22.375L24.5 25.9062L25.9062 24.5L22.375 20.9375ZM15 29V24H17V29H15Z" />
</svg>
