<svg viewBox="0 0 32 32" xmlns="http://www.w3.org/2000/svg">
<path fill-rule="evenodd" clip-rule="evenodd" d="M8.3 8.2C10.3 5.3 13 3 16 3C19 3 21.7 5.3 23.7 8.2C25.7 11.1 27 14.7 27 18C27 21.5 25.9 24.3 23.8 26.2C21.7 28.1 19 29 16 29C13 29 10.3 28 8.2 26.2C6.2 24.3 5 21.5 5 18C5 14.7 6.3 11.1 8.3 8.2ZM22 9.3C20.2 6.7 17.9 5 16 5C14.1 5 11.8 6.7 10 9.3C8.2 11.9 7 15.2 7 18C7 21 8 23.2 9.6 24.7C11.2 26.2 13.4 27 16 27C18.6 27 20.8 26.2 22.4 24.7C24 23.3 25 21.1 25 18C25 15.3 23.8 11.9 22 9.3Z" />
</svg>
