<svg viewBox="0 0 32 32" xmlns="http://www.w3.org/2000/svg">
<path fill-rule="evenodd" clip-rule="evenodd" d="M3 16C3 8.83138 8.83138 3 16 3C23.1686 3 29 8.83138 29 16C29 23.1686 23.1686 29 16 29C8.83138 29 3 23.1686 3 16ZM26.8333 16C26.8333 10.0036 21.9964 5.16667 16 5.16667C10.0036 5.16667 5.16667 10.0036 5.16667 16C5.16667 21.9964 10.0036 26.8333 16 26.8333C21.9964 26.8333 26.8333 21.9964 26.8333 16ZM14.9167 9.5V18.1667H17.0833V9.5H14.9167ZM14.9167 22.5V20.3333H17.0833V22.5H14.9167Z" />
</svg>
