<svg viewBox="0 0 32 32" xmlns="http://www.w3.org/2000/svg">
<path fill-rule="evenodd" clip-rule="evenodd" d="M16 8C7.66406 8 1.25 15.3438 1.25 15.3438L0.65625 16L1.25 16.6562C1.25 16.6562 7.09766 23.3242 14.875 23.9375C15.2461 23.9844 15.6172 24 16 24C16.3828 24 16.7539 23.9844 17.125 23.9375C24.9023 23.3242 30.75 16.6562 30.75 16.6562L31.3438 16L30.75 15.3438C30.75 15.3438 24.3359 8 16 8ZM16 10C18.2031 10 20.2344 10.6016 22 11.4062C22.6367 12.4609 23 13.6758 23 15C23 18.6133 20.2891 21.582 16.7812 21.9688C16.7715 21.9707 16.7607 21.9697 16.75 21.9688C16.7393 21.9678 16.7285 21.9668 16.7188 21.9688C16.6512 21.9721 16.5837 21.976 16.5161 21.98C16.3451 21.99 16.1736 22 16 22C15.7344 22 15.4766 21.9844 15.2188 21.9688C11.7109 21.582 9 18.6133 9 15C9 13.6953 9.35156 12.4805 9.96875 11.4375H9.9375C11.7188 10.6172 13.7734 10 16 10ZM13 15C13 13.3438 14.3438 12 16 12C17.6562 12 19 13.3438 19 15C19 16.6562 17.6562 18 16 18C14.3438 18 13 16.6562 13 15ZM7.25 12.9375C7.09375 13.6094 7 14.2852 7 15C7 16.7539 7.5 18.3945 8.375 19.7812C5.85547 18.3242 4.10547 16.5859 3.53125 16C4.01172 15.5078 5.35156 14.2031 7.25 12.9375ZM28.4688 16C27.9883 15.5078 26.6484 14.2031 24.75 12.9375C24.9062 13.6016 25 14.2852 25 15C25 16.7539 24.5 18.3945 23.625 19.7812C26.1445 18.3242 27.8945 16.5859 28.4688 16Z"/>
</svg>
