<svg viewBox="0 0 32 32" xmlns="http://www.w3.org/2000/svg">
<path fill-rule="evenodd" clip-rule="evenodd" d="M4 16C4 9.38281 9.38281 4 16 4C22.6172 4 28 9.38281 28 16C28 22.6172 22.6172 28 16 28C9.38281 28 4 22.6172 4 16ZM21.3438 7.5625C19.7969 6.58594 17.9688 6 16 6C15.8209 6 15.6418 6.01843 15.4649 6.03664C15.3717 6.04623 15.2791 6.05576 15.1875 6.0625L17.4062 6.21875L17.9375 8.53125L14.9375 9.09375L14.125 7.96875L12.4062 8.34375L13 11L9 12.9062L6.3125 15.0312L7.28125 17H11L15.0312 20.0312L13.9688 24.0312L15.0625 25.9375C15.116 25.9422 15.1696 25.9472 15.2234 25.9522C15.4796 25.976 15.7385 26 16 26C17.543 26 19.0117 25.6523 20.3125 25.0312L21.9062 20.0312C21.9062 20.0312 21.168 18.2188 21.0625 18.2188C20.957 18.2188 18.9688 18.5625 18.9688 18.5625L17.0312 16.9688L18 13.9688L19.7188 12.6875L21.4688 12.4375L23.0938 13.4375L23.7812 12.1875L21.0938 11.3125L18.9375 12L18.7812 9.9375L19.6562 9.1875L20.7188 9.65625L20.5312 7.65625L21.3438 7.5625ZM14.875 6.0625L13.3125 6.71875L12.5625 6.59375C13.3008 6.32422 14.0664 6.15234 14.875 6.0625ZM7.03125 17.9062L6.0625 16.7812C6.37891 20.8906 9.13281 24.3086 12.9062 25.5312L10.0625 22.0312H8.90625L7.03125 19.9688V17.9062Z" />
</svg>
