<svg viewBox="0 0 32 32" xmlns="http://www.w3.org/2000/svg">
<path fill-rule="evenodd" clip-rule="evenodd" d="M7 6V4H25V6H23V10C23 12.543 21.6328 14.7734 19.5938 16C21.6328 17.2266 23 19.457 23 22V26H25V28H7V26H9V22C9 19.457 10.3672 17.2266 12.4062 16C10.3672 14.7734 9 12.543 9 10V6H7ZM21 6H11V10C11 12.7734 13.2266 15 16 15C18.7734 15 21 12.7734 21 10V6ZM12.1562 11C12.6016 12.7227 14.1367 14 16 14C17.8633 14 19.3984 12.7227 19.8438 11H12.1562ZM21 22C21 19.2266 18.7734 17 16 17C13.2266 17 11 19.2266 11 22V26H12C12 23.7891 13.7891 22 16 22C18.2109 22 20 23.7891 20 26H21V22Z" />
</svg>
