<svg viewBox="0 0 32 32" xmlns="http://www.w3.org/2000/svg">
<path fill-rule="evenodd" clip-rule="evenodd" d="M4 22V4H22V10H28V28H10V22H4ZM20 6H6V20H10.5625L20 10.5625V6ZM11 8V9H8V11H12.9375C12.8086 12.1484 12.457 13.0547 11.875 13.6875C11.5312 13.5742 11.2227 13.4336 10.9688 13.2812C10.2656 12.8633 10 12.418 10 12H8C8 13.1914 8.73438 14.1836 9.71875 14.8438C9.22656 14.9492 8.65625 15 8 15V17C9.77344 17 11.25 16.5938 12.375 15.8438C12.8984 15.9336 13.4297 16 14 16V14.125C14.543 13.2148 14.832 12.1523 14.9375 11H16V9H13V8H11ZM26 12H21.4375L12 21.4375V26H26V12ZM20 13.8438L19.0625 16.6875L17.0625 22.6875L17 22.8438V24H19V23.125L19.0312 23H20.9688L21 23.125V24H23V22.8438L22.9375 22.6875L20.9375 16.6875L20 13.8438ZM20.2812 21L20 20.125L19.7188 21H20.2812Z" />
</svg>
