<svg viewBox="0 0 32 32" xmlns="http://www.w3.org/2000/svg">
<path fill-rule="evenodd" clip-rule="evenodd" d="M15.625 6.0625L16 5.9375L16.375 6.0625L26.375 10.0625L28.6875 11L26.375 11.9375L22.4688 13.5L26.375 15.0625L28.6875 16L26.375 16.9375L22.4688 18.5L26.375 20.0625L28.6875 21L26.375 21.9375L16.375 25.9375L16 26.0625L15.625 25.9375L5.625 21.9375L3.3125 21L5.625 20.0625L9.53125 18.5L5.625 16.9375L3.3125 16L5.625 15.0625L9.53125 13.5L5.625 11.9375L3.3125 11L5.625 10.0625L15.625 6.0625ZM23.2812 11L16 8.09375L8.71875 11L16 13.9062L23.2812 11ZM12.25 14.5938L15.625 15.9375L16 16.0625L16.375 15.9375L19.75 14.5938L23.2812 16L16 18.9062L8.71875 16L12.25 14.5938ZM15.625 20.9375L12.25 19.5938L8.71875 21L16 23.9062L23.2812 21L19.75 19.5938L16.375 20.9375L16 21.0625L15.625 20.9375Z" />
</svg>
