<svg viewBox="0 0 32 32" xmlns="http://www.w3.org/2000/svg">
<path fill-rule="evenodd" clip-rule="evenodd" d="M4 16C4 9.38281 9.38281 4 16 4C22.6172 4 28 9.38281 28 16C28 22.6172 22.6172 28 16 28C9.38281 28 4 22.6172 4 16ZM17 6.0625C16.6719 6.03125 16.3359 6 16 6C15.6641 6 15.3281 6.03125 15 6.0625V9.09375C15.3281 9.04688 15.6602 9 16 9C16.3398 9 16.6719 9.04688 17 9.09375V6.0625ZM13 6.4375V9.6875C11.5469 10.3828 10.3789 11.5469 9.6875 13H6.46875C7.44141 9.875 9.88281 7.41406 13 6.4375ZM25.5625 13C24.5859 9.88672 22.1133 7.41406 19 6.4375V9.6875C20.4531 10.3789 21.6211 11.5469 22.3125 13H25.5625ZM16 11C18.7734 11 21 13.2266 21 16C21 18.7734 18.7734 21 16 21C13.2266 21 11 18.7734 11 16C11 13.2266 13.2266 11 16 11ZM9.0625 15H6.0625C6.03125 15.3281 6 15.6641 6 16C6 16.3359 6.03125 16.6719 6.0625 17H9.09375C9.04688 16.6719 9 16.3398 9 16C9 15.6641 9.01562 15.3242 9.0625 15ZM22.9062 15H25.9375C25.9688 15.3281 26 15.6641 26 16C26 16.3359 25.9688 16.6719 25.9375 17H22.9062C22.9531 16.6719 23 16.3398 23 16C23 15.6602 22.9531 15.3281 22.9062 15ZM9.6875 19H6.4375C7.41406 22.1133 9.88672 24.5859 13 25.5625V22.3125C11.5469 21.6211 10.3789 20.4531 9.6875 19ZM22.3125 19H25.5625C24.5859 22.1133 22.1133 24.5859 19 25.5625V22.3125C20.4531 21.6211 21.6211 20.4531 22.3125 19ZM16 23C15.6602 23 15.3281 22.9531 15 22.9062V25.9375C15.3281 25.9688 15.6641 26 16 26C16.3359 26 16.6719 25.9688 17 25.9375V22.9062C16.6719 22.9531 16.3398 23 16 23Z" />
</svg>
