<svg viewBox="0 0 32 32" xmlns="http://www.w3.org/2000/svg">
<path fill-rule="evenodd" clip-rule="evenodd" d="M8.64258 4C7.18358 4 6 5.18163 6 6.64062C6 8.09963 7.18262 9.30859 8.64062 9.30859C10.0986 9.30859 11.2832 8.09963 11.2832 6.64062C11.2832 5.18262 10.1016 4 8.64258 4ZM21.5352 11C19.3162 11 18.0465 12.1605 17.4375 13.3145H17.373V11.3105H13V26H17.5566V18.7285C17.5566 16.8125 17.7013 14.9609 20.0723 14.9609C22.4093 14.9609 22.4434 17.1456 22.4434 18.8496V26H26.9941H27V17.9316C27 13.9836 26.1512 11 21.5352 11ZM6.36328 26V11.3105H10.9238V26H6.36328Z" />
</svg>
