<svg viewBox="0 0 32 32" xmlns="http://www.w3.org/2000/svg">
<path fill-rule="evenodd" clip-rule="evenodd" d="M4 16C4 9.38281 9.38281 4 16 4C20.0508 4 23.6406 6.01172 25.8125 9.09375L24.1875 10.25C22.375 7.67969 19.3906 6 16 6C10.4648 6 6 10.4648 6 16C6 21.5352 10.4648 26 16 26C19.3906 26 22.3789 24.3203 24.1875 21.75L25.8125 22.9062C23.6406 25.9883 20.0508 28 16 28C9.38281 28 4 22.6172 4 16ZM21.9062 12.7188L23.3438 11.2812L27.3438 15.2812L28.0312 16L27.3438 16.7188L23.3438 20.7188L21.9062 19.2812L24.1875 17H12V15H24.1875L21.9062 12.7188Z" />
</svg>
