<svg viewBox="0 0 32 32" xmlns="http://www.w3.org/2000/svg">
<path fill-rule="evenodd" clip-rule="evenodd" d="M14.0625 10.1875C14.4688 6.71484 17.4219 4 21 4C24.8555 4 28 7.14453 28 11C28 14.5703 25.3047 17.5195 21.8438 17.9375L10.375 26L9.65625 26.5L8.28125 25.125L5.71875 27.7188L4.28125 26.2812L6.90625 23.6875L6.09375 22.875L5.53125 22.2812L6 21.5938L14.0625 10.1875ZM26 11C26 8.22656 23.7734 6 21 6C19.9844 6 19.0352 6.29688 18.25 6.8125L25.1875 13.75C25.7031 12.9648 26 12.0156 26 11ZM16.8125 8.25L23.75 15.1875C22.9648 15.7031 22.0156 16 21 16C18.2266 16 16 13.7734 16 11C16 9.98438 16.2969 9.03516 16.8125 8.25ZM18.7812 17.625C16.707 16.9219 15.0703 15.2617 14.375 13.1875L8.125 22.0625L9.90625 23.9062L18.7812 17.625Z" />
</svg>
