<svg viewBox="0 0 32 32" xmlns="http://www.w3.org/2000/svg">
<path fill-rule="evenodd" clip-rule="evenodd" d="M15.625 6.0625L17.2812 6L16.5938 7.5C16.2227 8.28125 16 9.11719 16 10.0312C16 13.3555 18.6758 16.0312 22 16.0312C22.9141 16.0312 23.7812 15.8398 24.5625 15.4688L26.0312 14.7812L25.9688 16.4062C25.7773 21.75 21.3906 26.0312 16 26.0312C10.4883 26.0312 6 21.543 6 16.0312C6 10.6406 10.2812 6.25391 15.625 6.0625ZM14.2213 8.92211C14.2771 8.74167 14.3331 8.56097 14.375 8.375C10.7578 9.14453 8 12.1797 8 16.0312C8 20.4609 11.5703 24.0312 16 24.0312C19.8594 24.0312 22.9258 21.2812 23.6875 17.6562C23.5025 17.6984 23.3229 17.753 23.1438 17.8074C22.7747 17.9197 22.4077 18.0312 22 18.0312C17.5938 18.0312 14 14.4375 14 10.0312C14 9.63657 14.1105 9.27986 14.2213 8.92211Z" />
</svg>
