<svg viewBox="0 0 32 32" xmlns="http://www.w3.org/2000/svg">
<path fill-rule="evenodd" clip-rule="evenodd" d="M21 5.1875C21.8125 4.375 22.8594 3.96875 23.9062 3.96875C24.9531 3.96875 26 4.375 26.8125 5.1875C28.4375 6.8125 28.4375 9.375 26.8125 11L11 26.8125L10.6875 26.875L5.1875 27.9688L3.71875 28.2812L4.03125 26.8125L5.125 21.3125L5.1875 21L21 5.1875ZM25.4062 6.59375C24.918 6.10547 24.4102 5.875 23.9062 5.875C23.4023 5.875 22.8945 6.10547 22.4062 6.59375L21.7188 7.3125L24.6875 10.2812L25.4062 9.59375C26.3789 8.62109 26.3789 7.56641 25.4062 6.59375ZM20.3125 8.71875L23.2812 11.6875L11.1875 23.7812C10.5312 22.5 9.5 21.4688 8.21875 20.8125L20.3125 8.71875ZM9.5625 25.0625C9.07812 23.8633 8.13672 22.9219 6.9375 22.4375L6.28125 25.7188L9.5625 25.0625Z" />
</svg>
