<svg viewBox="0 0 32 32" xmlns="http://www.w3.org/2000/svg">
<path fill-rule="evenodd" clip-rule="evenodd" d="M6.625 13C7.38281 11.2383 8.79297 9.74219 10.5938 8.6875C14 6.5 18.9375 7.1875 18.9375 7.1875C19.4961 7.28516 20.0312 7.41016 20.5625 7.5625C22.5977 6.03906 25 6 25 6H26V7.28125L25.4375 10.375C25.9297 10.8672 26.3594 11.418 26.7188 12H29V20H26.7812C26.2461 20.8711 25.5664 21.6445 24.75 22.3125C24.9688 23.2969 24.8555 24.332 24.0938 25.0938C22.9102 26.2773 20.9648 26.2773 19.7812 25.0938L19.4062 24.7188C18.625 24.8633 17.8398 25 17 25C16.1602 25 15.375 24.8633 14.5938 24.7188L14.2188 25.0938C13.0352 26.2773 11.0898 26.2773 9.90625 25.0938C9.12891 24.3164 9.00781 23.25 9.25 22.25C7.32422 20.6523 6 18.4922 6 16C6 15.6367 6.04297 15.2891 6.09375 14.9375C4.91797 14.7383 4 13.7305 4 12.5C4 11.6602 4.41797 10.9219 5.0625 10.4688L6.21875 12.0938C6.08984 12.1836 6 12.3242 6 12.5C6 12.7852 6.21484 13 6.5 13H6.625ZM23.75 8.18765C23.7578 8.1857 23.7617 8.18667 23.7656 8.18765C23.7695 8.18863 23.7734 8.1896 23.7812 8.18765L23.4062 10.4689L23.3125 11.0002L23.75 11.3752C24.4492 11.9923 24.9922 12.6837 25.375 13.4377L25.6562 14.0002H27V18.0002H25.6562L25.375 18.5627C24.8867 19.5275 24.1172 20.3752 23.125 21.0939L22.4062 21.6252L22.8438 22.4377C23.082 22.84 23.0391 23.3361 22.6875 23.6877C22.2695 24.1056 21.6367 24.1056 21.2188 23.6877L20.5 22.9689L20.0938 22.5939L19.5625 22.7189C18.75 22.9064 17.8867 23.0002 17 23.0002C16.1133 23.0002 15.2539 22.9064 14.4375 22.7189L13.9062 22.5939L13.5 22.9689L12.7812 23.6877C12.3633 24.1056 11.7305 24.1056 11.3125 23.6877C10.9609 23.3361 10.918 22.84 11.1562 22.4377L11.5938 21.6252L10.875 21.0939C9.06641 19.7814 8 17.9884 8 16.0002C8 12.258 11.9102 9.00015 17 9.00015C18.2305 9.00015 19.4023 9.18374 20.4688 9.5314L21 9.7189L21.4375 9.3439C22.1523 8.70718 23.0352 8.36343 23.75 8.18765ZM22 15C22 14.4492 22.4492 14 23 14C23.5508 14 24 14.4492 24 15C24 15.5508 23.5508 16 23 16C22.4492 16 22 15.5508 22 15Z" />
</svg>
