<svg viewBox="0 0 32 32" xmlns="http://www.w3.org/2000/svg">
<path fill-rule="evenodd" clip-rule="evenodd" d="M4 16C4 9.38281 9.38281 4 16 4C22.6172 4 28 9.38281 28 16C28 22.6172 22.6172 28 16 28C9.38281 28 4 22.6172 4 16ZM26 16C26 10.4648 21.5352 6 16 6C10.4648 6 6 10.4648 6 16C6 21.5352 10.4648 26 16 26C21.5352 26 26 21.5352 26 16ZM16 10C13.8008 10 12 11.8008 12 14H14C14 12.8828 14.8828 12 16 12C17.1172 12 18 12.8828 18 14C18 14.7656 17.5078 15.4453 16.7812 15.6875L16.375 15.8125C15.5586 16.082 15 16.8633 15 17.7188V19H17V17.7188L17.4062 17.5938C18.9453 17.082 20 15.6211 20 14C20 11.8008 18.1992 10 16 10ZM15 22V20H17V22H15Z" />
</svg>
