<svg viewBox="0 0 32 32" xmlns="http://www.w3.org/2000/svg">
<path fill-rule="evenodd" clip-rule="evenodd" d="M3.59375 20.5312L20.5312 3.59375L28.4062 11.4688L11.4688 28.4062L3.59375 20.5312ZM25.5625 11.4688L20.5312 6.4375L19.375 7.59375L21.5312 9.75L20.125 11.1875L17.9375 9L16.7812 10.1875L17.6562 11.0625L16.2188 12.4688L15.375 11.5938L14.1875 12.7812L16.3438 14.9375L14.9375 16.3438L12.7812 14.1875L11.5938 15.375L12.4688 16.2188L11.0625 17.6562L10.1875 16.7812L9 17.9375L11.1875 20.125L9.75 21.5312L7.59375 19.375L6.4375 20.5312L11.4688 25.5625L25.5625 11.4688Z" />
</svg>
