<svg viewBox="0 0 32 32" xmlns="http://www.w3.org/2000/svg">
<path fill-rule="evenodd" clip-rule="evenodd" d="M18.7195 3C13.2075 3 8.71903 7.4885 8.71903 13.0005C8.71903 15.3951 9.55891 17.5906 10.9691 19.3133L3 27.2824L4.43757 28.72L12.4067 20.7509C14.1294 22.1611 16.3249 23.001 18.7195 23.001C24.2315 23.001 28.72 18.5125 28.72 13.0005C28.72 7.4885 24.2315 3 18.7195 3ZM18.719 4.99996C23.1489 4.99996 26.7193 8.57044 26.7193 13.0003C26.7193 17.4302 23.1489 21.0007 18.719 21.0007C14.2891 21.0007 10.7186 17.4302 10.7186 13.0003C10.7186 8.57044 14.2891 4.99996 18.719 4.99996ZM15.6504 15.1561C16.8376 15.1561 17.514 14.4658 17.514 13.3339V13.2372H16.6167V13.3615C16.6167 13.9275 16.2992 14.3416 15.6504 14.3416C15.0016 14.3416 14.6151 13.9136 14.6151 13.2372V12.05C14.6151 11.3736 15.0016 10.9457 15.6504 10.9457C16.2992 10.9457 16.6167 11.3598 16.6167 11.9258V11.9948H17.514V11.9534C17.514 10.8214 16.8376 10.1312 15.6504 10.1312C14.4494 10.1312 13.704 10.8214 13.704 12.0638V13.2234C13.704 14.4658 14.4494 15.1561 15.6504 15.1561ZM20.1338 15.1561C21.3486 15.1561 22.1217 14.4658 22.1217 13.2234V12.0638C22.1217 10.8214 21.3486 10.1312 20.1338 10.1312C18.919 10.1312 18.146 10.8214 18.146 12.0638V13.2234C18.146 14.4658 18.919 15.1561 20.1338 15.1561ZM20.1338 14.3416C19.4574 14.3416 19.0571 13.9136 19.0571 13.251V12.0362C19.0571 11.3736 19.4574 10.9457 20.1338 10.9457C20.8103 10.9457 21.2106 11.3736 21.2106 12.0362V13.251C21.2106 13.9136 20.8103 14.3416 20.1338 14.3416ZM24.7707 16.4399H22.6448V16.1362C22.6448 15.584 22.9278 15.2872 23.549 15.1492C23.9562 15.0594 24.1357 14.949 24.1357 14.7557C24.1357 14.5694 23.97 14.4658 23.7491 14.4658C23.5283 14.4658 23.335 14.5694 23.3212 14.8524L22.6724 14.804C22.7207 14.245 23.1486 13.9413 23.7491 13.9413C24.3427 13.9413 24.7845 14.2657 24.7845 14.7626C24.7845 15.2596 24.4118 15.4805 23.8251 15.6047C23.4592 15.6806 23.335 15.7635 23.335 15.9153H24.7707V16.4399Z" />
</svg>
