<svg viewBox="0 0 32 32" xmlns="http://www.w3.org/2000/svg">
<path fill-rule="evenodd" clip-rule="evenodd" d="M22.8086 13.9142C22.8359 13.9337 23.0586 14.0431 23.3984 14.0236C23.7578 14.004 24.3008 13.8361 24.8516 13.1681C25.5898 12.2736 26.2148 11.3321 26.6172 10.6759C24.5586 9.63683 22.7617 9.48449 21.7031 10.2892C21.3398 10.5626 21.125 10.9493 21.0469 11.3634C22.1211 10.8712 22.9375 10.6212 23.0391 10.5939L23.6016 12.5118C23.5352 12.5314 17.0039 14.5196 17.0039 18.672V19.0001H17V20.1446C17.7148 20.3321 18.3672 20.7032 18.8789 21.2384C19.2539 21.0821 19.6523 21.0001 20.0703 21.0001C21.4336 21.0001 22.5938 21.8946 22.9922 23.1329C23.3164 23.047 23.6562 23.0001 24 23.0001C26.207 23.0001 28 24.7931 28 27.0001H26C26 25.8986 25.1016 25.0001 24 25.0001C23.3828 25.0001 22.9375 25.2814 22.6719 25.5196L21.0664 24.4298C21.1133 24.3009 21.1367 24.1837 21.1367 24.0665C21.1367 23.4806 20.6562 23.0001 20.0703 23.0001C19.793 23.0001 19.5273 23.1095 19.3281 23.3048L17.75 23.0626C17.3984 22.4064 16.7266 22.0001 16 22.0001C15.2266 22.0001 14.5156 22.4571 14.1875 23.1681L12.5664 23.4493C12.2812 23.1603 11.9023 23.0001 11.5 23.0001C10.6758 23.0001 10.0039 23.672 10 24.4962V24.5118L8.39844 25.3087C8.21094 25.1681 7.90234 25.0001 7.5 25.0001C6.67187 25.0001 6 25.672 6 26.5001V27.0001H4V26.5001C4 24.5704 5.57031 23.0001 7.5 23.0001C7.76953 23.0001 8.03516 23.0314 8.29687 23.0939C8.83984 21.8595 10.0703 21.0001 11.5 21.0001C12.0352 21.0001 12.5508 21.1173 13.0195 21.3439C13.543 20.754 14.2383 20.3439 15 20.1446V17.0001C15 13.4845 9.69922 10.6564 7.65625 9.8673L8.37891 8.00402C8.55859 8.07043 10.8008 8.96105 12.9531 10.5548C13.1328 9.64855 12.6992 8.60558 11.8242 7.89855C11.0781 7.29699 8.98437 6.16027 5.19922 7.98449C5.55078 9.04699 6.29297 10.9845 7.38281 12.1915C8.78906 13.754 10.4687 12.5743 10.4844 12.5626L11.8281 14.0431C11.3906 14.4415 10.3125 15.0001 9.05469 15.0001C8.98828 15.0001 8.91797 15.0001 8.84766 14.9962C7.72656 14.9415 6.70703 14.4337 5.89453 13.5314C4.01562 11.4454 3.07031 7.88293 3.03125 7.73058L2.83594 6.98058L3.51953 6.60558C8.82031 3.68371 11.9727 5.44933 13.082 6.34387C14.6406 7.60168 15.3437 9.60168 14.832 11.3165C14.8125 11.3751 14.7969 11.4415 14.7812 11.5118C14.75 11.6446 14.7031 11.8243 14.6328 12.0079C15.4062 12.797 16.0703 13.6915 16.4961 14.6876C17.2344 13.7736 18.1602 13.0236 19.0898 12.4298C18.7969 11.0196 19.3281 9.57433 20.4922 8.69152C21.3945 8.00793 23.9844 6.71496 28.5156 9.43762L29.332 9.9298L28.8789 10.7696L28.8767 10.7737C28.8093 10.8965 27.8092 12.7184 26.3945 14.4376C25.5547 15.4532 24.4453 16.0236 23.3164 16.0236C23.25 16.0236 23.1836 16.0236 23.1172 16.0196C22.2578 15.9689 21.4922 15.5743 21.1211 14.9923L22.8086 13.9142ZM13.4961 10.9767L13.4844 10.8204C13.4471 10.8231 13.4153 10.833 13.384 10.8427C13.3694 10.8473 13.3548 10.8518 13.3398 10.8556C13.3754 10.8856 13.4128 10.9138 13.4495 10.9414C13.4652 10.9532 13.4808 10.9649 13.4961 10.9767Z" />
</svg>
