<svg viewBox="0 0 32 32" xmlns="http://www.w3.org/2000/svg">
<path fill-rule="evenodd" clip-rule="evenodd" d="M16 4C13.8555 4 12.1172 5.71875 12.0312 7.84375C8.42578 9.375 6 12.9414 6 17C6 17.0556 5.99918 17.1129 5.99834 17.1719V17.1719V17.1719C5.99658 17.2949 5.99472 17.4251 6 17.5625C4.81641 18.2578 4 19.5352 4 21C4 23.1992 5.80078 25 8 25C8.57422 25 9.12891 24.8789 9.625 24.6562C11.3594 26.1133 13.6172 27 16 27C18.3828 27 20.6406 26.1133 22.375 24.6562C22.8711 24.8789 23.4258 25 24 25C26.1992 25 28 23.1992 28 21C28 19.5195 27.1758 18.2227 25.9688 17.5312C25.9844 17.3711 26 17.207 26 17C26 12.9414 23.5742 9.375 19.9688 7.84375C19.8828 5.71875 18.1445 4 16 4ZM16 6C17.1172 6 18 6.88281 18 8C18 9.11719 17.1172 10 16 10C14.8828 10 14 9.11719 14 8C14 6.88281 14.8828 6 16 6ZM16 12C14.4688 12 13.1406 11.1172 12.4688 9.84375C9.78906 11.1445 8 13.8789 8 17C10.1992 17 12 18.8008 12 21C12 21.8945 11.6914 22.707 11.1875 23.375C12.5234 24.3867 14.2422 25 16 25C17.7578 25 19.4766 24.3867 20.8125 23.375C20.3086 22.707 20 21.8945 20 21C20 18.8008 21.8008 17 24 17C24 13.8789 22.2109 11.1445 19.5312 9.84375C18.8594 11.1172 17.5312 12 16 12ZM8 19C9.11719 19 10 19.8828 10 21C10 22.1172 9.11719 23 8 23C6.88281 23 6 22.1172 6 21C6 19.8828 6.88281 19 8 19ZM26 21C26 19.8828 25.1172 19 24 19C22.8828 19 22 19.8828 22 21C22 22.1172 22.8828 23 24 23C25.1172 23 26 22.1172 26 21Z" />
</svg>
