<svg viewBox="0 0 32 32" xmlns="http://www.w3.org/2000/svg">
<path fill-rule="evenodd" clip-rule="evenodd" d="M14.2812 4.28125L14.5938 4H25V14.4062L24.7188 14.7188L13.7188 25.7188L13 26.4062L12.2812 25.7188L3.28125 16.7188L2.59375 16L3.28125 15.2812L14.2812 4.28125ZM23 6H15.4375L5.4375 16L13 23.5625L23 13.5625V6ZM29 7H26V9H27V17.1562L17.5 26.5938L16.25 25.3438L14.8438 26.75L16.7812 28.7188L17.5 29.4062L18.1875 28.7188L28.7188 18.3125L29 18V7ZM19 9C19 8.44922 19.4492 8 20 8C20.5508 8 21 8.44922 21 9C21 9.55078 20.5508 10 20 10C19.4492 10 19 9.55078 19 9Z"/>
</svg>
