<svg viewBox="0 0 32 32" xmlns="http://www.w3.org/2000/svg">
<path fill-rule="evenodd" clip-rule="evenodd" d="M12.5625 4.5625C12.9414 4.18359 13.4766 4 14 4H18C18.5234 4 19.0586 4.18359 19.4375 4.5625C19.8164 4.94141 20 5.47656 20 6V7H26V9H25V25C25 26.6445 23.6445 28 22 28H10C8.35547 28 7 26.6445 7 25V9H6V7H12V6C12 5.47656 12.1836 4.94141 12.5625 4.5625ZM18 6H14V7H18V6ZM9 9H23V25C23 25.5547 22.5547 26 22 26H10C9.44531 26 9 25.5547 9 25V9ZM11 23V12H13V23H11ZM15 12V23H17V12H15ZM19 23V12H21V23H19Z" />
</svg>
