<svg viewBox="0 0 32 32" xmlns="http://www.w3.org/2000/svg">
<path fill-rule="evenodd" clip-rule="evenodd" d="M9 12C9 8.14453 12.1445 5 16 5C19.8555 5 23 8.14453 23 12C23 14.4102 21.7695 16.5508 19.9062 17.8125C23.4727 19.3438 26 22.8828 26 27H24C24 22.5703 20.4297 19 16 19C11.5703 19 8 22.5703 8 27H6C6 22.8828 8.52734 19.3438 12.0938 17.8125C10.2305 16.5508 9 14.4102 9 12ZM21 12C21 9.22656 18.7734 7 16 7C13.2266 7 11 9.22656 11 12C11 14.7734 13.2266 17 16 17C18.7734 17 21 14.7734 21 12Z" />
</svg>
