<svg viewBox="0 0 32 32" xmlns="http://www.w3.org/2000/svg">
<path fill-rule="evenodd" clip-rule="evenodd" d="M6.875 6.6875C8.90625 6.39062 12.2344 6 16 6C19.7656 6 23.0938 6.39062 25.125 6.6875C26.8047 6.93359 28.1602 8.19922 28.4688 9.875C28.7344 11.3047 29 13.3945 29 16C29 18.6055 28.7305 20.6953 28.4688 22.125C28.1602 23.8008 26.8047 25.0703 25.125 25.3125C23.0859 25.6094 19.7461 26 16 26C12.2539 26 8.91406 25.6094 6.875 25.3125C5.19531 25.0703 3.83984 23.8008 3.53125 22.125C3.26953 20.6992 3 18.6133 3 16C3 13.3867 3.26953 11.3008 3.53125 9.875C3.83984 8.19922 5.19531 6.93359 6.875 6.6875ZM24.8438 8.65625C22.8789 8.37109 19.6328 8 16 8C12.3672 8 9.11719 8.37109 7.15625 8.65625C6.30859 8.78125 5.65234 9.41797 5.5 10.25C5.25781 11.5703 5 13.5195 5 16C5 18.4766 5.25781 20.4297 5.5 21.75C5.65234 22.582 6.3125 23.2227 7.15625 23.3438C9.125 23.6289 12.3906 24 16 24C19.6094 24 22.8711 23.6289 24.8438 23.3438C25.6914 23.2227 26.3477 22.582 26.5 21.75C26.7422 20.4297 27 18.4688 27 16C27 13.5273 26.7422 11.5703 26.5 10.25C26.3477 9.41797 25.6875 8.78125 24.8438 8.65625ZM13 21.7188L14.5 20.875L21.5 16.875L23 16L21.5 15.125L14.5 11.125L13 10.2812V21.7188ZM18.9688 16L15 13.7188V18.2812L18.9688 16Z" />
</svg>
